<?xml version="1.0" encoding="UTF-8"?>
<svg xmlns="http://www.w3.org/2000/svg" xmlns:xlink="http://www.w3.org/1999/xlink" width="120px" height="73px" viewBox="0 0 120 73" version="1.1">
<g id="surface1">
<path style=" stroke:none;fill-rule:nonzero;fill:rgb(100%,100%,100%);fill-opacity:1;" d="M 60.160156 50.214844 C 60.117188 49.980469 60.152344 49.738281 60.261719 49.523438 C 60.429688 49.183594 60.75 48.953125 61.125 48.894531 C 62.183594 48.695312 63.25 48.554688 64.324219 48.480469 C 66.335938 48.300781 67.347656 48.210938 69.835938 47.957031 L 70.152344 47.925781 L 69.996094 47.515625 C 69.890625 47.242188 69.292969 46.691406 68.582031 46.089844 C 68.1875 45.757812 67.820312 45.398438 67.488281 45.003906 C 67.289062 44.683594 67.320312 44.265625 67.566406 43.976562 C 67.886719 43.574219 68.4375 43.621094 68.84375 43.78125 C 70.628906 44.496094 73.027344 45.851562 74.542969 46.453125 C 75.390625 46.792969 76.203125 47.949219 76.148438 49.050781 L 77.445312 50.832031 C 75.722656 52.070312 74.3125 53.691406 73.324219 55.566406 L 71.691406 54.871094 C 70.976562 54.578125 68.84375 54.597656 68.273438 54.585938 C 67.195312 54.558594 66.070312 54.53125 64.898438 54.519531 L 64.777344 54.035156 C 63.976562 54.042969 63.226562 54.039062 63.011719 54.019531 C 62.660156 53.996094 62.367188 53.742188 62.296875 53.398438 C 62.28125 53.035156 62.5 52.707031 62.839844 52.582031 L 62.933594 52.550781 L 62.230469 52.617188 C 61.25 52.714844 60.632812 52.300781 60.675781 51.660156 C 60.726562 51.296875 60.988281 50.996094 61.339844 50.898438 L 61.066406 50.867188 C 60.476562 50.800781 60.226562 50.527344 60.160156 50.214844 Z M 60.160156 50.214844 "/>
<path style=" stroke:none;fill-rule:nonzero;fill:rgb(100%,100%,100%);fill-opacity:1;" d="M 98.859375 25.746094 L 98.882812 25.714844 C 99.410156 25.074219 99.726562 24.285156 99.777344 23.453125 C 99.871094 22.617188 99.542969 21.40625 98.890625 20.886719 C 98.671875 20.710938 98.203125 20.441406 97.347656 20.667969 C 96.875 20.777344 96.460938 21.066406 96.199219 21.480469 C 95.859375 20.847656 95.375 19.683594 94.46875 18.558594 C 93.359375 17.628906 91.695312 16.957031 89.855469 16.8125 C 89.765625 17.265625 89.691406 17.726562 89.601562 18.214844 C 89.53125 18.742188 89.410156 19.261719 89.242188 19.769531 C 89.113281 20.074219 88.941406 20.363281 88.726562 20.617188 C 88.351562 21.09375 87.9375 21.535156 87.84375 22.144531 C 87.789062 22.519531 88.046875 23.125 88.085938 23.507812 C 88.113281 23.800781 88.125 23.894531 88.152344 24.183594 L 88.371094 25.429688 C 88.628906 25.421875 89.210938 25.425781 89.617188 25.425781 C 89.683594 25.429688 89.746094 25.460938 89.789062 25.511719 C 89.832031 25.566406 89.855469 25.632812 89.847656 25.699219 C 89.820312 26.285156 89.613281 26.519531 89.417969 26.9375 C 89.273438 27.199219 89.09375 27.4375 88.886719 27.648438 L 88.777344 27.742188 C 88.835938 28.074219 88.96875 28.84375 88.96875 28.84375 C 89.121094 29.1875 89.335938 29.5 89.605469 29.761719 C 89.953125 30.167969 90.398438 30.480469 90.902344 30.664062 C 92.292969 31.238281 93.8125 31.433594 95.304688 31.238281 C 95.734375 31.910156 96.089844 32.628906 96.363281 33.382812 L 96.671875 34.230469 C 97.523438 33.613281 98.460938 33.132812 99.453125 32.800781 C 100.992188 32.277344 102.589844 31.960938 104.207031 31.863281 L 103.949219 31.042969 C 101.1875 30.746094 98.949219 28.054688 98.007812 26.707031 L 97.832031 26.457031 C 98.222656 26.304688 98.578125 26.058594 98.859375 25.746094 Z M 98.859375 25.746094 "/>
<path style=" stroke:none;fill-rule:nonzero;fill:rgb(12.941176%,9.019608%,8.235294%);fill-opacity:1;" d="M 88.359375 25.933594 C 88.667969 25.921875 88.980469 25.925781 89.289062 25.929688 L 89.585938 25.929688 C 89.644531 25.929688 89.625 25.925781 89.539062 25.917969 C 89.488281 25.90625 89.445312 25.878906 89.410156 25.84375 C 89.363281 25.773438 89.355469 25.761719 89.382812 25.808594 C 89.355469 25.765625 89.34375 25.71875 89.347656 25.667969 C 89.347656 25.691406 89.347656 25.714844 89.34375 25.742188 C 89.335938 25.78125 89.332031 25.820312 89.332031 25.859375 C 89.34375 25.785156 89.34375 25.777344 89.335938 25.832031 C 89.332031 25.855469 89.328125 25.878906 89.324219 25.898438 C 89.316406 25.941406 89.304688 25.984375 89.292969 26.027344 C 89.28125 26.066406 89.269531 26.101562 89.257812 26.140625 C 89.25 26.160156 89.242188 26.179688 89.234375 26.195312 C 89.265625 26.121094 89.273438 26.105469 89.25 26.15625 C 89.222656 26.214844 89.195312 26.273438 89.164062 26.332031 C 89.097656 26.464844 89.03125 26.597656 88.960938 26.726562 C 88.925781 26.792969 88.886719 26.859375 88.84375 26.917969 C 88.820312 26.953125 88.796875 26.988281 88.773438 27.019531 C 88.753906 27.046875 88.683594 27.117188 88.777344 27.015625 C 88.699219 27.113281 88.617188 27.207031 88.53125 27.296875 C 88.335938 27.492188 88.335938 27.808594 88.53125 28.007812 C 88.730469 28.195312 89.042969 28.195312 89.242188 28.007812 C 89.441406 27.816406 89.613281 27.601562 89.75 27.367188 C 89.886719 27.144531 90.007812 26.914062 90.113281 26.675781 C 90.1875 26.523438 90.246094 26.363281 90.285156 26.199219 C 90.351562 25.976562 90.363281 25.738281 90.328125 25.503906 C 90.265625 25.242188 90.074219 25.035156 89.816406 24.953125 C 89.644531 24.917969 89.46875 24.910156 89.289062 24.921875 C 88.980469 24.921875 88.667969 24.917969 88.359375 24.929688 C 88.082031 24.929688 87.855469 25.152344 87.855469 25.429688 C 87.855469 25.710938 88.082031 25.933594 88.359375 25.933594 Z M 88.359375 25.933594 "/>
<path style=" stroke:none;fill-rule:nonzero;fill:rgb(52.156863%,50.196078%,49.803922%);fill-opacity:1;" d="M 96.289062 9.679688 C 93.109375 10.644531 91.546875 12.351562 90.355469 15.03125 C 90.136719 15.609375 89.96875 16.207031 89.855469 16.816406 C 91.695312 16.957031 93.359375 17.628906 94.472656 18.5625 C 95.378906 19.683594 95.859375 20.847656 96.199219 21.480469 C 96.464844 21.070312 96.875 20.777344 97.351562 20.667969 C 98.203125 20.445312 98.671875 20.710938 98.890625 20.886719 C 99.542969 21.40625 99.871094 22.617188 99.777344 23.457031 C 99.726562 24.285156 99.414062 25.074219 98.886719 25.71875 C 98.597656 26.046875 98.238281 26.300781 97.832031 26.457031 L 98.007812 26.710938 C 99.074219 28.230469 101.800781 31.484375 105.070312 31.023438 C 105.683594 30.109375 106.632812 29.210938 107.253906 28.597656 C 108.808594 27.054688 110.738281 24.289062 110.964844 20.773438 C 111.109375 18.566406 110.324219 16.28125 109.359375 14.667969 C 106.886719 10.523438 103.871094 9.65625 102.003906 9.3125 C 100.101562 9.003906 98.152344 9.128906 96.300781 9.675781 Z M 96.289062 9.679688 "/>
<path style=" stroke:none;fill-rule:nonzero;fill:rgb(12.941176%,9.019608%,8.235294%);fill-opacity:1;" d="M 88.535156 29.097656 C 88.8125 29.652344 89.199219 30.140625 89.675781 30.527344 C 90.238281 30.945312 90.875 31.25 91.554688 31.425781 C 93.070312 31.875 94.675781 31.929688 96.222656 31.585938 C 96.851562 31.449219 96.585938 30.476562 95.953125 30.613281 C 94.617188 30.90625 93.222656 30.863281 91.90625 30.480469 C 91.367188 30.351562 90.851562 30.128906 90.386719 29.816406 C 89.96875 29.488281 89.632812 29.070312 89.402344 28.589844 C 89.113281 28.011719 88.25 28.519531 88.535156 29.097656 Z M 88.535156 29.097656 "/>
<path style=" stroke:none;fill-rule:nonzero;fill:rgb(12.941176%,9.019608%,8.235294%);fill-opacity:1;" d="M 89.875 14.898438 C 89.5625 15.78125 89.335938 16.695312 89.199219 17.621094 C 89.054688 18.453125 88.988281 19.378906 88.492188 20.09375 C 88.082031 20.683594 87.53125 21.1875 87.378906 21.921875 C 87.320312 22.300781 87.351562 22.6875 87.46875 23.050781 C 87.5625 23.421875 87.621094 23.800781 87.652344 24.183594 C 87.660156 24.457031 87.878906 24.679688 88.152344 24.6875 C 88.429688 24.683594 88.652344 24.460938 88.65625 24.183594 C 88.632812 23.804688 88.585938 23.425781 88.507812 23.050781 C 88.433594 22.746094 88.292969 22.421875 88.367188 22.101562 C 88.515625 21.4375 89.167969 20.949219 89.503906 20.378906 C 89.949219 19.617188 90.027344 18.683594 90.179688 17.832031 C 90.3125 16.921875 90.535156 16.03125 90.839844 15.164062 C 90.914062 14.898438 90.757812 14.621094 90.488281 14.546875 C 90.222656 14.480469 89.949219 14.632812 89.871094 14.898438 Z M 89.875 14.898438 "/>
<path style=" stroke:none;fill-rule:nonzero;fill:rgb(12.941176%,9.019608%,8.235294%);fill-opacity:1;" d="M 95.003906 31.6875 C 95.199219 32.011719 95.375 32.347656 95.53125 32.691406 C 95.574219 32.777344 95.613281 32.863281 95.648438 32.949219 C 95.667969 32.988281 95.683594 33.027344 95.703125 33.066406 C 95.710938 33.085938 95.71875 33.109375 95.730469 33.128906 C 95.738281 33.152344 95.769531 33.226562 95.734375 33.144531 C 95.699219 33.0625 95.75 33.179688 95.761719 33.207031 C 95.777344 33.242188 95.792969 33.28125 95.804688 33.316406 C 95.832031 33.382812 95.855469 33.449219 95.882812 33.515625 C 95.957031 33.78125 96.230469 33.941406 96.5 33.867188 C 96.765625 33.792969 96.921875 33.515625 96.851562 33.246094 C 96.59375 32.527344 96.265625 31.835938 95.871094 31.179688 C 95.730469 30.941406 95.421875 30.859375 95.183594 31 C 94.945312 31.140625 94.863281 31.449219 95.003906 31.6875 Z M 95.003906 31.6875 "/>
<path style=" stroke:none;fill-rule:nonzero;fill:rgb(12.941176%,9.019608%,8.235294%);fill-opacity:1;" d="M 97.574219 26.960938 C 99.085938 29.109375 101.222656 31.230469 103.949219 31.546875 C 104.226562 31.542969 104.449219 31.320312 104.449219 31.042969 C 104.445312 30.765625 104.222656 30.542969 103.949219 30.539062 C 101.625 30.269531 99.714844 28.261719 98.441406 26.453125 C 98.296875 26.21875 97.992188 26.140625 97.753906 26.273438 C 97.515625 26.414062 97.4375 26.722656 97.574219 26.960938 Z M 97.574219 26.960938 "/>
<path style=" stroke:none;fill-rule:nonzero;fill:rgb(12.941176%,9.019608%,8.235294%);fill-opacity:1;" d="M 96.707031 21.617188 C 97.070312 21.140625 97.976562 20.921875 98.457031 21.199219 C 98.472656 21.207031 98.609375 21.296875 98.554688 21.257812 C 98.511719 21.226562 98.671875 21.363281 98.695312 21.390625 C 98.796875 21.503906 98.886719 21.628906 98.953125 21.765625 C 99.121094 22.089844 99.230469 22.441406 99.273438 22.804688 C 99.445312 24.226562 98.65625 25.863281 97.160156 26.113281 C 96.894531 26.191406 96.738281 26.464844 96.808594 26.734375 C 96.886719 26.996094 97.160156 27.152344 97.425781 27.085938 C 99.171875 26.792969 100.085938 25.152344 100.273438 23.519531 C 100.417969 22.25 99.839844 20.414062 98.421875 20.128906 C 97.445312 19.941406 96.449219 20.320312 95.835938 21.109375 C 95.699219 21.347656 95.78125 21.65625 96.015625 21.796875 C 96.257812 21.929688 96.558594 21.851562 96.703125 21.617188 Z M 96.707031 21.617188 "/>
<path style=" stroke:none;fill-rule:nonzero;fill:rgb(12.941176%,9.019608%,8.235294%);fill-opacity:1;" d="M 89.503906 20.1875 C 89.335938 20.621094 89.289062 21.664062 90.003906 21.832031 C 90.960938 21.929688 91.160156 20.6875 90.90625 20.0625 C 90.699219 19.554688 89.949219 19.269531 89.503906 20.1875 Z M 89.503906 20.1875 "/>
<path style=" stroke:none;fill-rule:nonzero;fill:rgb(12.941176%,9.019608%,8.235294%);fill-opacity:1;" d="M 90.789062 15.285156 C 91.273438 14.105469 91.984375 13.03125 92.878906 12.117188 C 93.839844 11.234375 94.992188 10.585938 96.246094 10.21875 C 98.753906 9.421875 101.601562 9.40625 104.058594 10.417969 C 106.59375 11.464844 108.535156 13.761719 109.605469 16.246094 C 110.300781 17.800781 110.585938 19.511719 110.429688 21.207031 C 110.242188 22.78125 109.722656 24.296875 108.902344 25.652344 C 108.164062 26.902344 107.214844 27.90625 106.203125 28.929688 C 105.039062 30.105469 103.769531 31.476562 103.972656 33.257812 C 103.980469 33.53125 104.199219 33.753906 104.472656 33.761719 C 104.75 33.757812 104.972656 33.535156 104.976562 33.257812 C 104.894531 32.511719 105.109375 31.761719 105.574219 31.175781 C 106.03125 30.558594 106.539062 29.980469 107.097656 29.453125 C 108.058594 28.539062 108.910156 27.511719 109.628906 26.394531 C 110.496094 25.015625 111.078125 23.480469 111.34375 21.875 C 111.621094 20.078125 111.429688 18.242188 110.796875 16.542969 C 109.761719 13.703125 107.691406 11.027344 104.929688 9.710938 C 102.457031 8.535156 99.585938 8.386719 96.9375 8.988281 C 95.316406 9.324219 93.800781 10.046875 92.511719 11.09375 C 91.351562 12.082031 90.539062 13.398438 89.925781 14.777344 C 89.792969 15.019531 89.871094 15.320312 90.105469 15.46875 C 90.34375 15.605469 90.648438 15.523438 90.792969 15.285156 Z M 90.789062 15.285156 "/>
<path style=" stroke:none;fill-rule:nonzero;fill:rgb(12.941176%,9.019608%,8.235294%);fill-opacity:1;" d="M 94.117188 18.917969 C 94.144531 18.949219 94.171875 18.984375 94.199219 19.019531 C 94.207031 19.027344 94.210938 19.035156 94.21875 19.042969 C 94.265625 19.105469 94.308594 19.167969 94.355469 19.230469 C 94.445312 19.355469 94.527344 19.480469 94.609375 19.605469 C 94.769531 19.847656 94.914062 20.09375 95.054688 20.347656 C 95.273438 20.746094 95.472656 21.15625 95.675781 21.5625 C 95.820312 21.800781 96.125 21.882812 96.363281 21.742188 C 96.597656 21.597656 96.675781 21.296875 96.542969 21.054688 C 96.332031 20.636719 96.128906 20.210938 95.898438 19.800781 C 95.585938 19.238281 95.230469 18.703125 94.828125 18.203125 C 94.628906 18.007812 94.3125 18.007812 94.117188 18.203125 C 93.929688 18.402344 93.929688 18.714844 94.117188 18.917969 Z M 94.117188 18.917969 "/>
<path style=" stroke:none;fill-rule:nonzero;fill:rgb(12.941176%,9.019608%,8.235294%);fill-opacity:1;" d="M 90.300781 17.359375 C 91.664062 17.558594 93.074219 18.050781 94.117188 18.917969 C 94.316406 19.105469 94.628906 19.105469 94.828125 18.917969 C 95.019531 18.71875 95.019531 18.402344 94.828125 18.203125 C 93.601562 17.21875 92.128906 16.59375 90.570312 16.390625 C 90.300781 16.324219 90.03125 16.480469 89.953125 16.742188 C 89.878906 17.011719 90.035156 17.285156 90.304688 17.363281 Z M 90.300781 17.359375 "/>
<path style=" stroke:none;fill-rule:nonzero;fill:rgb(70.196078%,70.196078%,70.196078%);fill-opacity:1;" d="M 101.214844 32.300781 C 100.621094 32.441406 100.035156 32.609375 99.457031 32.800781 C 97.203125 33.542969 94.636719 35.359375 93.921875 37.835938 C 93.679688 37.941406 93.4375 38.046875 93.195312 38.15625 C 91.09375 39.105469 89.25 40.269531 87.878906 42.175781 C 85.6875 45.222656 85.726562 49.082031 84.9375 52.617188 C 84.75 53.460938 84.667969 54.484375 84.023438 55.445312 C 82.15625 53.785156 80.980469 52.417969 79.195312 50.558594 C 78.929688 50.285156 78.515625 50.214844 78.175781 50.394531 C 75.707031 51.675781 73.511719 54.828125 73.144531 56.011719 C 73.121094 56.082031 73.128906 56.160156 73.167969 56.222656 C 74.675781 58.6875 77.003906 61.949219 78.300781 63.347656 C 80.660156 65.886719 83.933594 67.945312 87.378906 67.375 C 87.445312 67.363281 87.507812 67.347656 87.574219 67.335938 C 88.097656 69.070312 88.699219 70.125 90.328125 70.941406 C 91.316406 71.433594 92.832031 72.058594 94.339844 72.171875 C 96.132812 72.28125 97.929688 72.265625 99.722656 72.113281 C 101.035156 70.242188 104.507812 65.109375 106.054688 62.96875 C 107.8125 60.535156 112.273438 53.375 112.863281 52.390625 C 113.003906 51.238281 113.167969 49.9375 113.195312 48.894531 C 113.257812 46.3125 113.394531 44.226562 112.6875 41.84375 C 111.984375 39.464844 110.195312 36.402344 107.390625 35.613281 C 107.082031 34.9375 106.449219 32.984375 106.042969 32.363281 C 105.886719 32.003906 105.515625 31.792969 105.128906 31.839844 C 103.808594 31.835938 102.496094 31.988281 101.214844 32.300781 Z M 101.214844 32.300781 "/>
<path style=" stroke:none;fill-rule:nonzero;fill:rgb(100%,100%,100%);fill-opacity:1;" d="M 18.761719 50.605469 C 18.597656 49.886719 18.75 49.132812 18.929688 48.417969 C 19.105469 47.71875 19.328125 46.992188 19.851562 46.496094 C 20.304688 46.082031 20.859375 45.800781 21.457031 45.683594 C 22.722656 45.484375 23.996094 45.375 25.273438 45.347656 C 26.59375 45.464844 27.796875 46.15625 28.566406 47.238281 C 28.882812 47.648438 29.050781 48.148438 29.050781 48.664062 C 29.050781 48.664062 28.503906 49.289062 27.347656 50.601562 C 26.730469 51.3125 26.167969 52.066406 25.664062 52.859375 C 25.546875 53.140625 25.171875 53.246094 24.808594 53.117188 C 24.503906 53.011719 24.167969 52.609375 23.855469 52.523438 C 23.28125 52.363281 22.390625 52.511719 21.792969 52.390625 C 20.996094 52.226562 20.085938 52.023438 19.738281 51.289062 Z M 18.761719 50.605469 "/>
<path style=" stroke:none;fill-rule:nonzero;fill:rgb(100%,100%,100%);fill-opacity:1;" d="M 16.152344 10.382812 C 17.015625 8.671875 19.101562 7.03125 23.933594 7.113281 C 31.242188 7.238281 30.449219 12.71875 30.449219 12.71875 C 30.367188 13.902344 30.339844 15.082031 30.285156 16.167969 C 30.195312 18.054688 29.730469 19.78125 28.488281 20.9375 C 27.910156 21.492188 27.226562 21.9375 26.484375 22.242188 C 26.492188 22.308594 26.496094 22.34375 26.496094 22.34375 C 26.527344 22.5625 26.601562 22.769531 26.714844 22.953125 C 27 23.3125 27.394531 23.566406 27.839844 23.675781 C 26.742188 25.304688 25.289062 26.003906 23.148438 26.023438 C 20.925781 26.042969 18.757812 25.324219 16.984375 23.988281 C 17.261719 23.847656 17.523438 23.683594 17.773438 23.496094 C 18.023438 23.320312 18.210938 23.070312 18.3125 22.785156 C 18.511719 22.136719 18.652344 21.46875 18.738281 20.792969 C 18.199219 20.324219 17.710938 19.796875 17.28125 19.226562 C 17.28125 19.226562 16.910156 18.722656 16.75 18.433594 L 16.683594 18.273438 C 16.289062 18.316406 15.890625 18.25 15.527344 18.085938 C 14.988281 17.785156 14.550781 17.328125 14.269531 16.777344 C 13.945312 16.210938 13.753906 15.238281 13.976562 14.648438 C 14.121094 14.289062 14.445312 14.035156 14.828125 13.980469 C 15.125 13.914062 15.433594 13.960938 15.695312 14.117188 C 15.441406 12.855469 15.601562 11.542969 16.152344 10.382812 Z M 16.152344 10.382812 "/>
<path style=" stroke:none;fill-rule:nonzero;fill:rgb(100%,100%,100%);fill-opacity:1;" d="M 24.402344 45.367188 C 24.484375 45.363281 24.566406 45.359375 24.640625 45.355469 L 35.824219 43.214844 C 35.851562 39.347656 35.898438 35.324219 35.328125 31.652344 C 34.621094 27.097656 32.542969 24.925781 27.851562 23.65625 C 26.75 25.300781 25.296875 26.003906 23.144531 26.023438 C 20.886719 26.042969 18.691406 25.304688 16.902344 23.921875 C 13.632812 25.328125 11.230469 26.53125 9.425781 29.679688 C 8.378906 31.507812 7.742188 34.628906 7.183594 36.71875 C 6.628906 38.808594 6.484375 41.085938 7.050781 43.148438 C 7.386719 44.410156 8.003906 45.574219 8.851562 46.5625 C 10.546875 48.507812 14.148438 49.949219 16.734375 50.355469 C 16.734375 50.355469 18.761719 50.480469 18.761719 50.605469 C 18.597656 49.886719 18.75 49.132812 18.929688 48.417969 C 19.105469 47.71875 19.328125 46.992188 19.855469 46.496094 C 20.304688 46.082031 20.859375 45.800781 21.457031 45.683594 C 22.070312 45.574219 23.453125 45.429688 24.402344 45.367188 Z M 24.402344 45.367188 "/>
<path style=" stroke:none;fill-rule:nonzero;fill:rgb(66.27451%,54.117647%,45.882353%);fill-opacity:1;" d="M 50.210938 22.328125 C 48.199219 22.3125 46.191406 22.164062 44.199219 21.882812 C 41.746094 21.09375 41.988281 17.75 42.367188 16.335938 C 42.691406 15.117188 42.738281 12.015625 42.414062 10.265625 C 42.363281 9.914062 42.320312 9.597656 42.300781 9.359375 C 42.261719 8.480469 42.335938 7.601562 42.515625 6.738281 C 42.824219 5.347656 43.234375 4.550781 44.242188 3.367188 C 46.445312 0.910156 48.894531 0.460938 50.554688 0.5 C 53.015625 0.558594 54.800781 1.09375 56.375 2.800781 C 57.535156 3.777344 58.195312 5.25 58.503906 6.734375 C 58.738281 8.03125 58.769531 9.359375 58.601562 10.667969 C 58.492188 11.816406 58.4375 12.96875 58.359375 14.023438 C 58.316406 14.867188 58.148438 15.699219 57.871094 16.492188 C 57.921875 17.242188 58.105469 18.015625 58.03125 18.78125 C 58 19.289062 57.804688 19.769531 57.46875 20.152344 C 57.46875 20.152344 57.316406 22.175781 55.726562 22.273438 C 54.199219 22.367188 50.210938 22.328125 50.210938 22.328125 Z M 50.210938 22.328125 "/>
<path style=" stroke:none;fill-rule:nonzero;fill:rgb(100%,100%,100%);fill-opacity:1;" d="M 44.710938 11.777344 C 44.550781 11.742188 44.324219 11.546875 43.898438 11.628906 C 43.539062 11.671875 43.226562 11.902344 43.085938 12.238281 C 42.863281 12.785156 43.019531 13.703125 43.3125 14.242188 C 43.5625 14.765625 43.964844 15.203125 44.464844 15.5 C 44.824219 15.671875 45.226562 15.738281 45.621094 15.691406 C 45.289062 15.46875 46.085938 16.605469 46.085938 16.605469 C 46.496094 17.179688 46.964844 17.703125 47.488281 18.175781 C 47.417969 18.882812 47.28125 19.585938 47.082031 20.273438 C 46.984375 20.5625 46.800781 20.8125 46.558594 20.992188 C 46.257812 21.207031 45.941406 21.394531 45.613281 21.5625 C 47.550781 22.796875 49.847656 23.347656 52.132812 23.128906 C 53.558594 23.011719 54.890625 22.550781 55.8125 21.390625 C 55.289062 21.21875 54.808594 20.941406 54.398438 20.578125 C 54.335938 20.53125 54.285156 20.46875 54.246094 20.398438 C 54.214844 20.328125 54.191406 20.25 54.183594 20.167969 C 54.183594 20.167969 54.164062 20.011719 54.132812 19.808594 C 55.039062 19.5625 55.878906 19.101562 56.570312 18.460938 C 57.761719 17.40625 58.234375 15.792969 58.359375 14.023438 C 58.417969 13.214844 58.464844 12.347656 58.535156 11.46875 L 58.390625 11.449219 C 58.414062 10.46875 58.230469 9.492188 57.851562 8.585938 C 57.386719 7.628906 57.019531 7.027344 56.554688 6.726562 C 55.699219 7.589844 54.695312 8.289062 53.59375 8.796875 C 53.015625 9.070312 52.421875 9.300781 51.8125 9.488281 C 51.4375 9.605469 50.40625 9.835938 50.132812 9.351562 L 49.945312 9.023438 C 49.011719 9.773438 48.03125 10.457031 47.003906 11.070312 C 46.71875 11.277344 46.496094 11.558594 46.363281 11.882812 Z M 44.710938 11.777344 "/>
<path style=" stroke:none;fill-rule:nonzero;fill:rgb(97.254902%,72.156863%,70.588235%);fill-opacity:1;" d="M 40.222656 27.769531 C 40.15625 28.035156 40.089844 28.332031 40.027344 28.65625 C 39.664062 30.710938 39.480469 32.792969 39.476562 34.878906 C 39.507812 36.890625 39.578125 40.152344 39.722656 42.46875 C 48.015625 40.878906 56.476562 39.261719 63.882812 37.84375 C 63.546875 36.054688 63.015625 33.554688 62.648438 31.316406 C 62.238281 28.839844 61.609375 25.660156 60.167969 23.820312 C 59.351562 22.773438 58.472656 22.21875 57.28125 21.707031 C 57.0625 21.609375 56.375 21.382812 56.375 21.382812 L 55.925781 21.234375 C 55.007812 22.511719 53.621094 23.003906 52.132812 23.128906 C 49.832031 23.351562 47.523438 22.792969 45.578125 21.539062 C 42.777344 23.421875 41.300781 24.535156 40.359375 27.3125 C 40.3125 27.449219 40.269531 27.601562 40.222656 27.769531 Z M 40.222656 27.769531 "/>
<path style=" stroke:none;fill-rule:nonzero;fill:rgb(52.156863%,50.196078%,49.803922%);fill-opacity:1;" d="M 16.964844 3.394531 C 18.34375 2.457031 19.972656 1.960938 21.636719 1.96875 C 24.339844 1.96875 26.292969 2.523438 28.050781 4.445312 C 29.304688 5.511719 29.898438 6.867188 30.253906 8.402344 C 30.570312 9.953125 30.617188 11.546875 30.390625 13.109375 L 30.351562 12.515625 C 30.246094 11.128906 29.097656 9.703125 28.304688 9.40625 C 28.304688 9.40625 27.433594 9.160156 26.542969 9.003906 L 26.230469 9.109375 C 25.042969 9.507812 23.351562 10.378906 22.40625 10.804688 C 22.304688 10.855469 22.183594 10.84375 22.09375 10.777344 C 22 10.707031 21.953125 10.597656 21.96875 10.484375 C 22 10.304688 21.996094 10.117188 21.953125 9.9375 C 21.902344 9.707031 21.710938 9.605469 21.554688 9.667969 C 20.335938 10.1875 18.964844 11.285156 17.90625 12.246094 C 17.742188 12.390625 17.625 12.578125 17.566406 12.789062 C 17.445312 13.195312 17.347656 13.609375 17.273438 14.023438 L 15.695312 14.117188 C 15.4375 13.960938 15.125 13.914062 14.828125 13.980469 C 14.445312 14.035156 14.121094 14.289062 13.976562 14.648438 C 13.941406 14.746094 13.917969 14.847656 13.902344 14.953125 C 13.382812 14.050781 13.160156 12.402344 13.066406 11.605469 C 13.007812 10.671875 13.0625 9.730469 13.234375 8.808594 C 13.527344 7.324219 13.945312 6.460938 14.992188 5.179688 C 15.566406 4.496094 16.230469 3.894531 16.964844 3.394531 Z M 16.964844 3.394531 "/>
<path style=" stroke:none;fill-rule:nonzero;fill:rgb(12.941176%,9.019608%,8.235294%);fill-opacity:1;" d="M 0.628906 50.46875 C 4.003906 49.824219 7.378906 49.175781 10.753906 48.527344 C 11.386719 48.40625 11.121094 47.4375 10.488281 47.558594 C 7.113281 48.203125 3.738281 48.851562 0.363281 49.5 C -0.273438 49.621094 -0.00390625 50.589844 0.628906 50.46875 Z M 0.628906 50.46875 "/>
<path style=" stroke:none;fill-rule:nonzero;fill:rgb(12.941176%,9.019608%,8.235294%);fill-opacity:1;" d="M 64.039062 67.636719 C 67.339844 66.808594 70.601562 65.808594 73.875 64.890625 C 74.417969 64.738281 74.960938 64.582031 75.507812 64.4375 C 76.128906 64.273438 75.867188 63.300781 75.238281 63.464844 C 71.976562 64.320312 68.742188 65.292969 65.492188 66.195312 C 64.921875 66.355469 64.347656 66.519531 63.773438 66.667969 C 63.144531 66.824219 63.410156 67.796875 64.039062 67.636719 Z M 64.039062 67.636719 "/>
<path style=" stroke:none;fill-rule:nonzero;fill:rgb(12.941176%,9.019608%,8.235294%);fill-opacity:1;" d="M 86.675781 38.011719 C 84.933594 37.519531 83.1875 37.035156 81.445312 36.554688 C 80.414062 36.269531 79.382812 35.984375 78.355469 35.699219 L 76.933594 35.308594 L 76.289062 35.128906 C 76.039062 35.054688 75.773438 35.046875 75.515625 35.109375 L 64.960938 37.125 L 52.429688 39.523438 C 48.003906 40.371094 43.574219 41.21875 39.148438 42.066406 L 26.144531 44.554688 L 24.628906 44.847656 C 23.992188 44.96875 24.261719 45.9375 24.894531 45.816406 L 35.210938 43.839844 C 38.820312 43.152344 42.425781 42.460938 46.03125 41.769531 C 49.570312 41.09375 53.109375 40.417969 56.644531 39.738281 L 66.558594 37.84375 L 75.078125 36.214844 L 76.039062 36.03125 L 75.769531 36.03125 C 79.316406 37.011719 82.863281 37.988281 86.40625 38.980469 C 87.03125 39.15625 87.296875 38.183594 86.675781 38.011719 Z M 86.675781 38.011719 "/>
<path style=" stroke:none;fill-rule:nonzero;fill:rgb(12.941176%,9.019608%,8.235294%);fill-opacity:1;" d="M 29.121094 54.035156 C 30.582031 54.78125 32.058594 55.503906 33.527344 56.230469 C 34.371094 56.648438 35.214844 57.066406 36.058594 57.488281 C 36.257812 57.605469 36.460938 57.703125 36.675781 57.785156 C 36.898438 57.808594 37.121094 57.777344 37.328125 57.695312 L 38.605469 57.394531 C 42.125 56.5625 45.648438 55.726562 49.167969 54.886719 C 51.019531 54.445312 52.867188 54.007812 54.71875 53.570312 C 54.9375 53.507812 55.085938 53.3125 55.089844 53.085938 C 55.082031 52.863281 54.933594 52.667969 54.71875 52.601562 C 51.90625 51.425781 49.089844 50.257812 46.269531 49.089844 C 44.773438 48.46875 43.277344 47.839844 41.785156 47.210938 C 41.140625 46.941406 40.5 46.667969 39.859375 46.394531 C 39.566406 46.269531 39.273438 46.144531 38.984375 46.019531 C 38.710938 45.902344 38.316406 45.644531 38.019531 45.644531 C 37.726562 45.671875 37.4375 45.722656 37.152344 45.804688 L 36.25 45.980469 C 35.683594 46.09375 35.117188 46.203125 34.550781 46.316406 C 33.457031 46.535156 32.359375 46.75 31.261719 46.96875 C 30.628906 47.09375 30.898438 48.066406 31.527344 47.941406 C 33.738281 47.5 35.945312 47.066406 38.152344 46.628906 L 37.765625 46.582031 C 42.183594 48.503906 46.640625 50.328125 51.089844 52.171875 C 52.210938 52.636719 53.332031 53.101562 54.453125 53.570312 L 54.453125 52.597656 C 49.792969 53.695312 45.136719 54.8125 40.480469 55.914062 C 39.214844 56.214844 37.945312 56.515625 36.675781 56.8125 L 37.0625 56.863281 C 34.585938 55.628906 32.09375 54.417969 29.625 53.164062 C 29.050781 52.871094 28.542969 53.742188 29.121094 54.035156 Z M 29.121094 54.035156 "/>
<path style=" stroke:none;fill-rule:nonzero;fill:rgb(12.941176%,9.019608%,8.235294%);fill-opacity:1;" d="M 59.8125 46.582031 C 56.800781 45.347656 53.714844 44.304688 50.671875 43.160156 L 50.671875 44.128906 C 54.910156 43.285156 59.144531 42.410156 63.382812 41.554688 C 64.410156 41.34375 65.4375 41.140625 66.464844 40.933594 L 66.199219 40.933594 C 68.640625 41.734375 71.09375 42.503906 73.542969 43.273438 C 76.214844 44.117188 78.890625 44.957031 81.5625 45.789062 C 82.375 46.042969 83.1875 46.296875 84 46.546875 L 84 45.574219 C 82.253906 46.023438 80.496094 46.445312 78.738281 46.851562 C 78.109375 47 78.375 47.96875 79.003906 47.824219 C 80.761719 47.417969 82.519531 46.996094 84.269531 46.546875 C 84.480469 46.480469 84.625 46.285156 84.625 46.0625 C 84.625 45.839844 84.480469 45.640625 84.269531 45.574219 C 81.023438 44.578125 77.789062 43.558594 74.550781 42.539062 C 72.542969 41.90625 70.53125 41.269531 68.523438 40.628906 C 68.128906 40.5 67.734375 40.375 67.339844 40.246094 C 67 40.136719 66.554688 39.90625 66.199219 39.964844 C 64.734375 40.203125 63.273438 40.550781 61.816406 40.84375 C 58.011719 41.617188 54.210938 42.398438 50.40625 43.160156 C 49.875 43.265625 49.984375 43.972656 50.40625 44.128906 C 53.449219 45.273438 56.535156 46.320312 59.546875 47.554688 C 59.816406 47.625 60.089844 47.46875 60.164062 47.199219 C 60.230469 46.933594 60.078125 46.660156 59.8125 46.582031 Z M 59.8125 46.582031 "/>
<path style=" stroke:none;fill-rule:nonzero;fill:rgb(12.941176%,9.019608%,8.235294%);fill-opacity:1;" d="M 51.339844 45.566406 C 49.992188 46.097656 48.636719 46.609375 47.296875 47.148438 C 47.082031 47.214844 46.9375 47.414062 46.9375 47.636719 C 46.9375 47.859375 47.082031 48.054688 47.296875 48.121094 C 50.699219 49.136719 54.074219 50.234375 57.460938 51.296875 C 58.078125 51.492188 58.34375 50.519531 57.730469 50.328125 C 54.34375 49.261719 50.964844 48.164062 47.5625 47.148438 L 47.5625 48.121094 C 48.90625 47.582031 50.257812 47.070312 51.605469 46.539062 C 51.867188 46.457031 52.023438 46.1875 51.957031 45.917969 C 51.882812 45.652344 51.605469 45.496094 51.339844 45.566406 Z M 51.339844 45.566406 "/>
<path style=" stroke:none;fill-rule:nonzero;fill:rgb(12.941176%,9.019608%,8.235294%);fill-opacity:1;" d="M 46.964844 18.351562 C 46.90625 18.816406 46.820312 19.277344 46.707031 19.730469 C 46.675781 19.960938 46.59375 20.179688 46.472656 20.375 C 46.40625 20.457031 46.332031 20.53125 46.25 20.597656 C 46.328125 20.53125 46.210938 20.625 46.1875 20.640625 C 45.515625 21.070312 44.8125 21.441406 44.078125 21.753906 C 43.84375 21.894531 43.761719 22.203125 43.898438 22.445312 C 44.042969 22.679688 44.347656 22.757812 44.585938 22.625 C 45.347656 22.304688 46.078125 21.914062 46.769531 21.457031 C 47.007812 21.289062 47.214844 21.078125 47.375 20.832031 C 47.519531 20.574219 47.621094 20.289062 47.675781 19.996094 C 47.808594 19.457031 47.90625 18.90625 47.96875 18.351562 C 47.96875 18.074219 47.746094 17.851562 47.46875 17.851562 C 47.195312 17.855469 46.972656 18.078125 46.964844 18.351562 Z M 46.964844 18.351562 "/>
<path style=" stroke:none;fill-rule:nonzero;fill:rgb(12.941176%,9.019608%,8.235294%);fill-opacity:1;" d="M 56.34375 7.191406 C 56.363281 7.207031 56.402344 7.238281 56.363281 7.203125 C 56.390625 7.226562 56.414062 7.25 56.441406 7.273438 C 56.5 7.328125 56.554688 7.390625 56.609375 7.453125 C 56.710938 7.574219 56.800781 7.703125 56.882812 7.835938 C 57.097656 8.183594 57.289062 8.546875 57.457031 8.917969 C 57.773438 9.722656 57.917969 10.585938 57.886719 11.449219 C 57.871094 12.097656 58.875 12.097656 58.890625 11.449219 C 58.921875 10.429688 58.738281 9.417969 58.351562 8.476562 C 58.011719 7.691406 57.5625 6.832031 56.851562 6.320312 C 56.613281 6.183594 56.304688 6.265625 56.164062 6.503906 C 56.03125 6.742188 56.109375 7.046875 56.34375 7.191406 Z M 56.34375 7.191406 "/>
<path style=" stroke:none;fill-rule:nonzero;fill:rgb(12.941176%,9.019608%,8.235294%);fill-opacity:1;" d="M 42.070312 11.550781 C 42.148438 12.589844 42.152344 13.632812 42.085938 14.671875 C 42.019531 15.359375 41.914062 16.039062 41.769531 16.710938 C 41.527344 18.050781 41.53125 19.550781 42.175781 20.78125 C 42.574219 21.535156 43.25 22.105469 44.0625 22.367188 C 44.679688 22.574219 44.941406 21.601562 44.332031 21.394531 C 43.109375 20.984375 42.683594 19.714844 42.636719 18.53125 C 42.582031 17.269531 42.980469 16.136719 43.078125 14.863281 C 43.160156 13.761719 43.15625 12.652344 43.074219 11.550781 C 43.023438 10.90625 42.019531 10.902344 42.070312 11.550781 Z M 42.070312 11.550781 "/>
<path style=" stroke:none;fill-rule:nonzero;fill:rgb(12.941176%,9.019608%,8.235294%);fill-opacity:1;" d="M 48.277344 18.179688 C 47.730469 17.75 47.230469 17.257812 46.796875 16.714844 L 46.726562 16.628906 C 46.71875 16.621094 46.632812 16.507812 46.699219 16.59375 C 46.652344 16.53125 46.605469 16.46875 46.558594 16.40625 C 46.515625 16.351562 46.476562 16.296875 46.441406 16.238281 C 46.292969 16.035156 46.160156 15.820312 46.039062 15.597656 C 45.894531 15.359375 45.589844 15.28125 45.351562 15.417969 C 45.117188 15.5625 45.035156 15.867188 45.171875 16.105469 C 45.425781 16.5625 45.722656 16.992188 46.058594 17.394531 C 46.5 17.949219 47.007812 18.453125 47.566406 18.890625 C 47.765625 19.082031 48.078125 19.082031 48.277344 18.890625 C 48.46875 18.691406 48.46875 18.375 48.277344 18.179688 Z M 48.277344 18.179688 "/>
<path style=" stroke:none;fill-rule:nonzero;fill:rgb(12.941176%,9.019608%,8.235294%);fill-opacity:1;" d="M 56.542969 3.664062 C 57.5 4.757812 57.996094 6.238281 58.140625 7.671875 C 58.304688 9.308594 58.058594 10.929688 57.953125 12.5625 C 57.859375 13.996094 57.84375 15.5 57.1875 16.816406 C 56.5625 18.007812 55.484375 18.890625 54.195312 19.265625 C 52.628906 19.730469 51.007812 19.378906 49.535156 18.773438 C 49.265625 18.699219 48.992188 18.855469 48.917969 19.125 C 48.851562 19.390625 49.003906 19.664062 49.269531 19.742188 C 50.769531 20.363281 52.398438 20.683594 54.007812 20.351562 C 55.484375 20.039062 56.792969 19.183594 57.679688 17.960938 C 58.605469 16.644531 58.800781 15.015625 58.902344 13.453125 C 58.960938 12.523438 59.007812 11.59375 59.105469 10.671875 C 59.203125 9.816406 59.230469 8.953125 59.179688 8.089844 C 59.054688 6.230469 58.496094 4.375 57.253906 2.953125 C 56.824219 2.464844 56.117188 3.179688 56.542969 3.664062 Z M 56.542969 3.664062 "/>
<path style=" stroke:none;fill-rule:nonzero;fill:rgb(12.941176%,9.019608%,8.235294%);fill-opacity:1;" d="M 56.046875 1.777344 C 54.84375 0.726562 53.4375 0.230469 51.859375 0.0742188 C 50.507812 -0.101562 49.132812 0.00390625 47.820312 0.386719 C 46.195312 0.929688 44.753906 1.929688 43.675781 3.265625 C 43.144531 3.890625 42.714844 4.59375 42.402344 5.347656 C 42.128906 6.078125 41.949219 6.84375 41.867188 7.617188 C 41.765625 8.433594 41.769531 9.257812 41.882812 10.070312 C 42.035156 10.941406 42.105469 11.824219 42.097656 12.707031 C 42.0625 13.355469 43.066406 13.351562 43.101562 12.707031 C 43.175781 11.300781 42.722656 9.925781 42.792969 8.519531 C 42.859375 7.140625 43.152344 5.746094 43.929688 4.585938 C 44.816406 3.25 46.070312 2.199219 47.535156 1.5625 C 48.628906 1.125 49.800781 0.941406 50.972656 1.019531 C 52.578125 1.085938 54.097656 1.40625 55.335938 2.492188 C 55.820312 2.914062 56.535156 2.207031 56.046875 1.777344 Z M 56.046875 1.777344 "/>
<path style=" stroke:none;fill-rule:nonzero;fill:rgb(12.941176%,9.019608%,8.235294%);fill-opacity:1;" d="M 44.964844 11.339844 C 44.335938 10.972656 43.542969 11.046875 42.992188 11.519531 C 42.609375 11.90625 42.421875 12.441406 42.480469 12.980469 C 42.527344 14.136719 43.183594 15.425781 44.25 15.957031 C 44.875 16.28125 45.617188 16.296875 46.257812 16.007812 C 46.496094 15.867188 46.578125 15.558594 46.4375 15.316406 C 46.296875 15.078125 45.988281 14.996094 45.75 15.136719 C 45.660156 15.175781 45.566406 15.195312 45.472656 15.203125 C 45.394531 15.203125 45.324219 15.207031 45.25 15.203125 C 45.210938 15.199219 45.175781 15.195312 45.140625 15.191406 C 45.183594 15.195312 45.175781 15.195312 45.113281 15.183594 C 44.992188 15.15625 44.871094 15.125 44.753906 15.082031 C 44.65625 15.050781 44.820312 15.132812 44.742188 15.078125 C 44.679688 15.035156 44.609375 15.003906 44.546875 14.960938 C 44.335938 14.8125 44.152344 14.628906 44.003906 14.417969 C 43.941406 14.324219 43.882812 14.230469 43.828125 14.136719 C 43.800781 14.085938 43.773438 14.035156 43.746094 13.984375 C 43.734375 13.96875 43.664062 13.816406 43.683594 13.871094 C 43.582031 13.621094 43.519531 13.359375 43.492188 13.09375 C 43.476562 12.941406 43.476562 12.789062 43.492188 12.636719 C 43.484375 12.710938 43.515625 12.53125 43.523438 12.511719 C 43.53125 12.480469 43.539062 12.449219 43.550781 12.417969 C 43.523438 12.476562 43.519531 12.488281 43.539062 12.445312 C 43.558594 12.410156 43.574219 12.375 43.59375 12.339844 C 43.613281 12.308594 43.679688 12.257812 43.601562 12.332031 C 43.617188 12.316406 43.738281 12.203125 43.652344 12.269531 C 43.703125 12.230469 43.757812 12.195312 43.816406 12.171875 C 43.777344 12.183594 43.789062 12.183594 43.851562 12.160156 C 43.890625 12.148438 43.929688 12.136719 43.96875 12.125 C 44.039062 12.113281 44.054688 12.109375 44.011719 12.113281 C 44.050781 12.113281 44.085938 12.109375 44.125 12.109375 C 44.246094 12.105469 44.359375 12.140625 44.457031 12.207031 C 45.011719 12.546875 45.515625 11.675781 44.964844 11.339844 Z M 44.964844 11.339844 "/>
<path style=" stroke:none;fill-rule:nonzero;fill:rgb(12.941176%,9.019608%,8.235294%);fill-opacity:1;" d="M 14.589844 36.976562 C 14.253906 38.304688 13.996094 39.648438 13.808594 41.007812 C 13.691406 41.539062 13.699219 42.097656 13.835938 42.628906 C 13.988281 43.0625 14.253906 43.445312 14.605469 43.738281 C 15.34375 44.363281 16.289062 44.757812 17.1875 45.085938 C 18.066406 45.378906 18.964844 45.605469 19.875 45.765625 C 20.503906 45.898438 20.773438 44.925781 20.140625 44.796875 C 18.570312 44.472656 16.996094 44.121094 15.617188 43.242188 C 15.300781 43.0625 15.039062 42.800781 14.859375 42.484375 C 14.664062 42.097656 14.722656 41.640625 14.78125 41.226562 C 14.875 40.609375 14.992188 39.992188 15.105469 39.378906 C 15.242188 38.664062 15.371094 37.945312 15.558594 37.246094 C 15.722656 36.617188 14.753906 36.351562 14.589844 36.976562 Z M 14.589844 36.976562 "/>
<path style=" stroke:none;fill-rule:nonzero;fill:rgb(12.941176%,9.019608%,8.235294%);fill-opacity:1;" d="M 16.4375 23.578125 C 14.421875 24.453125 12.40625 25.410156 10.832031 26.988281 C 10.011719 27.808594 9.324219 28.753906 8.796875 29.789062 C 8.292969 30.855469 7.886719 31.96875 7.597656 33.109375 C 7.273438 34.261719 7.003906 35.425781 6.699219 36.585938 C 6.3125 38 6.144531 39.464844 6.203125 40.933594 C 6.332031 43.523438 7.363281 46.15625 9.429688 47.800781 C 11.449219 49.410156 14.0625 50.433594 16.597656 50.839844 C 16.867188 50.90625 17.136719 50.75 17.214844 50.488281 C 17.289062 50.21875 17.132812 49.941406 16.863281 49.867188 C 14.675781 49.527344 12.582031 48.722656 10.722656 47.507812 C 8.738281 46.183594 7.554688 44.042969 7.269531 41.679688 C 6.957031 39.101562 7.707031 36.617188 8.355469 34.152344 C 8.625 33.035156 8.972656 31.9375 9.398438 30.871094 C 9.820312 29.886719 10.394531 28.976562 11.101562 28.171875 C 12.664062 26.390625 14.804688 25.375 16.941406 24.449219 C 17.179688 24.304688 17.261719 24 17.121094 23.757812 C 16.976562 23.523438 16.675781 23.445312 16.4375 23.578125 Z M 16.4375 23.578125 "/>
<path style=" stroke:none;fill-rule:nonzero;fill:rgb(12.941176%,9.019608%,8.235294%);fill-opacity:1;" d="M 29.144531 24.585938 C 30.207031 24.9375 31.199219 25.472656 32.078125 26.167969 C 32.863281 26.824219 33.496094 27.644531 33.929688 28.570312 C 34.417969 29.664062 34.734375 30.828125 34.878906 32.015625 C 35.109375 33.691406 35.25 35.378906 35.289062 37.074219 C 35.355469 39.046875 35.339844 41.023438 35.324219 43 C 35.320312 43.648438 36.324219 43.648438 36.328125 43 C 36.355469 39.363281 36.394531 35.703125 35.894531 32.09375 C 35.5625 29.691406 34.84375 27.277344 32.980469 25.617188 C 31.929688 24.726562 30.71875 24.046875 29.410156 23.613281 C 28.800781 23.394531 28.539062 24.367188 29.144531 24.585938 Z M 29.144531 24.585938 "/>
<path style=" stroke:none;fill-rule:nonzero;fill:rgb(12.941176%,9.019608%,8.235294%);fill-opacity:1;" d="M 30.335938 31.632812 C 30.023438 35.289062 29.902344 38.960938 29.964844 42.628906 C 29.976562 43.277344 30.980469 43.277344 30.96875 42.628906 C 30.90625 38.960938 31.027344 35.289062 31.339844 31.632812 C 31.394531 30.988281 30.390625 30.988281 30.335938 31.632812 Z M 30.335938 31.632812 "/>
<path style=" stroke:none;fill-rule:nonzero;fill:rgb(12.941176%,9.019608%,8.235294%);fill-opacity:1;" d="M 16.476562 24.222656 C 17.976562 25.425781 19.777344 26.1875 21.679688 26.429688 C 23.296875 26.648438 25.085938 26.558594 26.511719 25.679688 C 27.265625 25.191406 27.902344 24.542969 28.375 23.777344 C 28.726562 23.230469 27.859375 22.726562 27.507812 23.269531 C 27.066406 23.988281 26.441406 24.578125 25.699219 24.980469 C 24.902344 25.359375 24.027344 25.542969 23.144531 25.519531 C 20.988281 25.550781 18.886719 24.84375 17.1875 23.511719 C 16.988281 23.324219 16.675781 23.324219 16.476562 23.511719 C 16.285156 23.707031 16.285156 24.027344 16.476562 24.222656 Z M 16.476562 24.222656 "/>
<path style=" stroke:none;fill-rule:nonzero;fill:rgb(12.941176%,9.019608%,8.235294%);fill-opacity:1;" d="M 17.035156 24.523438 C 17.644531 24.226562 18.359375 23.835938 18.679688 23.207031 C 18.839844 22.839844 18.957031 22.457031 19.023438 22.058594 C 19.105469 21.710938 19.164062 21.359375 19.214844 21.003906 C 19.277344 20.734375 19.125 20.464844 18.863281 20.382812 C 18.59375 20.3125 18.320312 20.46875 18.242188 20.734375 C 18.199219 21.058594 18.148438 21.378906 18.078125 21.699219 C 18.039062 21.867188 18 22.03125 17.957031 22.199219 C 17.929688 22.289062 17.90625 22.382812 17.878906 22.476562 C 17.867188 22.523438 17.851562 22.574219 17.835938 22.621094 C 17.832031 22.640625 17.792969 22.75 17.832031 22.65625 C 17.734375 22.875 17.570312 23.054688 17.367188 23.171875 C 17.101562 23.355469 16.820312 23.515625 16.527344 23.652344 C 16.289062 23.796875 16.210938 24.101562 16.347656 24.34375 C 16.492188 24.578125 16.792969 24.65625 17.035156 24.523438 Z M 17.035156 24.523438 "/>
<path style=" stroke:none;fill-rule:nonzero;fill:rgb(12.941176%,9.019608%,8.235294%);fill-opacity:1;" d="M 25.992188 22.347656 C 26.007812 22.488281 26.035156 22.632812 26.078125 22.769531 C 26.117188 22.882812 26.164062 22.992188 26.21875 23.097656 C 26.308594 23.269531 26.429688 23.425781 26.578125 23.554688 C 26.90625 23.835938 27.292969 24.042969 27.707031 24.160156 C 27.972656 24.230469 28.25 24.074219 28.324219 23.808594 C 28.390625 23.539062 28.234375 23.269531 27.972656 23.1875 C 27.851562 23.148438 27.734375 23.105469 27.617188 23.058594 L 27.738281 23.109375 C 27.578125 23.042969 27.429688 22.957031 27.292969 22.855469 L 27.394531 22.933594 C 27.28125 22.847656 27.179688 22.746094 27.09375 22.636719 L 27.171875 22.738281 C 27.117188 22.660156 27.074219 22.582031 27.039062 22.496094 L 27.089844 22.613281 C 27.035156 22.492188 27 22.367188 26.980469 22.234375 L 26.996094 22.367188 L 26.992188 22.34375 C 26.988281 22.214844 26.9375 22.085938 26.847656 21.988281 C 26.652344 21.792969 26.332031 21.792969 26.136719 21.988281 C 26.039062 22.082031 25.988281 22.210938 25.988281 22.34375 Z M 25.992188 22.347656 "/>
<path style=" stroke:none;fill-rule:nonzero;fill:rgb(12.941176%,9.019608%,8.235294%);fill-opacity:1;" d="M 19.539062 20.796875 C 19.496094 20.765625 19.453125 20.734375 19.414062 20.703125 C 19.472656 20.75 19.351562 20.652344 19.351562 20.652344 C 19.28125 20.597656 19.210938 20.539062 19.140625 20.476562 C 19 20.359375 18.863281 20.234375 18.726562 20.105469 C 18.472656 19.859375 18.230469 19.597656 18.003906 19.328125 C 17.898438 19.199219 17.792969 19.074219 17.691406 18.941406 C 17.742188 19.003906 17.703125 18.953125 17.691406 18.941406 C 17.667969 18.90625 17.640625 18.871094 17.617188 18.835938 C 17.460938 18.625 17.316406 18.40625 17.183594 18.179688 C 17.097656 18.011719 16.929688 17.90625 16.742188 17.902344 C 16.554688 17.898438 16.378906 18 16.289062 18.167969 C 16.203125 18.332031 16.210938 18.53125 16.316406 18.6875 C 16.601562 19.167969 16.929688 19.621094 17.296875 20.039062 C 17.808594 20.648438 18.394531 21.191406 19.03125 21.667969 C 19.269531 21.804688 19.578125 21.726562 19.71875 21.484375 C 19.851562 21.246094 19.769531 20.941406 19.539062 20.796875 Z M 19.539062 20.796875 "/>
<path style=" stroke:none;fill-rule:nonzero;fill:rgb(12.941176%,9.019608%,8.235294%);fill-opacity:1;" d="M 28.195312 5.273438 C 29.101562 6.257812 29.582031 7.53125 29.832031 8.828125 C 30.085938 10.199219 30.113281 11.601562 29.90625 12.976562 C 29.84375 13.246094 29.996094 13.515625 30.257812 13.597656 C 30.527344 13.667969 30.800781 13.511719 30.875 13.246094 C 31.3125 10.320312 30.988281 6.828125 28.90625 4.5625 C 28.46875 4.082031 27.757812 4.796875 28.195312 5.273438 Z M 28.195312 5.273438 "/>
<path style=" stroke:none;fill-rule:nonzero;fill:rgb(12.941176%,9.019608%,8.235294%);fill-opacity:1;" d="M 14.335938 14.699219 C 14.015625 14.042969 13.808594 13.34375 13.714844 12.621094 C 13.59375 11.996094 13.535156 11.363281 13.539062 10.726562 C 13.578125 9.234375 13.851562 7.71875 14.671875 6.449219 C 15.585938 5.019531 16.878906 3.878906 18.410156 3.15625 C 19.542969 2.660156 20.773438 2.425781 22.011719 2.476562 C 23.792969 2.511719 25.53125 2.886719 26.925781 4.054688 C 27.421875 4.46875 28.132812 3.757812 27.636719 3.34375 C 26.265625 2.199219 24.648438 1.652344 22.882812 1.511719 C 21.425781 1.355469 19.953125 1.527344 18.566406 2.007812 C 16.835938 2.6875 15.328125 3.84375 14.226562 5.34375 C 13.183594 6.726562 12.71875 8.300781 12.578125 10.011719 C 12.515625 10.859375 12.554688 11.714844 12.691406 12.550781 C 12.832031 13.457031 13.019531 14.398438 13.472656 15.207031 C 13.785156 15.769531 14.65625 15.265625 14.339844 14.699219 Z M 14.335938 14.699219 "/>
<path style=" stroke:none;fill-rule:nonzero;fill:rgb(12.941176%,9.019608%,8.235294%);fill-opacity:1;" d="M 20.746094 22.449219 C 22.851562 23.261719 25.234375 23.507812 27.296875 22.417969 C 28.265625 21.917969 29.089844 21.175781 29.691406 20.265625 C 30.261719 19.296875 30.609375 18.214844 30.710938 17.097656 C 30.890625 15.648438 30.851562 14.175781 30.953125 12.71875 C 30.996094 12.074219 29.992188 12.074219 29.949219 12.71875 C 29.863281 13.9375 29.847656 15.160156 29.773438 16.378906 C 29.738281 17.375 29.507812 18.359375 29.097656 19.269531 C 28.246094 20.988281 26.382812 22.070312 24.496094 22.148438 C 23.300781 22.167969 22.113281 21.941406 21.011719 21.480469 C 20.742188 21.40625 20.46875 21.5625 20.394531 21.832031 C 20.328125 22.097656 20.480469 22.371094 20.746094 22.449219 Z M 20.746094 22.449219 "/>
<path style=" stroke:none;fill-rule:nonzero;fill:rgb(12.941176%,9.019608%,8.235294%);fill-opacity:1;" d="M 15.949219 13.679688 C 15.285156 13.308594 14.460938 13.398438 13.890625 13.902344 C 13.503906 14.304688 13.320312 14.863281 13.382812 15.417969 C 13.453125 16.640625 14.164062 17.988281 15.304688 18.535156 C 15.96875 18.871094 16.75 18.878906 17.421875 18.558594 C 17.992188 18.25 17.484375 17.382812 16.914062 17.691406 C 16.816406 17.738281 16.714844 17.765625 16.605469 17.78125 C 16.527344 17.785156 16.449219 17.785156 16.367188 17.78125 C 16.328125 17.78125 16.289062 17.777344 16.25 17.773438 C 16.1875 17.765625 16.175781 17.765625 16.214844 17.769531 C 16.085938 17.746094 15.957031 17.714844 15.828125 17.671875 C 15.804688 17.664062 15.78125 17.652344 15.753906 17.644531 C 15.820312 17.671875 15.828125 17.675781 15.78125 17.652344 C 15.722656 17.613281 15.660156 17.578125 15.597656 17.546875 C 15.15625 17.25 14.8125 16.832031 14.609375 16.339844 C 14.503906 16.082031 14.433594 15.8125 14.398438 15.539062 C 14.378906 15.378906 14.378906 15.222656 14.390625 15.066406 C 14.394531 15.019531 14.402344 14.972656 14.417969 14.929688 C 14.421875 14.910156 14.484375 14.71875 14.449219 14.820312 C 14.414062 14.910156 14.464844 14.789062 14.472656 14.769531 C 14.488281 14.746094 14.578125 14.628906 14.496094 14.71875 C 14.535156 14.675781 14.574219 14.636719 14.617188 14.601562 C 14.550781 14.65625 14.707031 14.550781 14.726562 14.539062 C 14.953125 14.421875 15.222656 14.425781 15.445312 14.550781 C 16.003906 14.875 16.511719 14.007812 15.949219 13.683594 Z M 15.949219 13.679688 "/>
<path style=" stroke:none;fill-rule:nonzero;fill:rgb(12.941176%,9.019608%,8.235294%);fill-opacity:1;" d="M 30.855469 12.515625 C 30.777344 11.707031 30.484375 10.9375 30.007812 10.28125 C 29.628906 9.683594 29.082031 9.210938 28.4375 8.921875 C 28.171875 8.847656 27.894531 9.007812 27.820312 9.273438 C 27.757812 9.542969 27.910156 9.8125 28.171875 9.894531 C 28.269531 9.929688 28.066406 9.835938 28.164062 9.890625 C 28.183594 9.902344 28.210938 9.914062 28.230469 9.925781 C 28.28125 9.953125 28.328125 9.980469 28.375 10.011719 C 28.402344 10.027344 28.425781 10.046875 28.449219 10.0625 C 28.46875 10.074219 28.558594 10.15625 28.464844 10.074219 C 28.515625 10.117188 28.566406 10.15625 28.613281 10.199219 C 28.722656 10.300781 28.828125 10.40625 28.921875 10.519531 C 28.972656 10.574219 29.019531 10.632812 29.066406 10.691406 C 29.101562 10.730469 29.03125 10.640625 29.085938 10.714844 C 29.113281 10.753906 29.140625 10.789062 29.167969 10.828125 C 29.257812 10.957031 29.34375 11.09375 29.417969 11.230469 C 29.460938 11.308594 29.503906 11.386719 29.542969 11.464844 C 29.558594 11.503906 29.574219 11.539062 29.59375 11.574219 C 29.59375 11.574219 29.644531 11.695312 29.625 11.648438 C 29.609375 11.601562 29.652344 11.714844 29.652344 11.722656 C 29.671875 11.769531 29.6875 11.816406 29.703125 11.859375 C 29.726562 11.9375 29.75 12.015625 29.769531 12.089844 C 29.789062 12.167969 29.808594 12.246094 29.824219 12.324219 C 29.824219 12.332031 29.851562 12.484375 29.835938 12.375 C 29.839844 12.421875 29.84375 12.46875 29.847656 12.515625 C 29.847656 12.792969 30.074219 13.019531 30.351562 13.019531 C 30.628906 13.019531 30.851562 12.792969 30.851562 12.515625 Z M 30.855469 12.515625 "/>
<path style=" stroke:none;fill-rule:nonzero;fill:rgb(12.941176%,9.019608%,8.235294%);fill-opacity:1;" d="M 19.246094 50.46875 C 19.160156 49.886719 19.203125 49.289062 19.371094 48.722656 C 19.46875 48.222656 19.636719 47.738281 19.871094 47.285156 C 20.332031 46.492188 21.21875 46.207031 22.0625 46.097656 C 22.851562 45.992188 23.644531 45.917969 24.441406 45.871094 C 25.152344 45.792969 25.875 45.902344 26.535156 46.1875 C 27.445312 46.613281 28.582031 47.554688 28.546875 48.664062 C 28.527344 49.3125 29.53125 49.3125 29.550781 48.664062 C 29.589844 47.410156 28.609375 46.300781 27.625 45.648438 C 26.792969 45.09375 25.8125 44.8125 24.816406 44.84375 C 23.910156 44.878906 22.996094 44.96875 22.097656 45.085938 C 21.011719 45.226562 19.949219 45.527344 19.242188 46.429688 C 18.847656 46.988281 18.578125 47.617188 18.445312 48.285156 C 18.203125 49.078125 18.144531 49.917969 18.277344 50.738281 C 18.40625 51.375 19.375 51.105469 19.246094 50.472656 Z M 19.246094 50.46875 "/>
<path style=" stroke:none;fill-rule:nonzero;fill:rgb(12.941176%,9.019608%,8.235294%);fill-opacity:1;" d="M 25.25 48.097656 C 25.554688 48.144531 25.851562 48.21875 26.144531 48.320312 C 26.203125 48.339844 26.261719 48.363281 26.320312 48.386719 C 26.371094 48.40625 26.394531 48.417969 26.328125 48.390625 C 26.359375 48.402344 26.390625 48.417969 26.417969 48.429688 C 26.53125 48.484375 26.640625 48.539062 26.75 48.605469 C 26.84375 48.660156 26.933594 48.71875 27.019531 48.78125 C 27.035156 48.792969 27.113281 48.835938 27.046875 48.800781 C 26.976562 48.765625 27.050781 48.804688 27.066406 48.820312 C 27.105469 48.851562 27.144531 48.882812 27.179688 48.917969 C 27.265625 49 27.347656 49.089844 27.425781 49.179688 C 27.441406 49.203125 27.460938 49.226562 27.480469 49.25 C 27.570312 49.359375 27.449219 49.207031 27.5 49.273438 C 27.546875 49.339844 27.589844 49.394531 27.632812 49.460938 C 27.773438 49.699219 28.078125 49.78125 28.320312 49.640625 C 28.558594 49.5 28.640625 49.191406 28.5 48.953125 C 28.1875 48.46875 27.773438 48.058594 27.285156 47.753906 C 26.742188 47.433594 26.140625 47.222656 25.515625 47.125 C 25.25 47.058594 24.980469 47.214844 24.898438 47.476562 C 24.828125 47.746094 24.984375 48.019531 25.25 48.097656 Z M 25.25 48.097656 "/>
<path style=" stroke:none;fill-rule:nonzero;fill:rgb(12.941176%,9.019608%,8.235294%);fill-opacity:1;" d="M 25.3125 49.988281 C 25.347656 49.988281 25.382812 49.992188 25.421875 49.996094 L 25.285156 49.980469 C 25.441406 50.003906 25.589844 50.046875 25.734375 50.105469 C 25.789062 50.125 25.609375 50.046875 25.699219 50.085938 L 25.746094 50.109375 C 25.785156 50.128906 25.824219 50.148438 25.863281 50.167969 C 25.941406 50.207031 26.015625 50.253906 26.089844 50.300781 C 26.125 50.324219 26.15625 50.347656 26.1875 50.371094 C 26.207031 50.382812 26.226562 50.394531 26.242188 50.410156 C 26.21875 50.386719 26.152344 50.335938 26.214844 50.386719 C 26.277344 50.4375 26.339844 50.496094 26.402344 50.554688 C 26.429688 50.585938 26.460938 50.617188 26.492188 50.648438 C 26.5 50.660156 26.558594 50.746094 26.574219 50.746094 C 26.566406 50.746094 26.5 50.644531 26.539062 50.703125 C 26.550781 50.722656 26.566406 50.738281 26.574219 50.753906 C 26.601562 50.792969 26.625 50.832031 26.648438 50.871094 C 26.785156 51.109375 27.09375 51.191406 27.332031 51.050781 C 27.574219 50.910156 27.652344 50.601562 27.515625 50.359375 C 27.273438 49.96875 26.945312 49.640625 26.550781 49.402344 C 26.179688 49.160156 25.753906 49.015625 25.3125 48.980469 C 25.035156 48.980469 24.8125 49.203125 24.808594 49.480469 C 24.816406 49.757812 25.035156 49.980469 25.3125 49.984375 Z M 25.3125 49.988281 "/>
<path style=" stroke:none;fill-rule:nonzero;fill:rgb(12.941176%,9.019608%,8.235294%);fill-opacity:1;" d="M 24.621094 51.644531 C 24.734375 51.664062 24.84375 51.695312 24.945312 51.742188 L 24.828125 51.691406 C 24.957031 51.746094 25.078125 51.820312 25.1875 51.902344 L 25.085938 51.824219 C 25.195312 51.90625 25.289062 52.003906 25.375 52.109375 L 25.296875 52.007812 C 25.363281 52.101562 25.421875 52.199219 25.46875 52.304688 C 25.535156 52.417969 25.644531 52.5 25.769531 52.535156 C 25.902344 52.570312 26.039062 52.550781 26.15625 52.484375 C 26.269531 52.417969 26.351562 52.308594 26.386719 52.183594 L 26.40625 52.050781 C 26.40625 51.960938 26.382812 51.871094 26.335938 51.796875 C 26.183594 51.472656 25.945312 51.195312 25.648438 50.996094 C 25.511719 50.90625 25.367188 50.828125 25.214844 50.769531 C 25.113281 50.726562 25.003906 50.695312 24.890625 50.675781 C 24.761719 50.644531 24.625 50.660156 24.503906 50.726562 C 24.265625 50.867188 24.183594 51.175781 24.324219 51.414062 C 24.390625 51.527344 24.496094 51.613281 24.625 51.644531 Z M 24.621094 51.644531 "/>
<path style=" stroke:none;fill-rule:nonzero;fill:rgb(12.941176%,9.019608%,8.235294%);fill-opacity:1;" d="M 19.304688 51.542969 C 19.882812 52.679688 21.492188 52.949219 22.640625 52.945312 C 22.949219 52.929688 23.257812 52.9375 23.5625 52.972656 C 23.855469 53.019531 24.054688 53.238281 24.289062 53.398438 C 24.847656 53.792969 25.753906 53.789062 26.097656 53.109375 C 26.390625 52.53125 25.523438 52.023438 25.230469 52.601562 C 25.203125 52.648438 25.171875 52.660156 25.21875 52.640625 C 25.191406 52.660156 25.15625 52.667969 25.121094 52.664062 C 25.03125 52.65625 24.941406 52.625 24.863281 52.578125 C 24.660156 52.449219 24.488281 52.273438 24.277344 52.160156 C 23.789062 51.886719 23.175781 51.9375 22.640625 51.9375 C 22.148438 51.9375 21.664062 51.867188 21.195312 51.730469 C 20.777344 51.609375 20.378906 51.4375 20.171875 51.03125 C 19.878906 50.453125 19.011719 50.960938 19.304688 51.539062 Z M 19.304688 51.542969 "/>
<path style=" stroke:none;fill-rule:nonzero;fill:rgb(12.941176%,9.019608%,8.235294%);fill-opacity:1;" d="M 26.097656 8.621094 C 25.296875 8.910156 24.515625 9.242188 23.75 9.617188 C 23.390625 9.785156 23.03125 9.957031 22.671875 10.128906 C 22.574219 10.175781 22.316406 10.242188 22.25 10.328125 L 22.21875 10.339844 C 22.332031 10.308594 22.398438 10.34375 22.417969 10.449219 L 22.464844 10.539062 L 22.484375 10.402344 C 22.492188 10.300781 22.492188 10.195312 22.484375 10.09375 C 22.441406 9.65625 22.226562 9.210938 21.742188 9.15625 C 21.328125 9.105469 20.847656 9.4375 20.503906 9.640625 C 19.683594 10.136719 18.910156 10.699219 18.1875 11.332031 C 17.792969 11.664062 17.347656 11.988281 17.148438 12.480469 C 16.980469 12.9375 16.863281 13.410156 16.789062 13.890625 C 16.667969 14.523438 17.636719 14.796875 17.757812 14.160156 C 17.804688 13.890625 17.863281 13.625 17.929688 13.363281 C 17.964844 13.132812 18.039062 12.910156 18.15625 12.707031 C 18.332031 12.515625 18.523438 12.339844 18.734375 12.183594 C 18.957031 11.992188 19.179688 11.804688 19.410156 11.621094 C 19.859375 11.257812 20.335938 10.921875 20.828125 10.617188 C 21.0625 10.476562 21.300781 10.339844 21.546875 10.222656 C 21.605469 10.195312 21.664062 10.167969 21.722656 10.140625 C 21.632812 10.160156 21.539062 10.132812 21.46875 10.070312 C 21.46875 10.15625 21.476562 10.246094 21.488281 10.335938 C 21.4375 10.585938 21.503906 10.847656 21.664062 11.050781 C 21.832031 11.242188 22.078125 11.347656 22.332031 11.332031 C 22.753906 11.304688 23.238281 10.96875 23.613281 10.789062 C 24.507812 10.339844 25.425781 9.9375 26.363281 9.59375 C 26.972656 9.382812 26.710938 8.410156 26.097656 8.621094 Z M 26.097656 8.621094 "/>
<path style=" stroke:none;fill-rule:nonzero;fill:rgb(12.941176%,9.019608%,8.235294%);fill-opacity:1;" d="M 50.722656 7.558594 C 50 8.359375 49.171875 9.0625 48.269531 9.652344 C 47.792969 9.976562 47.308594 10.28125 46.820312 10.589844 C 46.425781 10.839844 46.113281 11.199219 45.925781 11.628906 C 45.796875 11.871094 45.875 12.171875 46.109375 12.316406 C 46.347656 12.457031 46.652344 12.375 46.792969 12.136719 C 46.871094 11.945312 46.984375 11.769531 47.128906 11.621094 C 47.164062 11.585938 47.203125 11.550781 47.238281 11.515625 C 47.285156 11.476562 47.269531 11.5 47.230469 11.523438 C 47.335938 11.457031 47.441406 11.390625 47.546875 11.324219 C 48.03125 11.019531 48.511719 10.710938 48.976562 10.382812 C 49.878906 9.785156 50.703125 9.074219 51.433594 8.273438 C 51.621094 8.074219 51.621094 7.757812 51.433594 7.558594 C 51.234375 7.367188 50.921875 7.367188 50.722656 7.558594 Z M 50.722656 7.558594 "/>
<path style=" stroke:none;fill-rule:nonzero;fill:rgb(12.941176%,9.019608%,8.235294%);fill-opacity:1;" d="M 56.171875 6.402344 C 55.257812 7.296875 54.1875 8.011719 53.011719 8.511719 C 52.5 8.746094 51.96875 8.933594 51.425781 9.070312 C 51.238281 9.117188 51.050781 9.140625 50.863281 9.140625 C 50.792969 9.144531 50.722656 9.140625 50.652344 9.125 C 50.609375 9.113281 50.542969 9.066406 50.5625 9.097656 C 50.210938 8.558594 49.339844 9.0625 49.695312 9.605469 C 50.386719 10.65625 52.066406 9.972656 52.960938 9.617188 C 54.425781 9.0625 55.761719 8.210938 56.882812 7.113281 C 57.335938 6.652344 56.628906 5.941406 56.171875 6.402344 Z M 56.171875 6.402344 "/>
<path style=" stroke:none;fill-rule:nonzero;fill:rgb(12.941176%,9.019608%,8.235294%);fill-opacity:1;" d="M 44.382812 32.328125 C 44.382812 33.628906 44.402344 34.925781 44.4375 36.226562 C 44.445312 37.707031 44.53125 39.183594 44.699219 40.65625 C 44.773438 40.925781 45.046875 41.082031 45.316406 41.007812 C 45.578125 40.929688 45.734375 40.65625 45.667969 40.390625 C 45.683594 40.507812 45.660156 40.304688 45.65625 40.285156 C 45.648438 40.214844 45.640625 40.144531 45.632812 40.074219 C 45.617188 39.917969 45.605469 39.757812 45.59375 39.601562 C 45.566406 39.253906 45.546875 38.910156 45.527344 38.5625 C 45.488281 37.757812 45.460938 36.953125 45.441406 36.144531 C 45.40625 34.875 45.386719 33.601562 45.386719 32.328125 C 45.386719 31.679688 44.382812 31.679688 44.382812 32.328125 Z M 44.382812 32.328125 "/>
<path style=" stroke:none;fill-rule:nonzero;fill:rgb(12.941176%,9.019608%,8.235294%);fill-opacity:1;" d="M 58.804688 28.300781 C 58.933594 30.019531 59.222656 31.734375 59.101562 33.460938 C 59.035156 34.390625 58.890625 35.3125 58.667969 36.21875 C 58.542969 36.652344 58.453125 37.09375 58.398438 37.542969 C 58.375 37.957031 58.382812 38.378906 58.425781 38.792969 C 58.46875 39.433594 59.476562 39.441406 59.429688 38.792969 C 59.390625 38.394531 59.378906 37.992188 59.398438 37.589844 C 59.460938 37.140625 59.558594 36.695312 59.6875 36.261719 C 59.902344 35.339844 60.042969 34.402344 60.109375 33.460938 C 60.226562 31.734375 59.9375 30.019531 59.808594 28.300781 C 59.761719 27.65625 58.757812 27.652344 58.804688 28.300781 Z M 58.804688 28.300781 "/>
<path style=" stroke:none;fill-rule:nonzero;fill:rgb(12.941176%,9.019608%,8.235294%);fill-opacity:1;" d="M 57.453125 17.273438 C 57.535156 17.785156 57.558594 18.308594 57.527344 18.828125 C 57.535156 18.722656 57.519531 18.859375 57.515625 18.882812 C 57.503906 18.945312 57.492188 19.003906 57.476562 19.066406 C 57.449219 19.175781 57.417969 19.28125 57.378906 19.382812 C 57.410156 19.292969 57.355469 19.429688 57.351562 19.4375 C 57.324219 19.492188 57.292969 19.546875 57.261719 19.601562 C 57.234375 19.640625 57.210938 19.679688 57.183594 19.71875 C 57.238281 19.640625 57.125 19.785156 57.113281 19.796875 C 56.914062 19.992188 56.914062 20.3125 57.113281 20.507812 C 57.308594 20.707031 57.625 20.707031 57.820312 20.507812 C 58.1875 20.105469 58.425781 19.597656 58.5 19.054688 C 58.566406 18.460938 58.554688 17.859375 58.457031 17.273438 C 58.449219 16.996094 58.230469 16.773438 57.953125 16.769531 C 57.710938 16.777344 57.417969 16.992188 57.453125 17.273438 Z M 57.453125 17.273438 "/>
<path style=" stroke:none;fill-rule:nonzero;fill:rgb(12.941176%,9.019608%,8.235294%);fill-opacity:1;" d="M 53.882812 16.175781 C 53.855469 16.195312 53.824219 16.207031 53.792969 16.222656 C 53.734375 16.253906 53.828125 16.207031 53.84375 16.203125 C 53.820312 16.210938 53.800781 16.222656 53.777344 16.230469 C 53.707031 16.253906 53.632812 16.273438 53.558594 16.292969 C 53.515625 16.300781 53.472656 16.3125 53.429688 16.320312 C 53.410156 16.320312 53.386719 16.324219 53.367188 16.328125 C 53.386719 16.324219 53.480469 16.316406 53.414062 16.320312 C 53.328125 16.328125 53.242188 16.335938 53.15625 16.335938 C 53.074219 16.335938 52.996094 16.332031 52.917969 16.324219 C 52.804688 16.3125 53.019531 16.34375 52.910156 16.324219 C 52.871094 16.316406 52.832031 16.308594 52.792969 16.296875 C 52.757812 16.289062 52.722656 16.277344 52.6875 16.265625 C 52.667969 16.257812 52.648438 16.246094 52.628906 16.242188 C 52.65625 16.246094 52.714844 16.277344 52.652344 16.25 C 52.527344 16.191406 52.402344 16.136719 52.273438 16.082031 C 52.144531 16.046875 52.003906 16.066406 51.886719 16.132812 C 51.648438 16.273438 51.566406 16.582031 51.707031 16.824219 C 51.78125 16.929688 51.886719 17.011719 52.007812 17.054688 C 51.953125 17.03125 51.941406 17.027344 52.003906 17.054688 L 52.066406 17.085938 C 52.113281 17.105469 52.160156 17.128906 52.210938 17.148438 C 52.320312 17.199219 52.433594 17.242188 52.550781 17.273438 C 52.757812 17.324219 52.972656 17.347656 53.183594 17.34375 C 53.605469 17.34375 54.019531 17.242188 54.390625 17.046875 C 54.628906 16.90625 54.710938 16.597656 54.570312 16.359375 C 54.429688 16.117188 54.121094 16.039062 53.882812 16.175781 Z M 53.882812 16.175781 "/>
<path style=" stroke:none;fill-rule:nonzero;fill:rgb(12.941176%,9.019608%,8.235294%);fill-opacity:1;" d="M 49.820312 12.191406 C 49.738281 12.554688 49.859375 13.367188 50.535156 13.394531 C 51.421875 13.328125 51.40625 12.335938 51.078125 11.894531 C 50.808594 11.527344 50.078125 11.417969 49.820312 12.191406 Z M 49.820312 12.191406 "/>
<path style=" stroke:none;fill-rule:nonzero;fill:rgb(12.941176%,9.019608%,8.235294%);fill-opacity:1;" d="M 55.148438 11.679688 C 55.070312 12.039062 55.1875 12.84375 55.8125 12.871094 C 56.628906 12.808594 56.609375 11.828125 56.304688 11.382812 C 56.054688 11.027344 55.382812 10.914062 55.148438 11.679688 Z M 55.148438 11.679688 "/>
<path style=" stroke:none;fill-rule:nonzero;fill:rgb(12.941176%,9.019608%,8.235294%);fill-opacity:1;" d="M 53.210938 13.964844 C 53.277344 14.066406 53.339844 14.167969 53.402344 14.273438 C 53.472656 14.382812 53.535156 14.496094 53.59375 14.613281 L 53.542969 14.496094 C 53.554688 14.519531 53.5625 14.550781 53.566406 14.578125 L 53.546875 14.445312 C 53.550781 14.457031 53.550781 14.472656 53.546875 14.484375 L 53.566406 14.351562 C 53.566406 14.359375 53.5625 14.367188 53.558594 14.375 L 53.609375 14.257812 C 53.609375 14.265625 53.605469 14.273438 53.597656 14.28125 L 53.675781 14.179688 C 53.65625 14.203125 53.632812 14.226562 53.605469 14.25 L 53.707031 14.167969 C 53.6875 14.1875 53.660156 14.199219 53.636719 14.210938 L 53.757812 14.160156 C 53.722656 14.171875 53.6875 14.183594 53.652344 14.1875 L 53.785156 14.167969 C 53.71875 14.175781 53.652344 14.183594 53.589844 14.195312 C 53.460938 14.230469 53.355469 14.3125 53.289062 14.425781 C 53.148438 14.667969 53.230469 14.976562 53.46875 15.117188 L 53.589844 15.167969 C 53.675781 15.191406 53.765625 15.191406 53.855469 15.167969 C 53.863281 15.164062 53.871094 15.164062 53.882812 15.160156 L 53.746094 15.179688 C 53.835938 15.175781 53.925781 15.160156 54.011719 15.136719 C 54.144531 15.089844 54.265625 15.015625 54.367188 14.914062 C 54.445312 14.839844 54.5 14.742188 54.53125 14.636719 C 54.558594 14.53125 54.558594 14.417969 54.535156 14.3125 C 54.511719 14.210938 54.472656 14.117188 54.417969 14.027344 C 54.316406 13.832031 54.199219 13.644531 54.078125 13.457031 C 54.011719 13.347656 53.90625 13.265625 53.78125 13.226562 C 53.648438 13.191406 53.511719 13.210938 53.394531 13.277344 C 53.152344 13.417969 53.074219 13.726562 53.210938 13.964844 Z M 53.210938 13.964844 "/>
<path style=" stroke:none;fill-rule:nonzero;fill:rgb(12.941176%,9.019608%,8.235294%);fill-opacity:1;" d="M 25.472656 18.597656 C 25.441406 18.617188 25.410156 18.632812 25.378906 18.648438 C 25.363281 18.65625 25.34375 18.664062 25.328125 18.675781 C 25.40625 18.613281 25.40625 18.644531 25.355469 18.664062 C 25.28125 18.691406 25.203125 18.714844 25.125 18.734375 C 25.039062 18.757812 24.945312 18.769531 24.859375 18.789062 C 24.882812 18.78125 24.964844 18.777344 24.898438 18.78125 L 24.832031 18.789062 C 24.785156 18.792969 24.734375 18.796875 24.6875 18.796875 C 24.601562 18.800781 24.519531 18.796875 24.4375 18.789062 C 24.414062 18.789062 24.394531 18.785156 24.375 18.785156 C 24.308594 18.78125 24.484375 18.804688 24.417969 18.792969 C 24.375 18.78125 24.332031 18.777344 24.292969 18.765625 C 24.253906 18.757812 24.214844 18.746094 24.179688 18.734375 C 24.144531 18.722656 24.082031 18.679688 24.046875 18.683594 L 24.101562 18.707031 L 24.046875 18.683594 L 23.980469 18.652344 C 23.898438 18.617188 23.816406 18.585938 23.734375 18.550781 C 23.46875 18.480469 23.191406 18.636719 23.117188 18.90625 C 23.050781 19.171875 23.207031 19.445312 23.46875 19.523438 C 23.484375 19.53125 23.582031 19.570312 23.515625 19.542969 L 23.542969 19.554688 C 23.621094 19.589844 23.703125 19.621094 23.78125 19.65625 C 23.871094 19.691406 23.960938 19.722656 24.054688 19.746094 C 24.273438 19.792969 24.496094 19.8125 24.722656 19.804688 C 25.160156 19.796875 25.59375 19.683594 25.980469 19.46875 C 26.222656 19.328125 26.300781 19.019531 26.164062 18.78125 C 26.023438 18.539062 25.714844 18.460938 25.476562 18.601562 Z M 25.472656 18.597656 "/>
<path style=" stroke:none;fill-rule:nonzero;fill:rgb(12.941176%,9.019608%,8.235294%);fill-opacity:1;" d="M 21.148438 14.414062 C 21.058594 14.796875 21.191406 15.664062 21.910156 15.691406 C 22.855469 15.621094 22.835938 14.566406 22.484375 14.09375 C 22.195312 13.703125 21.421875 13.585938 21.148438 14.414062 Z M 21.148438 14.414062 "/>
<path style=" stroke:none;fill-rule:nonzero;fill:rgb(12.941176%,9.019608%,8.235294%);fill-opacity:1;" d="M 26.820312 13.871094 C 26.738281 14.246094 26.863281 15.085938 27.523438 15.109375 C 28.386719 15.046875 28.367188 14.023438 28.046875 13.5625 C 27.78125 13.1875 27.070312 13.070312 26.820312 13.871094 Z M 26.820312 13.871094 "/>
<path style=" stroke:none;fill-rule:nonzero;fill:rgb(12.941176%,9.019608%,8.235294%);fill-opacity:1;" d="M 24.78125 16.210938 C 24.855469 16.320312 24.925781 16.429688 24.996094 16.539062 C 25.074219 16.65625 25.144531 16.777344 25.207031 16.90625 L 25.15625 16.785156 C 25.167969 16.808594 25.175781 16.835938 25.179688 16.859375 L 25.160156 16.726562 C 25.164062 16.742188 25.164062 16.753906 25.160156 16.769531 L 25.179688 16.636719 C 25.175781 16.648438 25.175781 16.664062 25.167969 16.675781 L 25.21875 16.554688 C 25.214844 16.5625 25.210938 16.574219 25.203125 16.582031 L 25.28125 16.480469 C 25.261719 16.5 25.238281 16.523438 25.214844 16.542969 L 25.316406 16.464844 C 25.292969 16.484375 25.261719 16.5 25.230469 16.515625 L 25.351562 16.464844 C 25.296875 16.480469 25.242188 16.492188 25.183594 16.5 C 24.988281 16.554688 24.847656 16.71875 24.820312 16.921875 C 24.792969 17.121094 24.890625 17.320312 25.066406 17.421875 C 25.183594 17.484375 25.320312 17.503906 25.453125 17.472656 C 25.5 17.464844 25.546875 17.457031 25.59375 17.441406 C 25.730469 17.402344 25.851562 17.328125 25.953125 17.230469 C 26.09375 17.105469 26.171875 16.917969 26.164062 16.726562 C 26.152344 16.582031 26.105469 16.4375 26.027344 16.3125 C 25.910156 16.101562 25.78125 15.902344 25.648438 15.703125 C 25.578125 15.59375 25.472656 15.511719 25.347656 15.472656 C 25.21875 15.4375 25.078125 15.457031 24.960938 15.523438 C 24.847656 15.589844 24.765625 15.699219 24.730469 15.824219 C 24.695312 15.957031 24.710938 16.097656 24.78125 16.214844 Z M 24.78125 16.210938 "/>
<path style=" stroke:none;fill-rule:nonzero;fill:rgb(12.941176%,9.019608%,8.235294%);fill-opacity:1;" d="M 45.585938 22.140625 C 47.339844 23.1875 49.355469 23.714844 51.394531 23.667969 C 53.203125 23.632812 55.058594 23.171875 56.21875 21.675781 C 56.40625 21.476562 56.40625 21.164062 56.21875 20.964844 C 56.019531 20.769531 55.703125 20.769531 55.507812 20.964844 C 54.480469 22.289062 52.902344 22.644531 51.304688 22.664062 C 49.472656 22.695312 47.667969 22.210938 46.09375 21.269531 C 45.539062 20.9375 45.03125 21.808594 45.585938 22.140625 Z M 45.585938 22.140625 "/>
<path style=" stroke:none;fill-rule:nonzero;fill:rgb(12.941176%,9.019608%,8.235294%);fill-opacity:1;" d="M 40.226562 42.46875 C 40.121094 40.789062 40.070312 39.109375 40.03125 37.425781 C 39.996094 35.984375 39.945312 34.539062 40.023438 33.09375 C 40.089844 31.613281 40.261719 30.136719 40.53125 28.679688 C 40.753906 27.425781 41.25 26.234375 41.984375 25.195312 C 42.90625 23.929688 44.265625 23.03125 45.542969 22.167969 C 46.074219 21.808594 45.574219 20.933594 45.035156 21.296875 C 43.800781 22.132812 42.523438 22.992188 41.546875 24.136719 C 40.664062 25.1875 40.03125 26.433594 39.707031 27.769531 C 38.996094 30.652344 38.945312 33.683594 39.007812 36.636719 C 39.046875 38.582031 39.101562 40.527344 39.222656 42.46875 C 39.261719 43.109375 40.265625 43.117188 40.226562 42.46875 Z M 40.226562 42.46875 "/>
<path style=" stroke:none;fill-rule:nonzero;fill:rgb(12.941176%,9.019608%,8.235294%);fill-opacity:1;" d="M 56.242188 21.867188 C 57.152344 22.136719 58.011719 22.5625 58.78125 23.121094 C 59.671875 23.859375 60.355469 24.816406 60.769531 25.898438 C 61.761719 28.285156 62.039062 30.898438 62.511719 33.417969 C 62.796875 34.941406 63.113281 36.457031 63.402344 37.976562 C 63.519531 38.613281 64.488281 38.34375 64.367188 37.710938 C 64.105469 36.320312 63.820312 34.9375 63.554688 33.546875 C 63.292969 32.171875 63.085938 30.789062 62.8125 29.417969 C 62.324219 26.980469 61.621094 24.230469 59.652344 22.546875 C 58.722656 21.796875 57.652344 21.238281 56.507812 20.898438 C 55.894531 20.691406 55.628906 21.664062 56.242188 21.867188 Z M 56.242188 21.867188 "/>
<path style=" stroke:none;fill-rule:nonzero;fill:rgb(12.941176%,9.019608%,8.235294%);fill-opacity:1;" d="M 53.703125 20.304688 C 53.730469 20.53125 53.839844 20.746094 54.007812 20.902344 C 54.164062 21.042969 54.328125 21.171875 54.496094 21.289062 C 54.804688 21.5 55.132812 21.675781 55.480469 21.804688 C 55.613281 21.839844 55.75 21.824219 55.867188 21.753906 C 56.109375 21.613281 56.1875 21.304688 56.046875 21.066406 C 55.976562 20.957031 55.871094 20.875 55.746094 20.835938 C 55.710938 20.820312 55.671875 20.804688 55.632812 20.789062 L 55.753906 20.839844 C 55.429688 20.699219 55.128906 20.523438 54.851562 20.308594 L 54.953125 20.386719 C 54.835938 20.304688 54.730469 20.210938 54.636719 20.105469 L 54.714844 20.207031 C 54.699219 20.183594 54.679688 20.15625 54.667969 20.125 L 54.71875 20.246094 C 54.691406 20.179688 54.675781 20.105469 54.667969 20.035156 C 54.632812 19.910156 54.550781 19.800781 54.4375 19.734375 C 54.199219 19.59375 53.890625 19.671875 53.75 19.914062 L 53.699219 20.035156 C 53.675781 20.121094 53.675781 20.214844 53.699219 20.300781 Z M 53.703125 20.304688 "/>
<path style=" stroke:none;fill-rule:nonzero;fill:rgb(12.941176%,9.019608%,8.235294%);fill-opacity:1;" d="M 5.933594 35.226562 C 4.890625 35.546875 4 36.242188 3.441406 37.183594 C 2.925781 38.121094 2.753906 39.214844 2.953125 40.265625 C 3.269531 42.359375 3.574219 44.453125 3.878906 46.550781 C 4.011719 47.46875 4.148438 48.382812 4.28125 49.300781 C 4.355469 49.566406 4.632812 49.722656 4.898438 49.652344 C 5.164062 49.574219 5.316406 49.300781 5.25 49.03125 C 4.996094 47.316406 4.746094 45.597656 4.496094 43.878906 C 4.351562 42.878906 4.203125 41.882812 4.054688 40.882812 C 3.921875 39.988281 3.753906 39.132812 4.050781 38.253906 C 4.402344 37.265625 5.199219 36.503906 6.199219 36.199219 C 6.8125 36 6.550781 35.027344 5.933594 35.226562 Z M 5.933594 35.226562 "/>
<path style=" stroke:none;fill-rule:nonzero;fill:rgb(12.941176%,9.019608%,8.235294%);fill-opacity:1;" d="M 107.257812 36.101562 C 109.4375 36.734375 110.914062 38.761719 111.769531 40.765625 C 112.855469 43.304688 112.765625 46.011719 112.699219 48.710938 C 112.660156 50.25 112.425781 51.773438 112.253906 53.296875 C 112.253906 53.574219 112.480469 53.800781 112.757812 53.800781 C 113.03125 53.796875 113.25 53.574219 113.257812 53.296875 C 113.589844 50.363281 113.941406 47.402344 113.675781 44.441406 C 113.449219 41.898438 112.558594 39.40625 110.910156 37.4375 C 110.03125 36.347656 108.855469 35.546875 107.523438 35.128906 C 106.902344 34.949219 106.636719 35.921875 107.257812 36.101562 Z M 107.257812 36.101562 "/>
<path style=" stroke:none;fill-rule:nonzero;fill:rgb(12.941176%,9.019608%,8.235294%);fill-opacity:1;" d="M 107.824219 35.359375 C 107.683594 35.050781 107.515625 34.574219 107.371094 34.191406 C 107.183594 33.691406 106.996094 33.191406 106.777344 32.699219 C 106.621094 32.253906 106.347656 31.859375 105.984375 31.558594 C 105.441406 31.183594 104.566406 31.332031 103.949219 31.375 C 101.328125 31.554688 98.53125 32.25 96.382812 33.824219 C 95.253906 34.605469 94.34375 35.664062 93.738281 36.898438 C 93.605469 37.140625 93.6875 37.441406 93.917969 37.585938 C 94.15625 37.726562 94.464844 37.644531 94.605469 37.40625 C 95.488281 35.472656 97.382812 34.078125 99.34375 33.371094 C 100.585938 32.917969 101.875 32.609375 103.1875 32.453125 C 103.863281 32.347656 104.546875 32.3125 105.226562 32.347656 C 105.59375 32.382812 105.746094 32.84375 105.882812 33.144531 C 106.285156 34.035156 106.558594 34.976562 106.957031 35.871094 C 107.097656 36.109375 107.402344 36.1875 107.644531 36.050781 C 107.878906 35.90625 107.957031 35.601562 107.824219 35.359375 Z M 107.824219 35.359375 "/>
<path style=" stroke:none;fill-rule:nonzero;fill:rgb(12.941176%,9.019608%,8.235294%);fill-opacity:1;" d="M 104.414062 34.9375 C 102.164062 34.96875 99.929688 35.300781 97.765625 35.921875 C 95.65625 36.511719 93.617188 37.320312 91.675781 38.339844 C 89.929688 39.230469 88.425781 40.53125 87.292969 42.136719 C 86.144531 43.835938 85.609375 45.84375 85.253906 47.839844 C 85.054688 48.964844 84.902344 50.097656 84.703125 51.21875 C 84.605469 51.773438 84.480469 52.320312 84.375 52.871094 C 84.285156 53.484375 84.121094 54.082031 83.890625 54.65625 C 83.757812 54.898438 83.839844 55.199219 84.070312 55.347656 C 84.3125 55.484375 84.617188 55.402344 84.757812 55.164062 C 85.191406 54.214844 85.347656 53.164062 85.550781 52.144531 C 85.742188 51.179688 85.882812 50.203125 86.035156 49.230469 C 86.335938 47.320312 86.679688 45.363281 87.578125 43.628906 C 88.480469 41.941406 89.839844 40.546875 91.496094 39.59375 C 93.304688 38.558594 95.222656 37.734375 97.21875 37.136719 C 99.546875 36.386719 101.96875 35.984375 104.414062 35.945312 C 105.058594 35.941406 105.058594 34.933594 104.414062 34.9375 Z M 104.414062 34.9375 "/>
<path style=" stroke:none;fill-rule:nonzero;fill:rgb(12.941176%,9.019608%,8.235294%);fill-opacity:1;" d="M 84.75 55.414062 C 83.265625 54.121094 81.914062 52.699219 80.5625 51.269531 C 79.929688 50.597656 79.199219 49.488281 78.128906 49.871094 C 77.335938 50.152344 76.59375 50.796875 75.976562 51.351562 C 74.796875 52.398438 73.800781 53.640625 73.039062 55.019531 C 72.90625 55.257812 72.792969 55.507812 72.699219 55.761719 C 72.542969 56.21875 72.765625 56.53125 73 56.90625 C 73.492188 57.695312 74.003906 58.46875 74.53125 59.234375 C 76.523438 62.128906 78.664062 65.078125 81.820312 66.777344 C 83.480469 67.671875 85.359375 68.15625 87.246094 67.898438 C 89.085938 67.648438 90.753906 66.492188 91.816406 64.988281 C 92.867188 63.507812 93.34375 61.613281 93.828125 59.890625 C 94.425781 57.804688 94.867188 55.679688 95.15625 53.527344 C 95.226562 53.007812 95.28125 52.484375 95.324219 51.964844 C 95.378906 51.316406 94.375 51.320312 94.320312 51.964844 C 94.140625 53.945312 93.8125 55.90625 93.328125 57.835938 C 92.90625 59.589844 92.441406 61.398438 91.734375 63.0625 C 91.132812 64.539062 90.015625 65.742188 88.589844 66.445312 C 87.035156 67.207031 85.210938 67.0625 83.617188 66.492188 C 80.535156 65.386719 78.347656 62.824219 76.480469 60.253906 C 75.960938 59.542969 75.460938 58.820312 74.96875 58.09375 C 74.734375 57.746094 74.507812 57.398438 74.28125 57.046875 C 74.167969 56.871094 74.054688 56.695312 73.941406 56.519531 C 73.890625 56.4375 73.839844 56.359375 73.792969 56.277344 C 73.765625 56.234375 73.632812 56.023438 73.640625 56.078125 C 73.652344 56.136719 73.664062 56.03125 73.679688 55.992188 C 73.710938 55.90625 73.664062 56.019531 73.703125 55.933594 C 73.75 55.824219 73.804688 55.714844 73.859375 55.609375 C 73.996094 55.351562 74.144531 55.101562 74.304688 54.855469 C 74.691406 54.253906 75.128906 53.683594 75.605469 53.152344 C 76.125 52.554688 76.703125 52.007812 77.332031 51.523438 C 77.640625 51.289062 77.96875 51.078125 78.3125 50.890625 C 78.722656 50.664062 78.929688 51.007812 79.203125 51.296875 C 80.433594 52.589844 81.636719 53.914062 82.9375 55.136719 C 83.300781 55.472656 83.664062 55.804688 84.035156 56.125 C 84.523438 56.550781 85.234375 55.839844 84.746094 55.414062 Z M 84.75 55.414062 "/>
<path style=" stroke:none;fill-rule:nonzero;fill:rgb(12.941176%,9.019608%,8.235294%);fill-opacity:1;" d="M 70.429688 47.261719 C 70.230469 46.917969 69.96875 46.613281 69.660156 46.367188 C 69.289062 46.023438 68.894531 45.710938 68.523438 45.363281 C 68.300781 45.152344 67.761719 44.796875 67.878906 44.441406 C 68.003906 44.0625 68.425781 44.160156 68.710938 44.265625 C 70.535156 44.957031 72.210938 46.003906 74.003906 46.773438 C 74.453125 46.925781 74.851562 47.207031 75.152344 47.578125 C 75.480469 47.996094 75.652344 48.515625 75.644531 49.050781 C 75.625 49.699219 76.632812 49.699219 76.648438 49.050781 C 76.660156 47.851562 76.035156 46.738281 75.011719 46.125 C 74.582031 45.882812 74.089844 45.722656 73.644531 45.507812 C 73.109375 45.253906 72.578125 44.988281 72.046875 44.722656 C 71.496094 44.449219 70.949219 44.175781 70.390625 43.917969 C 69.886719 43.65625 69.363281 43.429688 68.828125 43.246094 C 68.292969 43.054688 67.695312 43.175781 67.273438 43.554688 C 66.816406 44.003906 66.726562 44.707031 67.054688 45.257812 C 67.417969 45.734375 67.84375 46.160156 68.320312 46.523438 C 68.605469 46.769531 68.890625 47.015625 69.160156 47.28125 C 69.324219 47.417969 69.460938 47.582031 69.5625 47.769531 C 69.703125 48.007812 70.007812 48.089844 70.25 47.949219 C 70.480469 47.804688 70.5625 47.503906 70.429688 47.261719 Z M 70.429688 47.261719 "/>
<path style=" stroke:none;fill-rule:nonzero;fill:rgb(12.941176%,9.019608%,8.235294%);fill-opacity:1;" d="M 69.835938 47.453125 C 68.035156 47.636719 66.230469 47.808594 64.425781 47.96875 C 63.460938 48.054688 62.496094 48.144531 61.542969 48.304688 C 60.734375 48.441406 59.976562 48.691406 59.710938 49.558594 C 59.429688 50.464844 60.023438 51.230469 60.929688 51.351562 C 61.195312 51.417969 61.46875 51.261719 61.546875 51 C 61.621094 50.734375 61.464844 50.457031 61.195312 50.382812 C 61.046875 50.375 60.898438 50.335938 60.765625 50.265625 C 60.730469 50.246094 60.699219 50.21875 60.675781 50.1875 C 60.679688 50.191406 60.660156 50.144531 60.660156 50.140625 C 60.621094 49.984375 60.648438 49.824219 60.734375 49.691406 C 60.90625 49.484375 61.152344 49.359375 61.417969 49.347656 C 61.734375 49.28125 62.054688 49.230469 62.371094 49.1875 C 63.914062 48.980469 65.472656 48.882812 67.023438 48.734375 C 67.960938 48.648438 68.898438 48.554688 69.835938 48.457031 C 70.109375 48.449219 70.332031 48.230469 70.335938 47.953125 C 70.335938 47.675781 70.113281 47.453125 69.835938 47.449219 Z M 69.835938 47.453125 "/>
<path style=" stroke:none;fill-rule:nonzero;fill:rgb(12.941176%,9.019608%,8.235294%);fill-opacity:1;" d="M 66.871094 49.894531 C 65.742188 49.925781 64.613281 49.984375 63.488281 50.085938 C 62.957031 50.136719 62.421875 50.195312 61.886719 50.261719 C 61.375 50.289062 60.886719 50.5 60.511719 50.855469 C 59.859375 51.574219 60.222656 52.625 61.066406 52.972656 C 61.527344 53.132812 62.019531 53.175781 62.5 53.097656 C 62.972656 53.054688 63.441406 53.011719 63.917969 52.976562 C 64.945312 52.894531 65.976562 52.816406 67.003906 52.765625 C 67.648438 52.730469 67.652344 51.722656 67.003906 51.757812 C 65.433594 51.839844 63.867188 51.964844 62.304688 52.109375 C 61.996094 52.136719 61.589844 52.175781 61.320312 51.980469 C 61.246094 51.9375 61.195312 51.863281 61.179688 51.78125 C 61.164062 51.695312 61.1875 51.609375 61.242188 51.542969 C 61.453125 51.285156 61.902344 51.265625 62.203125 51.230469 C 62.664062 51.175781 63.125 51.128906 63.585938 51.085938 C 64.679688 50.984375 65.773438 50.933594 66.871094 50.902344 C 67.515625 50.882812 67.515625 49.875 66.871094 49.894531 Z M 66.871094 49.894531 "/>
<path style=" stroke:none;fill-rule:nonzero;fill:rgb(12.941176%,9.019608%,8.235294%);fill-opacity:1;" d="M 62.707031 52.097656 C 62.109375 52.335938 61.617188 52.972656 61.839844 53.644531 C 62.035156 54.175781 62.539062 54.53125 63.105469 54.527344 C 63.894531 54.570312 64.695312 54.539062 65.484375 54.527344 C 65.910156 54.519531 66.339844 54.515625 66.769531 54.5 C 67.414062 54.476562 67.417969 53.46875 66.769531 53.492188 C 65.882812 53.523438 64.996094 53.53125 64.109375 53.535156 C 63.765625 53.535156 63.425781 53.527344 63.085938 53.519531 C 63.066406 53.519531 63.046875 53.519531 63.027344 53.515625 C 63.175781 53.53125 62.949219 53.492188 62.957031 53.496094 C 62.890625 53.472656 62.835938 53.421875 62.804688 53.359375 C 62.785156 53.324219 62.789062 53.28125 62.8125 53.246094 C 62.847656 53.175781 62.902344 53.113281 62.972656 53.070312 C 63.234375 52.988281 63.390625 52.714844 63.324219 52.449219 C 63.25 52.183594 62.972656 52.023438 62.707031 52.097656 Z M 62.707031 52.097656 "/>
<path style=" stroke:none;fill-rule:nonzero;fill:rgb(12.941176%,9.019608%,8.235294%);fill-opacity:1;" d="M 64.898438 55.023438 C 66.203125 55.035156 67.507812 55.078125 68.816406 55.09375 C 69.308594 55.101562 69.796875 55.113281 70.289062 55.148438 C 70.71875 55.152344 71.144531 55.222656 71.554688 55.355469 C 71.824219 55.429688 72.097656 55.273438 72.171875 55.003906 C 72.238281 54.738281 72.085938 54.464844 71.820312 54.386719 C 71.375 54.242188 70.914062 54.164062 70.445312 54.152344 C 69.925781 54.109375 69.402344 54.097656 68.878906 54.089844 C 67.550781 54.070312 66.222656 54.03125 64.894531 54.011719 C 64.25 54.003906 64.25 55.011719 64.894531 55.019531 Z M 64.898438 55.023438 "/>
<path style=" stroke:none;fill-rule:nonzero;fill:rgb(100%,100%,100%);fill-opacity:1;" d="M 119.429688 64.226562 C 119.429688 60.515625 119.527344 59.585938 119.5625 53.21875 C 119.570312 52.421875 119.199219 51.671875 118.566406 51.191406 C 117.9375 50.714844 117.113281 50.5625 116.355469 50.785156 C 112.222656 51.988281 106.242188 53.738281 102.136719 54.925781 C 100.75 55.328125 99.796875 56.59375 99.792969 58.039062 C 99.765625 64.296875 99.695312 66.820312 99.695312 72.449219 Z M 119.429688 64.226562 "/>
<path style=" stroke:none;fill-rule:nonzero;fill:rgb(12.941176%,9.019608%,8.235294%);fill-opacity:1;" d="M 100.195312 72.449219 C 100.195312 69.21875 100.230469 65.984375 100.261719 62.753906 C 100.269531 61.863281 100.277344 60.972656 100.28125 60.085938 C 100.285156 59.585938 100.289062 59.085938 100.289062 58.589844 C 100.265625 58.15625 100.304688 57.71875 100.398438 57.296875 C 100.597656 56.597656 101.0625 56.007812 101.695312 55.652344 C 102.023438 55.488281 102.371094 55.363281 102.726562 55.277344 L 103.921875 54.933594 C 107.402344 53.921875 110.882812 52.90625 114.363281 51.890625 C 115.132812 51.664062 115.914062 51.367188 116.703125 51.21875 C 117.367188 51.101562 118.046875 51.328125 118.511719 51.820312 C 119.105469 52.4375 119.0625 53.203125 119.054688 54.007812 C 119.050781 54.898438 119.042969 55.789062 119.03125 56.679688 C 119.003906 58.898438 118.941406 61.113281 118.929688 63.332031 C 118.929688 63.628906 118.929688 63.929688 118.929688 64.226562 C 118.929688 64.875 119.933594 64.875 119.933594 64.226562 C 119.933594 61.945312 119.996094 59.667969 120.027344 57.386719 C 120.039062 56.519531 120.050781 55.65625 120.054688 54.792969 C 120.0625 53.847656 120.1875 52.84375 119.796875 51.957031 C 119.464844 51.226562 118.855469 50.65625 118.101562 50.371094 C 117.273438 50.054688 116.488281 50.222656 115.671875 50.460938 C 112.070312 51.511719 108.46875 52.558594 104.871094 53.609375 C 104.039062 53.851562 103.207031 54.09375 102.378906 54.332031 C 101.566406 54.570312 100.828125 54.890625 100.253906 55.539062 C 99.683594 56.179688 99.34375 57 99.296875 57.859375 C 99.234375 58.878906 99.28125 59.917969 99.273438 60.941406 C 99.246094 64.277344 99.203125 67.613281 99.195312 70.949219 C 99.195312 71.449219 99.191406 71.953125 99.191406 72.453125 C 99.191406 73.101562 100.195312 73.101562 100.195312 72.453125 Z M 100.195312 72.449219 "/>
</g>
</svg>
