<?xml version="1.0" encoding="UTF-8"?>
<svg xmlns="http://www.w3.org/2000/svg" xmlns:xlink="http://www.w3.org/1999/xlink" width="118px" height="78px" viewBox="0 0 117 78" version="1.1">
<g id="surface1">
<path style=" stroke:none;fill-rule:nonzero;fill:rgb(100%,100%,100%);fill-opacity:1;" d="M 29.9375 10.804688 C 29.53125 11.820312 28.960938 12.984375 28.441406 13.976562 C 28.777344 14.152344 31.3125 15.191406 32.007812 15.371094 C 32.425781 14.285156 32.867188 13.253906 33.203125 12.1875 C 32.648438 11.976562 31.074219 11.238281 29.9375 10.804688 Z M 29.9375 10.804688 "/>
<path style=" stroke:none;fill-rule:nonzero;fill:rgb(100%,100%,100%);fill-opacity:1;" d="M 88.304688 11.488281 C 87.390625 12.367188 86.277344 13.410156 85.542969 14.183594 C 86.316406 14.925781 87.121094 15.699219 87.835938 16.355469 C 88.65625 15.507812 89.664062 14.589844 90.480469 13.667969 C 90.125 13.292969 88.976562 12.167969 88.304688 11.488281 Z M 88.304688 11.488281 "/>
<path style=" stroke:none;fill-rule:nonzero;fill:rgb(100%,100%,100%);fill-opacity:1;" d="M 83.746094 3.742188 C 82.578125 2.65625 81.328125 1.519531 80.199219 0.585938 C 79.054688 1.761719 78.050781 2.960938 77.03125 4.125 C 77.726562 4.796875 79.421875 6.367188 80.546875 7.253906 C 81.402344 6.328125 83.09375 4.523438 83.746094 3.742188 Z M 83.746094 3.742188 "/>
<path style=" stroke:none;fill-rule:nonzero;fill:rgb(12.941176%,9.019608%,8.235294%);fill-opacity:1;" d="M 29.371094 10.644531 C 28.953125 11.683594 28.449219 12.6875 27.933594 13.679688 C 27.773438 13.960938 27.867188 14.320312 28.144531 14.488281 C 28.707031 14.777344 29.316406 15 29.90625 15.234375 C 30.539062 15.507812 31.1875 15.746094 31.847656 15.941406 C 32.160156 16.019531 32.476562 15.835938 32.570312 15.527344 C 32.984375 14.472656 33.421875 13.425781 33.765625 12.34375 C 33.84375 12.027344 33.664062 11.707031 33.355469 11.613281 C 32.9375 11.457031 32.527344 11.261719 32.015625 11.039062 C 31.382812 10.761719 30.742188 10.480469 30.09375 10.234375 C 29.78125 10.148438 29.460938 10.332031 29.371094 10.644531 C 29.292969 10.960938 29.472656 11.28125 29.78125 11.375 C 30.882812 11.796875 31.9375 12.335938 33.046875 12.757812 L 32.636719 12.027344 C 32.292969 13.109375 31.851562 14.15625 31.441406 15.210938 L 32.160156 14.796875 C 31.519531 14.609375 30.886719 14.378906 30.269531 14.113281 C 29.929688 13.976562 29.589844 13.835938 29.25 13.695312 L 29.125 13.644531 C 29.183594 13.667969 29.210938 13.679688 29.136719 13.648438 C 29.078125 13.625 29.019531 13.597656 28.960938 13.570312 C 28.886719 13.539062 28.808594 13.503906 28.734375 13.46875 L 28.945312 14.277344 C 29.511719 13.195312 30.046875 12.09375 30.503906 10.960938 C 30.589844 10.644531 30.40625 10.320312 30.09375 10.230469 C 29.78125 10.15625 29.464844 10.335938 29.371094 10.644531 Z M 29.371094 10.644531 "/>
<path style=" stroke:none;fill-rule:nonzero;fill:rgb(12.941176%,9.019608%,8.235294%);fill-opacity:1;" d="M 87.886719 11.070312 C 86.960938 11.960938 86.011719 12.832031 85.128906 13.765625 C 84.902344 14 84.902344 14.371094 85.128906 14.601562 C 85.886719 15.332031 86.644531 16.0625 87.421875 16.773438 C 87.652344 17 88.019531 17 88.253906 16.773438 C 89.128906 15.871094 90.058594 15.027344 90.894531 14.089844 C 91.117188 13.855469 91.117188 13.484375 90.894531 13.25 C 90.1875 12.503906 89.441406 11.796875 88.71875 11.070312 C 88.183594 10.53125 87.351562 11.367188 87.886719 11.910156 C 88.609375 12.636719 89.359375 13.34375 90.0625 14.089844 L 90.0625 13.25 C 89.226562 14.1875 88.296875 15.035156 87.421875 15.933594 L 88.253906 15.933594 C 87.476562 15.226562 86.71875 14.492188 85.957031 13.765625 L 85.957031 14.601562 C 86.84375 13.671875 87.792969 12.800781 88.71875 11.910156 C 89.265625 11.378906 88.433594 10.542969 87.886719 11.070312 Z M 87.886719 11.070312 "/>
<path style=" stroke:none;fill-rule:nonzero;fill:rgb(12.941176%,9.019608%,8.235294%);fill-opacity:1;" d="M 84.164062 3.324219 C 83 2.246094 81.832031 1.179688 80.613281 0.167969 C 80.382812 -0.0546875 80.015625 -0.0546875 79.78125 0.167969 C 78.679688 1.304688 77.65625 2.511719 76.613281 3.707031 C 76.390625 3.941406 76.390625 4.308594 76.613281 4.542969 C 77.742188 5.628906 78.902344 6.699219 80.128906 7.671875 C 80.363281 7.894531 80.726562 7.894531 80.960938 7.671875 C 82.035156 6.511719 83.144531 5.375 84.164062 4.160156 C 84.382812 3.925781 84.382812 3.558594 84.164062 3.324219 C 83.933594 3.09375 83.5625 3.09375 83.332031 3.324219 C 82.316406 4.535156 81.203125 5.671875 80.128906 6.832031 L 80.960938 6.832031 C 79.734375 5.863281 78.574219 4.792969 77.445312 3.707031 L 77.445312 4.542969 C 78.488281 3.351562 79.511719 2.140625 80.613281 1.007812 L 79.78125 1.007812 C 81 2.015625 82.171875 3.085938 83.332031 4.160156 C 83.886719 4.675781 84.722656 3.839844 84.164062 3.324219 Z M 84.164062 3.324219 "/>
<path style=" stroke:none;fill-rule:nonzero;fill:rgb(100%,100%,100%);fill-opacity:1;" d="M 5.1875 25.777344 C 7.183594 27.019531 8.328125 27.726562 10.40625 28.222656 C 10.679688 28.289062 12.433594 29.875 12.65625 30.140625 C 12.65625 30.140625 12.757812 30.261719 12.921875 30.453125 C 14.464844 28.542969 16.140625 26.597656 17.855469 24.761719 C 17.597656 24.476562 17.339844 24.191406 17.089844 23.898438 C 16.945312 22.953125 16.625 21.699219 16.40625 20.773438 C 16.113281 19.527344 15.808594 18.261719 15.160156 17.160156 C 14.683594 16.347656 13.992188 15.566406 13.066406 15.699219 C 12.898438 15.742188 12.746094 15.835938 12.632812 15.96875 C 12.457031 16.1875 12.386719 16.476562 12.449219 16.753906 C 12.652344 17.65625 12.789062 18.125 13.011719 18.949219 L 12.226562 18.214844 C 10.988281 17.054688 8.453125 14.9375 7.214844 13.777344 C 6.914062 13.488281 6.570312 13.253906 6.191406 13.082031 C 5.800781 12.875 5.335938 12.871094 4.9375 13.070312 C 4.53125 13.339844 4.316406 13.824219 4.386719 14.308594 C 4.457031 14.601562 4.5625 14.882812 4.703125 15.144531 L 4.820312 15.332031 C 4.570312 15.109375 4.324219 14.882812 4.085938 14.664062 C 3.609375 14.226562 3.136719 13.914062 2.519531 14.019531 C 1.953125 14.140625 1.554688 14.664062 1.589844 15.246094 C 1.632812 15.800781 1.96875 16.246094 2.363281 16.632812 C 2.5625 16.828125 2.777344 17.03125 3.003906 17.246094 C 2.691406 16.972656 2.332031 16.765625 1.945312 16.628906 C 1.453125 16.503906 0.941406 16.71875 0.683594 17.15625 C 0.515625 17.566406 0.550781 18.035156 0.777344 18.421875 C 1.003906 18.808594 1.28125 19.164062 1.605469 19.472656 C 2.042969 19.894531 2.597656 20.398438 3.203125 20.921875 C 2.824219 20.714844 2.40625 20.59375 1.980469 20.5625 C 1.4375 20.542969 1.085938 20.808594 0.988281 21.125 C 0.84375 21.554688 0.917969 22.03125 1.1875 22.398438 C 1.589844 22.917969 2.042969 23.394531 2.546875 23.820312 C 3.378906 24.535156 4.261719 25.191406 5.1875 25.777344 "/>
<path style=" stroke:none;fill-rule:nonzero;fill:rgb(12.941176%,9.019608%,8.235294%);fill-opacity:1;" d="M 13.695312 20.710938 C 13.707031 20.179688 13.691406 19.652344 13.648438 19.121094 C 13.546875 18.617188 13.417969 18.121094 13.265625 17.632812 C 13.203125 17.378906 13.140625 17.128906 13.082031 16.875 C 13.035156 16.683594 12.953125 16.484375 13.109375 16.324219 C 13.175781 16.253906 13.164062 16.285156 13.199219 16.28125 C 13.289062 16.269531 13.378906 16.277344 13.460938 16.300781 C 13.648438 16.351562 13.824219 16.449219 13.964844 16.582031 C 14.785156 17.296875 15.1875 18.472656 15.476562 19.492188 C 15.792969 20.613281 16.054688 21.757812 16.300781 22.894531 C 16.371094 23.207031 16.433594 23.515625 16.488281 23.828125 C 16.503906 24.007812 16.570312 24.175781 16.675781 24.316406 C 16.800781 24.46875 16.933594 24.617188 17.066406 24.761719 C 17.5625 25.324219 18.074219 25.871094 18.601562 26.402344 C 19.136719 26.941406 19.96875 26.105469 19.433594 25.5625 C 18.769531 24.890625 18.125 24.195312 17.507812 23.480469 L 17.660156 23.738281 C 17.488281 22.648438 17.203125 21.582031 16.945312 20.507812 C 16.671875 19.339844 16.371094 18.164062 15.800781 17.097656 C 15.316406 16.191406 14.578125 15.242188 13.496094 15.109375 C 12.953125 15.019531 12.40625 15.253906 12.097656 15.714844 C 11.730469 16.269531 11.863281 16.839844 12.007812 17.445312 C 12.140625 17.996094 12.296875 18.542969 12.441406 19.089844 C 12.582031 19.617188 12.5 20.171875 12.523438 20.710938 C 12.554688 21.46875 13.730469 21.476562 13.695312 20.710938 Z M 13.695312 20.710938 "/>
<path style=" stroke:none;fill-rule:nonzero;fill:rgb(12.941176%,9.019608%,8.235294%);fill-opacity:1;" d="M 5.484375 25.265625 C 4.316406 24.519531 3.222656 23.65625 2.21875 22.695312 C 2 22.492188 1.804688 22.265625 1.644531 22.011719 C 1.511719 21.792969 1.480469 21.527344 1.554688 21.28125 C 1.535156 21.378906 1.589844 21.25 1.53125 21.308594 C 1.546875 21.292969 1.660156 21.191406 1.589844 21.246094 C 1.652344 21.191406 1.730469 21.164062 1.816406 21.15625 C 2.148438 21.144531 2.484375 21.214844 2.78125 21.371094 C 3.09375 21.453125 3.417969 21.269531 3.503906 20.957031 C 3.582031 20.640625 3.402344 20.320312 3.09375 20.226562 C 2.339844 19.914062 1.308594 19.789062 0.703125 20.472656 C 0.0664062 21.1875 0.324219 22.246094 0.851562 22.933594 C 1.414062 23.621094 2.054688 24.242188 2.761719 24.773438 C 3.445312 25.316406 4.167969 25.800781 4.894531 26.289062 C 5.171875 26.453125 5.535156 26.359375 5.695312 26.078125 C 5.859375 25.792969 5.765625 25.429688 5.484375 25.265625 Z M 5.484375 25.265625 "/>
<path style=" stroke:none;fill-rule:nonzero;fill:rgb(12.941176%,9.019608%,8.235294%);fill-opacity:1;" d="M 3.03125 16.53125 C 2.351562 16.023438 1.46875 15.792969 0.714844 16.285156 C -0.144531 16.839844 -0.167969 17.988281 0.320312 18.808594 C 0.75 19.53125 1.386719 20.09375 2.003906 20.648438 C 2.636719 21.222656 3.285156 21.78125 3.949219 22.320312 C 4.679688 22.917969 5.421875 23.503906 6.191406 24.046875 C 6.46875 24.210938 6.828125 24.117188 6.992188 23.835938 C 7.148438 23.550781 7.058594 23.195312 6.78125 23.023438 C 5.371094 22.007812 4.019531 20.902344 2.734375 19.722656 C 2.445312 19.457031 2.148438 19.195312 1.878906 18.910156 C 1.59375 18.613281 1.226562 18.214844 1.167969 17.785156 C 1.132812 17.652344 1.15625 17.511719 1.234375 17.398438 C 1.308594 17.28125 1.433594 17.207031 1.570312 17.195312 C 1.863281 17.140625 2.191406 17.371094 2.4375 17.554688 C 2.71875 17.71875 3.074219 17.621094 3.242188 17.34375 C 3.398438 17.058594 3.304688 16.703125 3.03125 16.53125 Z M 3.03125 16.53125 "/>
<path style=" stroke:none;fill-rule:nonzero;fill:rgb(12.941176%,9.019608%,8.235294%);fill-opacity:1;" d="M 9.453125 18.679688 C 8.355469 17.71875 7.265625 16.75 6.183594 15.773438 C 5.644531 15.289062 5.113281 14.804688 4.578125 14.320312 C 4.089844 13.875 3.570312 13.472656 2.890625 13.414062 C 2.242188 13.363281 1.621094 13.675781 1.273438 14.226562 C 0.933594 14.800781 0.917969 15.507812 1.226562 16.09375 C 1.484375 16.644531 1.953125 17.0625 2.382812 17.472656 C 2.828125 17.894531 3.28125 18.3125 3.738281 18.71875 C 4.804688 19.675781 5.890625 20.609375 6.996094 21.515625 C 7.230469 21.738281 7.59375 21.738281 7.828125 21.515625 C 8.054688 21.28125 8.054688 20.910156 7.828125 20.675781 C 6.132812 19.292969 4.472656 17.855469 2.898438 16.332031 C 2.585938 16.027344 2.207031 15.671875 2.175781 15.207031 C 2.164062 15.035156 2.230469 14.875 2.351562 14.753906 C 2.46875 14.636719 2.632812 14.578125 2.800781 14.59375 C 3.265625 14.628906 3.632812 15.050781 3.957031 15.34375 C 4.417969 15.769531 4.882812 16.191406 5.351562 16.613281 C 6.433594 17.585938 7.523438 18.554688 8.621094 19.519531 C 9.191406 20.015625 10.023438 19.179688 9.453125 18.679688 Z M 9.453125 18.679688 "/>
<path style=" stroke:none;fill-rule:nonzero;fill:rgb(12.941176%,9.019608%,8.235294%);fill-opacity:1;" d="M 12.640625 17.796875 C 11.460938 16.695312 10.21875 15.65625 9.003906 14.59375 C 8.410156 14.070312 7.84375 13.492188 7.214844 13.011719 C 6.445312 12.421875 5.308594 12.003906 4.457031 12.691406 C 4.054688 13.027344 3.808594 13.519531 3.78125 14.046875 C 3.792969 14.539062 3.933594 15.023438 4.195312 15.445312 C 4.574219 16.105469 5.589844 15.507812 5.207031 14.847656 C 5.035156 14.546875 4.871094 14.167969 5.015625 13.84375 C 5.171875 13.5 5.515625 13.460938 5.847656 13.578125 C 6.613281 13.847656 7.222656 14.589844 7.820312 15.117188 C 9.148438 16.292969 10.515625 17.421875 11.8125 18.632812 C 12.367188 19.152344 13.199219 18.316406 12.640625 17.796875 Z M 12.640625 17.796875 "/>
<path style=" stroke:none;fill-rule:nonzero;fill:rgb(12.941176%,9.019608%,8.235294%);fill-opacity:1;" d="M 9.5 18.640625 C 8.082031 20.011719 6.992188 21.675781 5.925781 23.320312 C 5.777344 23.601562 5.875 23.949219 6.148438 24.109375 C 6.417969 24.269531 6.769531 24.183594 6.9375 23.917969 C 7.953125 22.351562 8.984375 20.78125 10.328125 19.480469 C 10.875 18.949219 10.042969 18.113281 9.496094 18.640625 Z M 9.5 18.640625 "/>
<path style=" stroke:none;fill-rule:nonzero;fill:rgb(100%,100%,100%);fill-opacity:1;" d="M 111.84375 25.777344 C 109.847656 27.019531 108.707031 27.726562 106.628906 28.222656 C 106.355469 28.289062 104.601562 29.875 104.375 30.140625 C 104.375 30.140625 104.273438 30.261719 104.113281 30.453125 C 102.566406 28.542969 100.894531 26.597656 99.179688 24.761719 C 99.4375 24.476562 99.691406 24.191406 99.941406 23.898438 C 100.085938 22.953125 100.410156 21.699219 100.628906 20.773438 C 100.921875 19.527344 101.222656 18.261719 101.871094 17.160156 C 102.351562 16.347656 103.039062 15.566406 103.964844 15.699219 C 104.136719 15.742188 104.289062 15.835938 104.398438 15.96875 C 104.578125 16.1875 104.644531 16.476562 104.582031 16.753906 C 104.382812 17.65625 104.242188 18.125 104.023438 18.949219 L 104.804688 18.214844 C 106.046875 17.054688 108.578125 14.9375 109.820312 13.777344 C 110.121094 13.488281 110.464844 13.253906 110.839844 13.082031 C 111.234375 12.875 111.699219 12.871094 112.097656 13.070312 C 112.503906 13.339844 112.71875 13.824219 112.644531 14.308594 C 112.578125 14.601562 112.472656 14.882812 112.332031 15.144531 L 112.214844 15.332031 C 112.464844 15.109375 112.707031 14.882812 112.949219 14.664062 C 113.425781 14.226562 113.898438 13.914062 114.511719 14.019531 C 115.082031 14.140625 115.480469 14.664062 115.445312 15.246094 C 115.398438 15.800781 115.0625 16.246094 114.667969 16.632812 C 114.46875 16.828125 114.253906 17.03125 114.027344 17.246094 C 114.339844 16.972656 114.699219 16.765625 115.089844 16.628906 C 115.578125 16.503906 116.089844 16.71875 116.347656 17.15625 C 116.515625 17.566406 116.480469 18.035156 116.253906 18.421875 C 116.03125 18.808594 115.75 19.164062 115.425781 19.472656 C 114.988281 19.894531 114.433594 20.398438 113.828125 20.921875 C 114.207031 20.714844 114.625 20.59375 115.054688 20.5625 C 115.59375 20.542969 115.945312 20.808594 116.046875 21.125 C 116.1875 21.554688 116.113281 22.03125 115.84375 22.398438 C 115.441406 22.917969 114.988281 23.394531 114.484375 23.820312 C 113.652344 24.535156 112.769531 25.191406 111.84375 25.777344 "/>
<path style=" stroke:none;fill-rule:nonzero;fill:rgb(12.941176%,9.019608%,8.235294%);fill-opacity:1;" d="M 104.511719 20.710938 C 104.492188 20.246094 104.503906 19.78125 104.539062 19.316406 C 104.621094 18.8125 104.808594 18.308594 104.9375 17.816406 C 105.066406 17.296875 105.292969 16.695312 105.144531 16.160156 C 104.992188 15.585938 104.507812 15.167969 103.921875 15.105469 C 102.835938 15 102 15.851562 101.460938 16.707031 C 100.816406 17.730469 100.472656 18.914062 100.191406 20.082031 C 99.894531 21.292969 99.570312 22.507812 99.375 23.742188 L 99.527344 23.480469 C 98.910156 24.199219 98.265625 24.894531 97.601562 25.566406 C 97.066406 26.105469 97.898438 26.945312 98.433594 26.402344 C 98.902344 25.925781 99.363281 25.4375 99.8125 24.941406 C 100.046875 24.714844 100.261719 24.464844 100.449219 24.199219 C 100.554688 23.925781 100.617188 23.640625 100.636719 23.347656 C 100.863281 22.21875 101.140625 21.089844 101.429688 19.96875 C 101.707031 18.898438 102.050781 17.722656 102.789062 16.867188 C 103.039062 16.578125 103.378906 16.25 103.792969 16.28125 C 103.882812 16.285156 103.96875 16.3125 104.011719 16.476562 C 104.066406 16.691406 103.925781 17.015625 103.871094 17.226562 C 103.730469 17.804688 103.539062 18.378906 103.414062 18.960938 C 103.292969 19.539062 103.363281 20.128906 103.339844 20.714844 C 103.308594 21.476562 104.480469 21.476562 104.515625 20.714844 Z M 104.511719 20.710938 "/>
<path style=" stroke:none;fill-rule:nonzero;fill:rgb(12.941176%,9.019608%,8.235294%);fill-opacity:1;" d="M 112.140625 26.289062 C 112.851562 25.808594 113.5625 25.332031 114.238281 24.800781 C 114.960938 24.261719 115.609375 23.632812 116.179688 22.933594 C 116.703125 22.253906 116.960938 21.210938 116.347656 20.492188 C 115.746094 19.789062 114.707031 19.910156 113.9375 20.226562 C 113.632812 20.320312 113.453125 20.640625 113.527344 20.957031 C 113.617188 21.269531 113.9375 21.453125 114.25 21.371094 C 114.550781 21.21875 114.882812 21.144531 115.21875 21.15625 C 115.300781 21.164062 115.382812 21.195312 115.445312 21.246094 C 115.375 21.195312 115.496094 21.304688 115.5 21.308594 C 115.4375 21.242188 115.507812 21.394531 115.480469 21.28125 C 115.554688 21.511719 115.53125 21.761719 115.414062 21.96875 C 115.25 22.238281 115.046875 22.484375 114.816406 22.695312 C 113.8125 23.65625 112.71875 24.519531 111.546875 25.265625 C 111.273438 25.433594 111.179688 25.792969 111.335938 26.074219 C 111.503906 26.355469 111.859375 26.449219 112.140625 26.289062 Z M 112.140625 26.289062 "/>
<path style=" stroke:none;fill-rule:nonzero;fill:rgb(12.941176%,9.019608%,8.235294%);fill-opacity:1;" d="M 114.597656 17.554688 C 114.839844 17.371094 115.171875 17.140625 115.464844 17.191406 C 115.601562 17.207031 115.722656 17.28125 115.800781 17.394531 C 115.878906 17.511719 115.902344 17.652344 115.867188 17.785156 C 115.808594 18.214844 115.441406 18.609375 115.15625 18.90625 C 114.882812 19.191406 114.589844 19.457031 114.296875 19.722656 C 113.015625 20.902344 111.664062 22.007812 110.25 23.023438 C 109.980469 23.195312 109.886719 23.550781 110.039062 23.835938 C 110.207031 24.117188 110.5625 24.210938 110.84375 24.046875 C 112.21875 23.058594 113.535156 21.996094 114.792969 20.859375 C 115.429688 20.339844 116.003906 19.753906 116.515625 19.109375 C 117.054688 18.363281 117.332031 17.21875 116.589844 16.496094 C 115.839844 15.761719 114.777344 15.953125 114.003906 16.53125 C 113.730469 16.703125 113.640625 17.058594 113.792969 17.339844 C 113.957031 17.621094 114.316406 17.714844 114.597656 17.554688 Z M 114.597656 17.554688 "/>
<path style=" stroke:none;fill-rule:nonzero;fill:rgb(12.941176%,9.019608%,8.235294%);fill-opacity:1;" d="M 108.410156 19.519531 C 109.378906 18.671875 110.339844 17.820312 111.292969 16.960938 C 111.765625 16.539062 112.234375 16.113281 112.707031 15.6875 C 113.085938 15.339844 113.476562 14.859375 113.960938 14.660156 C 114.117188 14.574219 114.300781 14.5625 114.464844 14.625 C 114.632812 14.683594 114.765625 14.8125 114.832031 14.980469 C 114.976562 15.375 114.644531 15.804688 114.390625 16.074219 C 113.675781 16.839844 112.863281 17.527344 112.082031 18.222656 C 111.140625 19.058594 110.183594 19.875 109.207031 20.675781 C 108.980469 20.90625 108.980469 21.28125 109.207031 21.515625 C 109.441406 21.738281 109.804688 21.738281 110.039062 21.515625 C 111.015625 20.71875 111.972656 19.898438 112.914062 19.0625 C 113.386719 18.640625 113.851562 18.21875 114.316406 17.789062 C 114.769531 17.398438 115.1875 16.96875 115.5625 16.5 C 115.972656 15.984375 116.121094 15.3125 115.964844 14.671875 C 115.78125 14.058594 115.289062 13.59375 114.667969 13.449219 C 114.011719 13.34375 113.335938 13.539062 112.839844 13.988281 C 112.296875 14.421875 111.796875 14.921875 111.28125 15.386719 C 110.058594 16.492188 108.824219 17.589844 107.582031 18.679688 C 107.011719 19.179688 107.84375 20.015625 108.414062 19.519531 Z M 108.410156 19.519531 "/>
<path style=" stroke:none;fill-rule:nonzero;fill:rgb(12.941176%,9.019608%,8.235294%);fill-opacity:1;" d="M 105.222656 18.632812 C 106.519531 17.425781 107.886719 16.292969 109.214844 15.117188 C 109.808594 14.59375 110.40625 13.863281 111.164062 13.585938 C 111.5 13.460938 111.859375 13.492188 112.019531 13.84375 C 112.164062 14.164062 112 14.546875 111.828125 14.847656 C 111.449219 15.507812 112.464844 16.105469 112.84375 15.445312 C 113.292969 14.65625 113.429688 13.722656 112.84375 12.96875 C 112.15625 12.074219 110.976562 12.261719 110.125 12.796875 C 109.453125 13.21875 108.886719 13.839844 108.292969 14.363281 C 107.644531 14.933594 106.992188 15.496094 106.34375 16.0625 C 105.6875 16.632812 105.03125 17.203125 104.394531 17.796875 C 103.835938 18.3125 104.667969 19.152344 105.222656 18.632812 Z M 105.222656 18.632812 "/>
<path style=" stroke:none;fill-rule:nonzero;fill:rgb(12.941176%,9.019608%,8.235294%);fill-opacity:1;" d="M 106.703125 19.480469 C 108.050781 20.78125 109.078125 22.351562 110.097656 23.917969 C 110.265625 24.195312 110.617188 24.289062 110.898438 24.132812 C 111.175781 23.964844 111.269531 23.605469 111.109375 23.320312 C 110.039062 21.675781 108.953125 20.011719 107.535156 18.640625 C 106.988281 18.113281 106.15625 18.949219 106.703125 19.480469 Z M 106.703125 19.480469 "/>
<path style=" stroke:none;fill-rule:nonzero;fill:rgb(100%,100%,100%);fill-opacity:1;" d="M 41.769531 77.445312 C 41.769531 71.714844 41.820312 62.929688 41.761719 61.503906 C 41.714844 60.253906 41.570312 58.613281 40.652344 57.492188 C 39.738281 56.382812 38.761719 55.328125 37.726562 54.332031 C 30.710938 48.292969 15.738281 35.289062 12.402344 31.097656 C 14.261719 28.769531 16.324219 26.359375 18.441406 24.144531 C 18.527344 24.058594 18.664062 24.046875 18.765625 24.117188 C 23.144531 27.457031 37.273438 38.675781 40.683594 40.773438 C 41.847656 41.492188 45.867188 42.972656 46.871094 43.246094 C 47.183594 43.332031 47.570312 43.4375 47.964844 43.546875 L 49.898438 44.308594 C 51.160156 46.53125 54.761719 48.769531 58.472656 48.804688 C 62.917969 48.839844 65.992188 46.097656 67.214844 44.441406 C 67.214844 44.441406 67.25 44.394531 67.296875 44.328125 L 67.453125 43.996094 C 68.148438 43.796875 69.382812 43.460938 70.164062 43.246094 C 71.164062 42.972656 75.1875 41.492188 76.351562 40.773438 C 79.761719 38.675781 93.890625 27.457031 98.269531 24.117188 C 98.371094 24.046875 98.507812 24.058594 98.59375 24.144531 C 100.710938 26.359375 102.773438 28.769531 104.632812 31.097656 C 101.296875 35.289062 86.324219 48.292969 79.308594 54.332031 C 78.273438 55.328125 77.292969 56.382812 76.382812 57.492188 C 75.464844 58.613281 75.320312 60.253906 75.273438 61.503906 C 75.214844 62.929688 75.265625 71.714844 75.265625 77.445312 Z M 41.769531 77.445312 "/>
<path style=" stroke:none;fill-rule:nonzero;fill:rgb(12.941176%,9.019608%,8.235294%);fill-opacity:1;" d="M 111.546875 25.265625 C 110.703125 25.789062 109.863281 26.324219 108.96875 26.769531 C 108.589844 26.957031 108.195312 27.125 107.796875 27.265625 C 107.359375 27.421875 106.898438 27.507812 106.464844 27.652344 C 105.953125 27.828125 105.515625 28.296875 105.121094 28.644531 C 104.710938 28.976562 104.324219 29.335938 103.960938 29.722656 C 103.460938 30.292969 104.289062 31.132812 104.792969 30.558594 C 105.136719 30.191406 105.507812 29.847656 105.898438 29.527344 C 106.03125 29.40625 106.167969 29.292969 106.304688 29.175781 C 106.355469 29.136719 106.402344 29.097656 106.449219 29.058594 C 106.464844 29.042969 106.644531 28.902344 106.550781 28.976562 C 106.628906 28.914062 106.714844 28.863281 106.796875 28.800781 C 106.902344 28.714844 106.863281 28.824219 106.769531 28.796875 C 106.828125 28.816406 106.976562 28.746094 107.039062 28.730469 C 108.902344 28.253906 110.519531 27.300781 112.140625 26.285156 C 112.78125 25.886719 112.195312 24.863281 111.546875 25.265625 Z M 111.546875 25.265625 "/>
<path style=" stroke:none;fill-rule:nonzero;fill:rgb(100%,100%,100%);fill-opacity:1;" d="M 69.761719 25.425781 C 69.730469 25.453125 69.699219 25.480469 69.664062 25.511719 C 69.617188 25.554688 70.546875 16.714844 58.472656 16.714844 C 46.398438 16.714844 47.441406 25.511719 47.441406 25.511719 C 47.101562 25.195312 46.648438 25.027344 46.183594 25.046875 C 45.589844 25.027344 45.035156 25.339844 44.738281 25.859375 C 44.246094 26.71875 44.265625 28.304688 44.597656 29.285156 C 44.832031 29.980469 45.214844 31.042969 46.136719 31.804688 C 46.578125 32.179688 47.167969 32.328125 47.734375 32.210938 C 48.238281 33.953125 49.089844 35.578125 50.242188 36.976562 C 51.484375 38.480469 52.804688 39.515625 54.324219 40.039062 C 54.191406 40.75 54.007812 41.449219 53.777344 42.132812 C 53.300781 43.148438 51.839844 43.964844 49.890625 44.289062 C 51.140625 46.515625 54.75 48.769531 58.472656 48.804688 C 62.917969 48.839844 65.992188 46.097656 67.214844 44.441406 C 67.214844 44.441406 67.261719 44.378906 67.324219 44.292969 C 65.367188 43.96875 63.898438 43.148438 63.417969 42.132812 C 63.257812 41.785156 63.082031 40.871094 62.890625 40.015625 C 65.917969 39.050781 68.425781 34.742188 68.84375 33.601562 C 69.042969 33.148438 69.214844 32.683594 69.351562 32.210938 L 69.492188 32.234375 C 70.023438 32.308594 70.558594 32.152344 70.96875 31.804688 C 71.894531 31.042969 72.277344 29.980469 72.511719 29.285156 C 72.839844 28.304688 72.863281 26.71875 72.371094 25.859375 C 72.074219 25.339844 71.515625 25.027344 70.921875 25.046875 C 70.503906 25.03125 70.09375 25.164062 69.761719 25.425781 Z M 69.761719 25.425781 "/>
<path style=" stroke:none;fill-rule:nonzero;fill:rgb(52.156863%,50.196078%,49.803922%);fill-opacity:1;" d="M 56.835938 7.746094 C 57.394531 7.679688 57.957031 7.648438 58.523438 7.648438 C 61.398438 7.613281 64.203125 8.523438 66.515625 10.246094 C 69.074219 12.109375 71.722656 15.402344 71.945312 20.703125 C 72 22.195312 71.820312 23.683594 71.417969 25.121094 C 71.253906 25.074219 71.089844 25.050781 70.921875 25.046875 C 70.460938 25.023438 70.007812 25.191406 69.667969 25.507812 L 67.90625 24.101562 C 67.335938 22.65625 66.050781 21.0625 64.710938 19.898438 C 64.109375 19.355469 63.421875 18.917969 62.675781 18.609375 C 62.675781 18.609375 61.5625 18.40625 60.492188 18.324219 L 60.46875 18.335938 C 58.980469 18.96875 56.878906 20.296875 55.699219 20.957031 C 55.566406 21.023438 55.402344 21.007812 55.28125 20.917969 C 55.160156 20.824219 55.097656 20.671875 55.125 20.519531 C 55.15625 20.257812 55.140625 19.996094 55.074219 19.738281 C 54.996094 19.414062 54.75 19.273438 54.554688 19.378906 C 52.902344 20.25 50.550781 22.507812 49.21875 24.003906 L 47.441406 25.507812 C 47.101562 25.191406 46.648438 25.023438 46.1875 25.046875 C 46.003906 25.050781 45.820312 25.082031 45.644531 25.132812 C 45.242188 23.691406 45.058594 22.199219 45.101562 20.703125 C 45.214844 16.53125 47.246094 12.648438 50.597656 10.199219 C 52.421875 8.835938 54.578125 7.988281 56.835938 7.746094 Z M 56.835938 7.746094 "/>
<path style=" stroke:none;fill-rule:nonzero;fill:rgb(12.941176%,9.019608%,8.235294%);fill-opacity:1;" d="M 47.855469 25.09375 C 47.109375 24.417969 46.03125 24.265625 45.128906 24.707031 C 44.5 25.046875 44.058594 25.652344 43.917969 26.359375 C 43.511719 27.988281 43.925781 29.859375 44.855469 31.242188 C 45.535156 32.253906 46.511719 32.976562 47.769531 32.808594 C 48.082031 32.71875 48.265625 32.394531 48.179688 32.078125 C 48.085938 31.769531 47.769531 31.585938 47.457031 31.664062 C 46.601562 31.78125 45.941406 30.835938 45.59375 30.183594 C 45.242188 29.53125 45.023438 28.816406 44.957031 28.078125 C 44.914062 27.421875 44.960938 26.507812 45.320312 26.035156 C 45.28125 26.085938 45.402344 25.945312 45.414062 25.933594 C 45.449219 25.890625 45.488281 25.855469 45.539062 25.832031 C 45.667969 25.746094 45.8125 25.691406 45.960938 25.664062 C 46.339844 25.578125 46.734375 25.679688 47.027344 25.929688 C 47.585938 26.4375 48.421875 25.605469 47.855469 25.09375 Z M 47.855469 25.09375 "/>
<path style=" stroke:none;fill-rule:nonzero;fill:rgb(12.941176%,9.019608%,8.235294%);fill-opacity:1;" d="M 70.082031 25.929688 C 70.59375 25.496094 71.355469 25.550781 71.800781 26.054688 C 71.71875 25.949219 71.828125 26.101562 71.84375 26.125 C 71.875 26.175781 71.90625 26.230469 71.933594 26.285156 C 72.007812 26.464844 72.058594 26.648438 72.09375 26.839844 C 72.167969 27.246094 72.183594 27.664062 72.148438 28.078125 C 72.085938 28.800781 71.875 29.503906 71.53125 30.144531 C 71.1875 30.8125 70.519531 31.78125 69.648438 31.664062 C 69.339844 31.589844 69.023438 31.769531 68.925781 32.078125 C 68.84375 32.394531 69.027344 32.71875 69.335938 32.804688 C 71.382812 33.082031 72.570312 31.074219 73.101562 29.371094 C 73.355469 28.503906 73.40625 27.585938 73.257812 26.695312 C 73.175781 25.960938 72.800781 25.292969 72.21875 24.84375 C 71.285156 24.242188 70.070312 24.34375 69.25 25.089844 C 68.6875 25.601562 69.519531 26.4375 70.082031 25.929688 Z M 70.082031 25.929688 "/>
<path style=" stroke:none;fill-rule:nonzero;fill:rgb(12.941176%,9.019608%,8.235294%);fill-opacity:1;" d="M 68.996094 31.230469 C 68.8125 32.023438 68.558594 32.796875 68.238281 33.542969 C 68.238281 33.542969 68.289062 33.433594 68.238281 33.542969 C 68.214844 33.59375 68.195312 33.640625 68.171875 33.6875 C 68.121094 33.800781 68.066406 33.910156 68.007812 34.019531 C 67.867188 34.289062 67.71875 34.554688 67.558594 34.8125 C 66.773438 36.164062 65.769531 37.367188 64.585938 38.378906 C 63.945312 38.933594 63.1875 39.328125 62.371094 39.539062 C 61.636719 39.714844 61.949219 40.855469 62.683594 40.683594 C 64.386719 40.285156 65.800781 39.027344 66.910156 37.722656 C 67.855469 36.648438 68.644531 35.441406 69.253906 34.140625 C 69.289062 34.0625 69.320312 33.984375 69.355469 33.902344 C 69.371094 33.863281 69.441406 33.699219 69.371094 33.855469 C 69.464844 33.640625 69.558594 33.421875 69.640625 33.203125 C 69.84375 32.664062 70.007812 32.109375 70.128906 31.546875 C 70.207031 31.230469 70.027344 30.910156 69.71875 30.816406 C 69.40625 30.734375 69.085938 30.917969 68.996094 31.230469 Z M 68.996094 31.230469 "/>
<path style=" stroke:none;fill-rule:nonzero;fill:rgb(12.941176%,9.019608%,8.235294%);fill-opacity:1;" d="M 46.945312 31.507812 C 47.316406 33.164062 47.980469 34.738281 48.90625 36.160156 C 49.914062 37.6875 51.234375 39.117188 52.839844 40.019531 C 53.660156 40.480469 54.554688 40.789062 55.484375 40.929688 C 55.796875 41.003906 56.113281 40.824219 56.207031 40.515625 C 56.289062 40.199219 56.105469 39.875 55.796875 39.785156 C 52.515625 39.296875 50.066406 36.441406 48.8125 33.503906 C 48.5 32.757812 48.253906 31.984375 48.078125 31.191406 C 47.914062 30.449219 46.78125 30.761719 46.945312 31.507812 Z M 46.945312 31.507812 "/>
<path style=" stroke:none;fill-rule:nonzero;fill:rgb(12.941176%,9.019608%,8.235294%);fill-opacity:1;" d="M 66.230469 9.335938 C 62.203125 6.746094 57.164062 6.335938 52.777344 8.238281 C 49.199219 9.859375 46.457031 12.914062 45.214844 16.667969 C 44.355469 19.398438 44.289062 22.320312 45.023438 25.089844 C 45.210938 25.828125 46.347656 25.515625 46.15625 24.773438 C 45.546875 22.472656 45.535156 20.054688 46.125 17.746094 C 46.59375 15.949219 47.449219 14.28125 48.636719 12.859375 C 51.148438 9.773438 54.953125 8.066406 58.90625 8.246094 C 61.300781 8.300781 63.632812 9.035156 65.636719 10.355469 C 66.273438 10.773438 66.863281 9.746094 66.230469 9.332031 Z M 66.230469 9.335938 "/>
<path style=" stroke:none;fill-rule:nonzero;fill:rgb(12.941176%,9.019608%,8.235294%);fill-opacity:1;" d="M 72.027344 25.089844 C 72.324219 23.949219 72.496094 22.78125 72.542969 21.605469 C 72.566406 20.445312 72.460938 19.289062 72.230469 18.152344 C 71.855469 16.25 71.078125 14.453125 69.957031 12.882812 C 69.40625 12.113281 68.773438 11.40625 68.078125 10.765625 C 67.519531 10.253906 66.6875 11.089844 67.25 11.601562 C 69.925781 14.054688 71.328125 17.503906 71.371094 21.136719 C 71.367188 22.363281 71.207031 23.585938 70.894531 24.773438 C 70.714844 25.515625 71.847656 25.832031 72.027344 25.089844 Z M 72.027344 25.089844 "/>
<path style=" stroke:none;fill-rule:nonzero;fill:rgb(12.941176%,9.019608%,8.235294%);fill-opacity:1;" d="M 62.378906 19.121094 C 63.464844 19.625 64.4375 20.339844 65.246094 21.226562 C 66.125 22.097656 66.832031 23.125 67.335938 24.261719 C 67.429688 24.570312 67.746094 24.75 68.058594 24.675781 C 68.371094 24.585938 68.554688 24.261719 68.46875 23.945312 C 67.914062 22.648438 67.125 21.464844 66.140625 20.460938 C 65.253906 19.464844 64.175781 18.664062 62.972656 18.097656 C 62.691406 17.945312 62.339844 18.039062 62.167969 18.3125 C 62.007812 18.59375 62.101562 18.957031 62.378906 19.121094 Z M 62.378906 19.121094 "/>
<path style=" stroke:none;fill-rule:nonzero;fill:rgb(12.941176%,9.019608%,8.235294%);fill-opacity:1;" d="M 49.632812 24.425781 C 50.957031 22.941406 52.421875 21.488281 54.066406 20.367188 C 54.238281 20.25 54.417969 20.136719 54.597656 20.03125 C 54.640625 20.011719 54.683594 19.984375 54.726562 19.957031 C 54.773438 19.910156 54.769531 19.945312 54.765625 19.925781 C 54.679688 19.917969 54.597656 19.902344 54.515625 19.878906 C 54.492188 19.898438 54.527344 19.914062 54.519531 19.953125 C 54.523438 20.054688 54.535156 20.15625 54.550781 20.257812 C 54.550781 20.371094 54.53125 20.488281 54.535156 20.605469 C 54.546875 20.941406 54.71875 21.25 54.996094 21.4375 C 55.492188 21.761719 55.957031 21.492188 56.402344 21.234375 C 56.816406 20.996094 57.226562 20.75 57.640625 20.507812 C 58.648438 19.890625 59.691406 19.335938 60.765625 18.847656 C 61.042969 18.679688 61.136719 18.320312 60.976562 18.035156 C 60.804688 17.761719 60.453125 17.667969 60.171875 17.824219 C 59.210938 18.257812 58.277344 18.746094 57.378906 19.292969 C 56.945312 19.542969 56.515625 19.800781 56.085938 20.050781 C 55.898438 20.160156 55.710938 20.269531 55.523438 20.378906 C 55.480469 20.398438 55.441406 20.421875 55.40625 20.445312 C 55.40625 20.378906 55.648438 20.457031 55.65625 20.460938 C 55.683594 20.464844 55.679688 20.539062 55.714844 20.519531 C 55.738281 20.503906 55.726562 20.328125 55.726562 20.300781 C 55.738281 19.753906 55.601562 19.113281 55.074219 18.84375 C 54.570312 18.59375 54.09375 18.9375 53.675781 19.207031 C 52.804688 19.792969 51.976562 20.449219 51.207031 21.167969 C 50.363281 21.929688 49.5625 22.738281 48.804688 23.585938 C 48.296875 24.148438 49.125 24.992188 49.632812 24.421875 Z M 49.632812 24.425781 "/>
<path style=" stroke:none;fill-rule:nonzero;fill:rgb(12.941176%,9.019608%,8.235294%);fill-opacity:1;" d="M 66.789062 44.03125 C 66.753906 44.078125 66.714844 44.128906 66.675781 44.179688 C 66.578125 44.3125 66.753906 44.085938 66.644531 44.222656 C 66.589844 44.289062 66.535156 44.359375 66.476562 44.429688 C 66.328125 44.609375 66.171875 44.78125 66.007812 44.953125 C 65.660156 45.3125 65.292969 45.648438 64.902344 45.957031 C 63.984375 46.683594 62.957031 47.253906 61.859375 47.644531 C 59.058594 48.597656 55.988281 48.289062 53.433594 46.792969 C 52.25 46.117188 51.101562 45.214844 50.40625 44.007812 C 50.027344 43.351562 49.011719 43.945312 49.390625 44.605469 C 50.089844 45.820312 51.183594 46.777344 52.347656 47.519531 C 53.722656 48.402344 55.261719 48.992188 56.871094 49.253906 C 59.832031 49.703125 62.847656 48.949219 65.257812 47.160156 C 66.226562 46.449219 67.085938 45.59375 67.804688 44.628906 C 67.964844 44.34375 67.871094 43.984375 67.59375 43.816406 C 67.3125 43.660156 66.960938 43.753906 66.789062 44.03125 Z M 66.789062 44.03125 "/>
<path style=" stroke:none;fill-rule:nonzero;fill:rgb(12.941176%,9.019608%,8.235294%);fill-opacity:1;" d="M 67.386719 44.628906 C 68.8125 44.222656 70.253906 43.875 71.652344 43.378906 C 73.15625 42.867188 74.632812 42.273438 76.070312 41.59375 C 76.824219 41.195312 77.546875 40.734375 78.230469 40.21875 C 79.226562 39.507812 80.210938 38.78125 81.191406 38.046875 C 83.730469 36.144531 86.238281 34.203125 88.746094 32.257812 C 91.179688 30.371094 93.59375 28.480469 95.992188 26.621094 C 96.457031 26.257812 96.921875 25.894531 97.390625 25.535156 C 97.585938 25.382812 97.785156 25.230469 97.984375 25.078125 C 98.167969 24.957031 98.34375 24.820312 98.507812 24.675781 C 98.515625 24.667969 98.558594 24.644531 98.566406 24.628906 L 98.257812 24.648438 L 98.339844 24.730469 C 98.4375 24.851562 98.546875 24.964844 98.660156 25.070312 C 98.886719 25.3125 99.113281 25.558594 99.339844 25.800781 C 99.761719 26.261719 100.183594 26.730469 100.597656 27.199219 C 101.4375 28.148438 102.257812 29.113281 103.0625 30.09375 C 103.453125 30.566406 103.835938 31.039062 104.21875 31.515625 L 104.21875 30.675781 C 103.46875 31.585938 102.667969 32.453125 101.828125 33.277344 C 100.625 34.488281 99.390625 35.664062 98.148438 36.832031 C 95.082031 39.703125 91.949219 42.503906 88.800781 45.285156 C 85.863281 47.878906 82.910156 50.453125 79.941406 53.007812 C 79.175781 53.65625 78.441406 54.34375 77.742188 55.066406 C 77.261719 55.574219 76.796875 56.089844 76.34375 56.621094 C 75.921875 57.078125 75.570312 57.597656 75.304688 58.160156 C 74.640625 59.695312 74.671875 61.414062 74.664062 63.058594 C 74.636719 67.324219 74.671875 71.589844 74.675781 75.851562 C 74.675781 76.382812 74.675781 76.914062 74.675781 77.445312 C 74.675781 78.207031 75.851562 78.207031 75.851562 77.445312 C 75.851562 73.054688 75.824219 68.664062 75.832031 64.273438 C 75.835938 62.929688 75.773438 61.542969 75.957031 60.207031 C 76.023438 59.632812 76.175781 59.070312 76.414062 58.542969 C 76.710938 58.003906 77.082031 57.507812 77.511719 57.066406 C 78.304688 56.132812 79.160156 55.257812 80.074219 54.445312 C 82.925781 51.988281 85.765625 49.519531 88.589844 47.039062 C 91.761719 44.246094 94.914062 41.441406 98.007812 38.570312 C 100.265625 36.476562 102.578125 34.378906 104.601562 32.046875 C 104.753906 31.871094 104.902344 31.695312 105.046875 31.515625 C 105.265625 31.277344 105.265625 30.914062 105.046875 30.675781 C 103.457031 28.6875 101.808594 26.746094 100.085938 24.875 C 99.875 24.644531 99.664062 24.417969 99.449219 24.1875 C 99.230469 23.957031 99.003906 23.632812 98.691406 23.527344 C 98.277344 23.386719 97.984375 23.59375 97.675781 23.832031 C 97.273438 24.140625 96.875 24.449219 96.472656 24.757812 C 94.15625 26.550781 91.859375 28.351562 89.554688 30.144531 C 86.953125 32.167969 84.347656 34.1875 81.722656 36.171875 C 79.914062 37.539062 78.113281 38.957031 76.199219 40.167969 C 75.054688 40.894531 73.753906 41.335938 72.496094 41.8125 C 71.085938 42.339844 69.675781 42.761719 68.226562 43.164062 C 67.839844 43.269531 67.457031 43.375 67.070312 43.484375 C 66.34375 43.6875 66.652344 44.832031 67.382812 44.625 Z M 67.386719 44.628906 "/>
<path style=" stroke:none;fill-rule:nonzero;fill:rgb(12.941176%,9.019608%,8.235294%);fill-opacity:1;" d="M 50.054688 44.859375 C 51.300781 44.644531 52.585938 44.21875 53.554688 43.367188 C 53.9375 43.035156 54.230469 42.613281 54.40625 42.136719 C 54.609375 41.5 54.769531 40.855469 54.890625 40.199219 C 54.96875 39.882812 54.789062 39.5625 54.480469 39.46875 C 54.167969 39.386719 53.847656 39.570312 53.757812 39.882812 C 53.621094 40.5 53.5 41.125 53.304688 41.726562 C 53.289062 41.773438 53.273438 41.816406 53.253906 41.863281 C 53.210938 41.988281 53.3125 41.761719 53.25 41.871094 C 53.195312 41.96875 53.140625 42.058594 53.082031 42.148438 C 53.015625 42.253906 53.148438 42.082031 53.058594 42.183594 C 53.027344 42.21875 52.996094 42.257812 52.960938 42.296875 C 52.886719 42.378906 52.804688 42.457031 52.722656 42.527344 C 52.707031 42.542969 52.589844 42.636719 52.636719 42.601562 C 52.671875 42.574219 52.535156 42.675781 52.515625 42.691406 C 52.421875 42.757812 52.324219 42.820312 52.222656 42.878906 C 52.109375 42.949219 51.992188 43.011719 51.871094 43.070312 C 51.757812 43.128906 51.632812 43.1875 51.570312 43.210938 C 50.980469 43.445312 50.367188 43.617188 49.742188 43.71875 C 49.429688 43.804688 49.246094 44.128906 49.332031 44.445312 C 49.421875 44.757812 49.742188 44.9375 50.054688 44.859375 Z M 50.054688 44.859375 "/>
<path style=" stroke:none;fill-rule:nonzero;fill:rgb(12.941176%,9.019608%,8.235294%);fill-opacity:1;" d="M 62.324219 40.171875 C 62.441406 40.832031 62.597656 41.488281 62.789062 42.132812 C 62.964844 42.613281 63.257812 43.039062 63.644531 43.367188 C 64.609375 44.21875 65.894531 44.644531 67.140625 44.859375 C 67.453125 44.9375 67.769531 44.753906 67.863281 44.445312 C 67.945312 44.132812 67.765625 43.808594 67.453125 43.71875 C 66.828125 43.617188 66.214844 43.449219 65.625 43.210938 C 65.558594 43.183594 65.460938 43.140625 65.351562 43.085938 C 65.222656 43.023438 65.097656 42.953125 64.972656 42.878906 C 64.871094 42.820312 64.773438 42.757812 64.679688 42.691406 C 64.632812 42.660156 64.585938 42.625 64.542969 42.589844 C 64.632812 42.660156 64.488281 42.542969 64.472656 42.53125 C 64.390625 42.457031 64.308594 42.378906 64.234375 42.296875 C 64.199219 42.257812 64.167969 42.222656 64.136719 42.183594 C 64.03125 42.066406 64.191406 42.277344 64.109375 42.152344 C 64.054688 42.066406 64.003906 41.980469 63.953125 41.894531 C 63.875 41.753906 63.976562 41.976562 63.9375 41.863281 C 63.921875 41.816406 63.90625 41.769531 63.890625 41.722656 C 63.703125 41.117188 63.59375 40.480469 63.457031 39.855469 C 63.367188 39.542969 63.046875 39.355469 62.734375 39.441406 C 62.421875 39.53125 62.234375 39.855469 62.324219 40.171875 Z M 62.324219 40.171875 "/>
<path style=" stroke:none;fill-rule:nonzero;fill:rgb(12.941176%,9.019608%,8.235294%);fill-opacity:1;" d="M 4.894531 26.289062 C 6.515625 27.296875 8.132812 28.253906 9.996094 28.730469 C 10.058594 28.746094 10.207031 28.816406 10.265625 28.800781 C 10.171875 28.828125 10.132812 28.71875 10.238281 28.800781 C 10.316406 28.863281 10.40625 28.914062 10.484375 28.976562 C 10.386719 28.902344 10.570312 29.042969 10.585938 29.058594 C 10.632812 29.097656 10.683594 29.136719 10.730469 29.175781 C 10.855469 29.285156 10.984375 29.394531 11.109375 29.503906 C 11.511719 29.832031 11.890625 30.183594 12.242188 30.5625 C 12.746094 31.132812 13.574219 30.292969 13.074219 29.722656 C 12.710938 29.335938 12.324219 28.976562 11.914062 28.644531 C 11.519531 28.296875 11.082031 27.824219 10.570312 27.65625 C 10.132812 27.507812 9.675781 27.421875 9.238281 27.265625 C 8.839844 27.125 8.445312 26.960938 8.0625 26.769531 C 7.171875 26.328125 6.332031 25.792969 5.488281 25.265625 C 4.839844 24.863281 4.25 25.886719 4.894531 26.289062 Z M 4.894531 26.289062 "/>
<path style=" stroke:none;fill-rule:nonzero;fill:rgb(12.941176%,9.019608%,8.235294%);fill-opacity:1;" d="M 48.121094 42.976562 C 46.738281 42.59375 45.371094 42.140625 44.03125 41.617188 C 42.890625 41.175781 41.742188 40.757812 40.703125 40.085938 C 38.84375 38.882812 37.078125 37.511719 35.3125 36.175781 C 32.789062 34.265625 30.285156 32.324219 27.785156 30.382812 C 25.523438 28.625 23.273438 26.867188 21.003906 25.105469 C 20.585938 24.78125 20.167969 24.457031 19.75 24.136719 C 19.570312 24 19.390625 23.859375 19.214844 23.722656 C 18.859375 23.402344 18.316406 23.421875 17.984375 23.769531 C 17.101562 24.613281 16.300781 25.578125 15.492188 26.496094 C 14.683594 27.414062 13.882812 28.351562 13.105469 29.300781 C 12.730469 29.757812 12.355469 30.214844 11.988281 30.675781 C 11.769531 30.914062 11.769531 31.28125 11.988281 31.515625 C 12.738281 32.425781 13.535156 33.292969 14.378906 34.117188 C 15.5625 35.308594 16.777344 36.46875 18.003906 37.621094 C 21.046875 40.472656 24.152344 43.25 27.277344 46.011719 C 30.199219 48.59375 33.140625 51.15625 36.09375 53.699219 C 36.816406 54.324219 37.535156 54.941406 38.199219 55.632812 C 38.675781 56.125 39.140625 56.628906 39.59375 57.148438 C 40.007812 57.578125 40.359375 58.0625 40.640625 58.585938 C 41.289062 59.96875 41.1875 61.644531 41.195312 63.144531 C 41.21875 67.378906 41.1875 71.617188 41.183594 75.855469 C 41.183594 76.386719 41.183594 76.917969 41.183594 77.445312 C 41.183594 78.210938 42.359375 78.210938 42.359375 77.445312 C 42.359375 73.035156 42.386719 68.621094 42.375 64.210938 C 42.375 62.789062 42.417969 61.351562 42.214844 59.941406 C 42.132812 59.3125 41.964844 58.699219 41.714844 58.117188 C 41.433594 57.542969 41.066406 57.011719 40.628906 56.546875 C 39.8125 55.550781 38.921875 54.621094 37.96875 53.761719 C 35.109375 51.300781 32.261719 48.828125 29.429688 46.339844 C 26.238281 43.53125 23.058594 40.703125 19.941406 37.8125 C 17.652344 35.691406 15.3125 33.570312 13.261719 31.210938 C 13.109375 31.035156 12.960938 30.859375 12.816406 30.675781 L 12.816406 31.515625 C 14.320312 29.636719 15.878906 27.796875 17.5 26.019531 C 17.710938 25.789062 17.921875 25.558594 18.136719 25.328125 C 18.363281 25.117188 18.578125 24.890625 18.777344 24.648438 C 18.769531 24.640625 18.476562 24.609375 18.480469 24.640625 C 18.484375 24.660156 18.527344 24.675781 18.542969 24.6875 C 18.578125 24.71875 18.613281 24.746094 18.652344 24.769531 C 18.742188 24.84375 18.835938 24.914062 18.929688 24.984375 C 19.324219 25.289062 19.71875 25.59375 20.109375 25.898438 C 22.328125 27.613281 24.476562 29.296875 26.707031 31.03125 C 29.183594 32.957031 31.667969 34.871094 34.160156 36.777344 C 36.003906 38.175781 37.847656 39.59375 39.769531 40.886719 C 40.683594 41.46875 41.65625 41.960938 42.671875 42.347656 C 43.945312 42.871094 45.246094 43.382812 46.570312 43.777344 C 46.980469 43.902344 47.394531 44.007812 47.808594 44.121094 C 48.539062 44.320312 48.851562 43.175781 48.121094 42.976562 Z M 48.121094 42.976562 "/>
<path style=" stroke:none;fill-rule:nonzero;fill:rgb(12.941176%,9.019608%,8.235294%);fill-opacity:1;" d="M 58.363281 29.800781 C 58.464844 30.164062 58.542969 30.535156 58.605469 30.910156 L 58.582031 30.753906 C 58.589844 30.804688 58.589844 30.855469 58.585938 30.90625 L 58.609375 30.75 C 58.605469 30.773438 58.597656 30.796875 58.589844 30.820312 L 58.652344 30.675781 C 58.644531 30.691406 58.636719 30.707031 58.625 30.722656 L 58.71875 30.601562 C 58.707031 30.613281 58.695312 30.625 58.683594 30.636719 L 58.800781 30.542969 C 58.773438 30.5625 58.742188 30.578125 58.714844 30.589844 L 58.855469 30.53125 C 58.808594 30.550781 58.757812 30.566406 58.707031 30.574219 L 58.863281 30.554688 C 58.816406 30.558594 58.769531 30.558594 58.726562 30.554688 L 58.882812 30.574219 C 58.828125 30.566406 58.777344 30.554688 58.726562 30.546875 C 58.648438 30.523438 58.570312 30.519531 58.492188 30.535156 C 58.414062 30.539062 58.339844 30.566406 58.273438 30.605469 C 57.992188 30.773438 57.898438 31.136719 58.0625 31.417969 C 58.136719 31.554688 58.265625 31.652344 58.414062 31.691406 C 58.535156 31.707031 58.652344 31.738281 58.773438 31.742188 C 58.960938 31.742188 59.140625 31.699219 59.308594 31.613281 C 59.519531 31.515625 59.675781 31.328125 59.734375 31.101562 C 59.773438 30.917969 59.769531 30.730469 59.730469 30.550781 C 59.667969 30.191406 59.585938 29.835938 59.496094 29.484375 C 59.410156 29.171875 59.085938 28.984375 58.773438 29.074219 C 58.464844 29.164062 58.28125 29.484375 58.363281 29.800781 Z M 58.363281 29.800781 "/>
<path style=" stroke:none;fill-rule:nonzero;fill:rgb(12.941176%,9.019608%,8.235294%);fill-opacity:1;" d="M 52.535156 26.648438 C 52.351562 27.25 52.472656 28.636719 53.605469 28.753906 C 55.101562 28.746094 55.179688 27.070312 54.675781 26.28125 C 54.265625 25.636719 53.050781 25.367188 52.535156 26.648438 Z M 52.535156 26.648438 "/>
<path style=" stroke:none;fill-rule:nonzero;fill:rgb(12.941176%,9.019608%,8.235294%);fill-opacity:1;" d="M 64.570312 26.648438 C 64.757812 27.25 64.636719 28.636719 63.503906 28.753906 C 62.003906 28.746094 61.925781 27.070312 62.429688 26.28125 C 62.84375 25.636719 64.054688 25.367188 64.570312 26.648438 Z M 64.570312 26.648438 "/>
<path style=" stroke:none;fill-rule:nonzero;fill:rgb(12.941176%,9.019608%,8.235294%);fill-opacity:1;" d="M 57.824219 35.425781 C 57.578125 35.164062 57.367188 34.871094 57.191406 34.554688 C 57.117188 34.421875 57.054688 34.277344 57.007812 34.132812 C 56.976562 34.042969 56.953125 33.953125 56.9375 33.863281 C 56.910156 33.695312 56.984375 33.648438 56.75 33.871094 C 56.53125 34.082031 56.542969 34.035156 56.691406 34.035156 L 60.703125 34.035156 C 60.867188 34.035156 60.890625 34.089844 60.664062 33.863281 C 60.460938 33.664062 60.507812 33.621094 60.464844 33.796875 C 60.441406 33.902344 60.414062 34.007812 60.386719 34.109375 C 60.214844 34.800781 59.855469 35.425781 59.34375 35.921875 C 59.117188 36.152344 59.121094 36.523438 59.347656 36.753906 C 59.574219 36.984375 59.945312 36.988281 60.175781 36.757812 C 60.820312 36.128906 61.28125 35.335938 61.507812 34.464844 C 61.652344 33.960938 61.820312 33.324219 61.289062 32.988281 C 60.980469 32.789062 60.570312 32.847656 60.21875 32.847656 L 58.019531 32.851562 L 57.019531 32.851562 C 56.644531 32.851562 56.253906 32.816406 55.96875 33.125 C 55.542969 33.589844 55.8125 34.355469 56.03125 34.855469 C 56.273438 35.375 56.597656 35.851562 56.992188 36.265625 C 57.507812 36.828125 58.335938 35.988281 57.824219 35.425781 Z M 57.824219 35.425781 "/>
</g>
</svg>
