<?xml version="1.0" encoding="UTF-8"?>
<svg xmlns="http://www.w3.org/2000/svg" xmlns:xlink="http://www.w3.org/1999/xlink" width="80px" height="73px" viewBox="0 0 80 73" version="1.1">
<g id="surface1">
<path style=" stroke:none;fill-rule:nonzero;fill:rgb(73.72549%,88.627451%,93.72549%);fill-opacity:1;" d="M 5.914062 9.957031 C 5.867188 12.699219 6.117188 28.953125 6.21875 30.46875 C 7.414062 29.648438 20.179688 20.316406 21.492188 19.183594 C 21.492188 17.347656 21.171875 1.792969 21.160156 0.4375 C 20.742188 0.550781 6.417969 9.59375 5.914062 9.957031 Z M 5.914062 9.957031 "/>
<path style=" stroke:none;fill-rule:nonzero;fill:rgb(42.745098%,74.901961%,41.960784%);fill-opacity:1;" d="M 6.191406 27.601562 C 6.152344 25.777344 6.105469 23.175781 6.0625 20.492188 L 7.570312 19.628906 C 7.851562 19.304688 8.390625 19.347656 8.734375 19.601562 C 9.078125 19.855469 9.273438 20.257812 9.472656 20.636719 C 9.671875 21.015625 9.898438 21.410156 10.273438 21.617188 C 10.867188 21.949219 11.609375 21.699219 12.289062 21.757812 C 12.960938 21.816406 13.566406 22.171875 13.949219 22.726562 L 14.960938 23.703125 C 11.121094 26.535156 6.925781 29.585938 6.265625 30.042969 C 6.246094 29.742188 6.21875 28.855469 6.191406 27.601562 Z M 6.191406 27.601562 "/>
<path style=" stroke:none;fill-rule:nonzero;fill:rgb(95.686275%,70.588235%,40.392157%);fill-opacity:1;" d="M 15.59375 7.675781 C 13.960938 8.253906 13.144531 9.753906 13.144531 11.660156 C 13.144531 14.535156 15.351562 14.855469 16.441406 14.519531 C 17.804688 13.972656 18.894531 13.441406 18.894531 10.566406 C 18.894531 8.65625 17.066406 7.246094 15.59375 7.675781 Z M 15.59375 7.675781 "/>
<path style=" stroke:none;fill-rule:nonzero;fill:rgb(13.72549%,9.411765%,8.235294%);fill-opacity:1;" d="M 15.480469 7.257812 C 14.671875 7.539062 13.976562 8.070312 13.492188 8.777344 C 13.023438 9.519531 12.757812 10.378906 12.726562 11.257812 C 12.628906 12.761719 13.128906 14.335938 14.648438 14.886719 C 15.707031 15.269531 16.816406 14.964844 17.738281 14.375 C 19.0625 13.53125 19.414062 11.863281 19.320312 10.375 C 19.199219 8.523438 17.40625 6.726562 15.480469 7.257812 C 14.945312 7.40625 15.171875 8.246094 15.710938 8.09375 C 16.992188 7.742188 18.191406 8.925781 18.421875 10.117188 C 18.480469 10.519531 18.484375 10.929688 18.433594 11.335938 C 18.40625 11.679688 18.34375 12.023438 18.242188 12.355469 C 18.113281 12.808594 17.847656 13.207031 17.484375 13.5 C 17.125 13.761719 16.730469 13.964844 16.3125 14.101562 C 15.96875 14.207031 15.601562 14.222656 15.25 14.152344 C 14.820312 14.078125 14.429688 13.863281 14.140625 13.539062 C 13.757812 13.117188 13.609375 12.484375 13.582031 11.910156 C 13.507812 10.320312 14.121094 8.671875 15.710938 8.09375 C 16.230469 7.90625 16.007812 7.066406 15.480469 7.257812 Z M 15.480469 7.257812 "/>
<path style=" stroke:none;fill-rule:nonzero;fill:rgb(13.72549%,9.411765%,8.235294%);fill-opacity:1;" d="M 7.878906 19.9375 C 8.28125 19.519531 8.777344 20.257812 8.9375 20.550781 C 9.246094 21.109375 9.523438 21.742188 10.132812 22.03125 C 10.769531 22.335938 11.4375 22.171875 12.109375 22.183594 C 12.691406 22.191406 13.234375 22.472656 13.578125 22.945312 C 13.703125 23.144531 13.960938 23.214844 14.167969 23.101562 C 14.375 22.976562 14.441406 22.710938 14.324219 22.503906 C 13.90625 21.894531 13.257812 21.476562 12.527344 21.351562 C 12.148438 21.308594 11.765625 21.308594 11.382812 21.347656 C 11.042969 21.367188 10.65625 21.390625 10.371094 21.164062 C 10.117188 20.921875 9.921875 20.628906 9.785156 20.304688 C 9.632812 19.972656 9.421875 19.667969 9.171875 19.40625 C 8.652344 18.917969 7.796875 18.769531 7.265625 19.320312 C 6.878906 19.722656 7.492188 20.339844 7.878906 19.9375 Z M 7.878906 19.9375 "/>
<path style=" stroke:none;fill-rule:nonzero;fill:rgb(12.941176%,9.019608%,8.235294%);fill-opacity:1;" d="M 5.480469 9.957031 C 5.4375 12.519531 5.5 15.085938 5.535156 17.648438 C 5.578125 20.980469 5.632812 24.308594 5.703125 27.640625 C 5.722656 28.582031 5.722656 29.53125 5.785156 30.46875 C 5.804688 30.773438 6.144531 31.042969 6.4375 30.84375 C 8.234375 29.605469 9.976562 28.285156 11.738281 27 C 14.292969 25.132812 16.835938 23.25 19.375 21.359375 C 20.132812 20.789062 20.898438 20.222656 21.640625 19.625 C 21.8125 19.515625 21.921875 19.328125 21.925781 19.121094 C 21.929688 18.984375 21.921875 18.84375 21.921875 18.707031 C 21.917969 18.269531 21.910156 17.832031 21.902344 17.394531 C 21.855469 14.328125 21.800781 11.265625 21.734375 8.203125 C 21.6875 5.710938 21.632812 3.222656 21.597656 0.734375 C 21.59375 0.632812 21.59375 0.535156 21.59375 0.4375 C 21.59375 0.300781 21.527344 0.175781 21.421875 0.09375 C 21.3125 0.0117188 21.175781 -0.015625 21.046875 0.015625 C 20.839844 0.09375 20.644531 0.199219 20.464844 0.324219 C 20.085938 0.546875 19.710938 0.777344 19.335938 1.003906 C 18.140625 1.734375 16.953125 2.472656 15.765625 3.214844 C 13.078125 4.894531 10.398438 6.582031 7.726562 8.277344 C 7.046875 8.707031 6.351562 9.117188 5.695312 9.582031 C 5.242188 9.902344 5.671875 10.652344 6.128906 10.332031 C 6.671875 9.949219 7.25 9.609375 7.808594 9.253906 C 8.992188 8.5 10.179688 7.75 11.367188 7.003906 C 14.023438 5.324219 16.683594 3.652344 19.359375 2.007812 C 19.820312 1.726562 20.28125 1.441406 20.746094 1.164062 C 20.886719 1.082031 21.03125 0.996094 21.171875 0.917969 C 21.21875 0.890625 21.261719 0.871094 21.304688 0.84375 C 21.40625 0.785156 21.25 0.863281 21.273438 0.855469 L 20.726562 0.4375 C 20.746094 2.578125 20.804688 4.722656 20.84375 6.863281 C 20.90625 10.011719 20.964844 13.15625 21.019531 16.304688 C 21.039062 17.265625 21.058594 18.222656 21.0625 19.183594 L 21.1875 18.875 C 21.09375 18.957031 21 19.03125 20.90625 19.105469 C 20.84375 19.152344 20.785156 19.199219 20.726562 19.246094 C 20.691406 19.273438 20.65625 19.300781 20.625 19.328125 L 20.558594 19.378906 C 20.148438 19.695312 19.734375 20.007812 19.324219 20.316406 C 18.167969 21.1875 17.007812 22.050781 15.839844 22.910156 C 13.300781 24.785156 10.757812 26.652344 8.203125 28.507812 C 7.46875 29.039062 6.742188 29.582031 6 30.09375 L 6.648438 30.472656 C 6.597656 29.679688 6.59375 28.886719 6.578125 28.09375 C 6.542969 26.613281 6.515625 25.132812 6.492188 23.652344 C 6.429688 20.238281 6.386719 16.824219 6.351562 13.414062 C 6.34375 12.261719 6.324219 11.105469 6.34375 9.957031 C 6.355469 9.394531 5.488281 9.394531 5.480469 9.957031 Z M 5.480469 9.957031 "/>
<path style=" stroke:none;fill-rule:nonzero;fill:rgb(12.941176%,9.019608%,8.235294%);fill-opacity:1;" d="M 15.015625 16.507812 C 15 16.773438 15.003906 17.039062 14.988281 17.304688 C 14.988281 17.480469 15.09375 17.640625 15.253906 17.707031 C 15.414062 17.773438 15.601562 17.738281 15.726562 17.613281 C 15.804688 17.527344 15.847656 17.417969 15.851562 17.304688 C 15.867188 17.039062 15.867188 16.773438 15.882812 16.507812 C 15.882812 16.332031 15.773438 16.175781 15.613281 16.105469 C 15.453125 16.039062 15.265625 16.078125 15.140625 16.199219 C 15.066406 16.285156 15.019531 16.394531 15.015625 16.507812 Z M 15.015625 16.507812 "/>
<path style=" stroke:none;fill-rule:nonzero;fill:rgb(12.941176%,9.019608%,8.235294%);fill-opacity:1;" d="M 18.128906 16.042969 C 18.214844 16.269531 18.320312 16.488281 18.414062 16.714844 L 18.371094 16.609375 C 18.394531 16.664062 18.417969 16.722656 18.4375 16.78125 C 18.472656 16.886719 18.542969 16.980469 18.636719 17.042969 C 18.738281 17.101562 18.859375 17.117188 18.96875 17.085938 C 19.078125 17.054688 19.171875 16.984375 19.230469 16.886719 C 19.289062 16.785156 19.304688 16.664062 19.273438 16.550781 C 19.179688 16.292969 19.058594 16.046875 18.953125 15.796875 L 18.996094 15.902344 C 18.984375 15.871094 18.972656 15.84375 18.960938 15.8125 C 18.929688 15.707031 18.859375 15.613281 18.765625 15.554688 C 18.558594 15.429688 18.292969 15.5 18.171875 15.707031 C 18.113281 15.808594 18.097656 15.929688 18.128906 16.042969 Z M 18.128906 16.042969 "/>
<path style=" stroke:none;fill-rule:nonzero;fill:rgb(12.941176%,9.019608%,8.235294%);fill-opacity:1;" d="M 12.144531 15.15625 C 11.949219 15.367188 11.734375 15.558594 11.539062 15.765625 C 11.460938 15.851562 11.414062 15.960938 11.410156 16.074219 C 11.414062 16.1875 11.460938 16.296875 11.539062 16.382812 C 11.617188 16.460938 11.730469 16.507812 11.84375 16.507812 C 11.957031 16.507812 12.066406 16.460938 12.148438 16.382812 C 12.347656 16.171875 12.5625 15.980469 12.757812 15.769531 C 12.835938 15.6875 12.882812 15.578125 12.882812 15.460938 C 12.886719 15.40625 12.875 15.347656 12.84375 15.296875 C 12.828125 15.242188 12.796875 15.191406 12.757812 15.15625 C 12.675781 15.074219 12.566406 15.027344 12.453125 15.027344 C 12.335938 15.027344 12.226562 15.074219 12.144531 15.15625 Z M 12.144531 15.15625 "/>
<path style=" stroke:none;fill-rule:nonzero;fill:rgb(12.941176%,9.019608%,8.235294%);fill-opacity:1;" d="M 10.523438 13.414062 C 10.765625 13.320312 11.007812 13.234375 11.253906 13.152344 C 11.363281 13.121094 11.453125 13.046875 11.515625 12.953125 C 11.570312 12.851562 11.585938 12.730469 11.554688 12.617188 C 11.527344 12.507812 11.453125 12.414062 11.351562 12.355469 C 11.253906 12.296875 11.136719 12.285156 11.023438 12.3125 C 10.78125 12.398438 10.535156 12.480469 10.292969 12.574219 C 10.1875 12.609375 10.09375 12.679688 10.035156 12.773438 C 9.914062 12.980469 9.984375 13.246094 10.1875 13.367188 C 10.289062 13.429688 10.410156 13.445312 10.523438 13.410156 Z M 10.523438 13.414062 "/>
<path style=" stroke:none;fill-rule:nonzero;fill:rgb(100%,100%,100%);fill-opacity:1;" d="M 79.625 58.71875 C 75.753906 62.792969 71.21875 67.453125 68.621094 70.175781 C 68.621094 70.175781 68.5625 70.238281 68.457031 70.347656 C 68.476562 70.183594 68.492188 70.007812 68.507812 69.816406 C 68.632812 67.945312 68.019531 63.199219 67.902344 62.507812 C 67.867188 62.316406 67.835938 62.136719 67.800781 61.957031 C 67.652344 61.160156 67.433594 60.382812 67.148438 59.625 C 67.140625 59.605469 67.132812 59.585938 67.125 59.566406 C 66.554688 58.050781 65.765625 56.726562 64.699219 55.125 C 62.601562 51.972656 59.460938 48.40625 55.765625 45.855469 C 54.859375 45.230469 53.664062 44.425781 52.296875 43.589844 C 48.988281 41.570312 44.65625 39.386719 40.867188 39.191406 C 39.808594 39.125 38.753906 38.988281 37.710938 38.785156 C 33.929688 38.085938 29.449219 36.695312 25.507812 36.050781 L 25.503906 36.050781 C 24.84375 35.910156 24.179688 35.8125 23.507812 35.75 C 22.914062 35.699219 22.320312 35.683594 21.722656 35.699219 C 26.640625 31.835938 33.46875 26.308594 35.773438 24.648438 C 37.113281 25.203125 42.6875 27.722656 48.605469 30.496094 L 57.46875 35.511719 C 61.425781 37.414062 64.984375 39.160156 67.148438 40.304688 C 69.167969 41.363281 77.617188 45.375 79.570312 46.582031 C 79.570312 49.398438 79.578125 55.355469 79.625 58.542969 C 79.625 58.542969 79.625 58.601562 79.625 58.71875 Z M 79.625 58.71875 "/>
<path style=" stroke:none;fill-rule:nonzero;fill:rgb(82.745098%,81.960784%,81.568627%);fill-opacity:1;" d="M 36.832031 10.5625 C 36.5625 10.527344 36.289062 10.609375 36.085938 10.792969 C 35.882812 10.972656 35.769531 11.234375 35.773438 11.507812 C 35.773438 14.378906 35.773438 21.636719 35.773438 24.648438 C 37.113281 25.203125 42.691406 27.722656 48.609375 30.496094 L 57.46875 35.511719 C 61.425781 37.414062 64.984375 39.164062 67.152344 40.304688 C 69.167969 41.367188 77.636719 45.382812 79.578125 46.585938 C 79.578125 42.855469 79.597656 33.855469 79.597656 30.214844 C 79.605469 29.527344 79.222656 28.894531 78.609375 28.585938 C 72.335938 25.667969 45.125 13.792969 37.015625 10.613281 C 36.957031 10.589844 36.894531 10.574219 36.832031 10.5625 Z M 36.832031 10.5625 "/>
<path style=" stroke:none;fill-rule:nonzero;fill:rgb(12.941176%,9.019608%,8.235294%);fill-opacity:1;" d="M 55.257812 34.742188 C 59.132812 36.601562 62.953125 38.585938 66.757812 40.585938 C 69.550781 42.058594 72.417969 43.382812 75.238281 44.792969 C 76.621094 45.480469 78.035156 46.148438 79.351562 46.957031 L 79.136719 46.582031 C 79.136719 50.007812 79.140625 53.433594 79.171875 56.859375 C 79.175781 57.253906 79.179688 57.648438 79.183594 58.039062 C 79.207031 58.199219 79.203125 58.363281 79.171875 58.519531 C 79.101562 58.695312 78.859375 58.871094 78.730469 59.007812 C 78.039062 59.746094 77.339844 60.476562 76.640625 61.210938 C 75.214844 62.703125 73.789062 64.1875 72.355469 65.671875 C 71.007812 67.070312 69.660156 68.46875 68.3125 69.871094 C 67.929688 70.273438 68.539062 70.890625 68.925781 70.484375 C 71.875 67.394531 74.859375 64.339844 77.804688 61.246094 C 78.203125 60.828125 78.601562 60.40625 78.996094 59.988281 C 79.335938 59.628906 79.855469 59.238281 80.003906 58.75 C 80.132812 58.339844 80.046875 57.8125 80.042969 57.382812 C 80.039062 56.929688 80.03125 56.46875 80.03125 56.015625 C 80.015625 53.9375 80.007812 51.859375 80.003906 49.785156 C 80.003906 48.898438 80.003906 48.015625 80 47.128906 C 80 46.957031 80.011719 46.78125 80 46.609375 C 79.988281 46.394531 79.855469 46.207031 79.65625 46.128906 C 79.460938 46.011719 79.257812 45.898438 79.058594 45.785156 C 77.796875 45.09375 76.503906 44.453125 75.210938 43.8125 C 72.609375 42.515625 69.96875 41.292969 67.394531 39.945312 C 63.960938 38.144531 60.519531 36.355469 57.039062 34.644531 C 56.59375 34.425781 56.144531 34.207031 55.695312 33.992188 C 55.195312 33.753906 54.753906 34.5 55.257812 34.742188 Z M 55.257812 34.742188 "/>
<path style=" stroke:none;fill-rule:nonzero;fill:rgb(12.941176%,9.019608%,8.235294%);fill-opacity:1;" d="M 22.207031 35.867188 C 26.140625 32.773438 30.027344 29.617188 33.980469 26.546875 C 34.644531 26.03125 35.308594 25.515625 35.992188 25.023438 L 35.65625 25.066406 L 35.765625 25.109375 C 35.78125 25.117188 35.796875 25.125 35.8125 25.132812 C 35.914062 25.171875 36.011719 25.214844 36.109375 25.257812 C 36.351562 25.363281 36.597656 25.472656 36.84375 25.578125 C 37.515625 25.878906 38.1875 26.179688 38.859375 26.480469 C 40.773438 27.34375 42.679688 28.214844 44.578125 29.097656 C 45.851562 29.6875 47.121094 30.277344 48.390625 30.875 C 48.597656 30.988281 48.855469 30.917969 48.980469 30.71875 C 49.101562 30.511719 49.03125 30.246094 48.824219 30.125 C 44.71875 28.195312 40.605469 26.257812 36.4375 24.464844 C 36.160156 24.34375 35.816406 24.113281 35.523438 24.292969 C 35.277344 24.445312 35.046875 24.644531 34.816406 24.816406 C 34.167969 25.308594 33.527344 25.808594 32.886719 26.308594 C 31.179688 27.636719 29.492188 28.984375 27.796875 30.332031 C 25.734375 31.976562 23.664062 33.617188 21.59375 35.253906 C 21.429688 35.421875 21.429688 35.699219 21.59375 35.867188 C 21.765625 36.03125 22.035156 36.03125 22.207031 35.867188 Z M 22.207031 35.867188 "/>
<path style=" stroke:none;fill-rule:nonzero;fill:rgb(12.941176%,9.019608%,8.235294%);fill-opacity:1;" d="M 68.351562 57.753906 C 70.96875 55.347656 73.507812 52.863281 76.09375 50.425781 C 76.648438 49.902344 77.203125 49.382812 77.765625 48.871094 C 78.179688 48.496094 77.570312 47.882812 77.15625 48.253906 C 74.632812 50.535156 72.210938 52.933594 69.738281 55.269531 C 69.078125 55.898438 68.410156 56.519531 67.742188 57.140625 C 67.328125 57.515625 67.941406 58.132812 68.351562 57.753906 Z M 68.351562 57.753906 "/>
<path style=" stroke:none;fill-rule:nonzero;fill:rgb(12.941176%,9.019608%,8.235294%);fill-opacity:1;" d="M 40.132812 12.339844 C 43.683594 13.804688 47.214844 15.3125 50.742188 16.824219 C 54.875 18.59375 59 20.378906 63.121094 22.179688 C 66.710938 23.75 70.300781 25.332031 73.882812 26.921875 C 75.09375 27.464844 76.304688 28.007812 77.515625 28.5625 C 78.109375 28.832031 78.832031 29.042969 79.078125 29.71875 C 79.21875 30.113281 79.164062 30.570312 79.164062 30.984375 C 79.164062 31.421875 79.164062 31.855469 79.164062 32.292969 C 79.15625 36.628906 79.148438 40.96875 79.140625 45.304688 C 79.140625 45.695312 79.140625 46.082031 79.140625 46.472656 C 79.140625 47.03125 80.007812 47.03125 80.007812 46.472656 C 80.007812 42.175781 80.015625 37.882812 80.027344 33.589844 C 80.027344 32.667969 80.027344 31.75 80.03125 30.832031 C 80.03125 30.351562 80.054688 29.871094 79.882812 29.417969 C 79.679688 28.863281 79.269531 28.417969 78.738281 28.171875 C 77.664062 27.667969 76.582031 27.1875 75.5 26.703125 C 72.0625 25.160156 68.617188 23.636719 65.160156 22.132812 C 60.992188 20.308594 56.820312 18.496094 52.640625 16.699219 C 48.929688 15.105469 45.210938 13.515625 41.476562 11.964844 C 41.105469 11.808594 40.734375 11.65625 40.363281 11.5 C 40.132812 11.4375 39.898438 11.574219 39.832031 11.804688 C 39.773438 12.035156 39.90625 12.273438 40.132812 12.339844 Z M 40.132812 12.339844 "/>
<path style=" stroke:none;fill-rule:nonzero;fill:rgb(12.941176%,9.019608%,8.235294%);fill-opacity:1;" d="M 36.203125 24.648438 C 36.203125 22.441406 36.203125 20.234375 36.203125 18.027344 C 36.203125 16.792969 36.203125 15.5625 36.203125 14.332031 C 36.203125 13.394531 36.152344 12.441406 36.203125 11.507812 C 36.203125 11.242188 36.398438 11.019531 36.65625 10.984375 C 36.804688 10.992188 36.945312 11.03125 37.074219 11.101562 C 37.25 11.167969 37.421875 11.238281 37.59375 11.308594 C 38.445312 11.644531 39.289062 11.992188 40.132812 12.339844 C 40.363281 12.402344 40.601562 12.265625 40.664062 12.035156 C 40.722656 11.804688 40.589844 11.570312 40.363281 11.5 C 39.570312 11.175781 38.777344 10.851562 37.980469 10.53125 C 37.34375 10.273438 36.664062 9.898438 36 10.3125 C 35.703125 10.5 35.480469 10.796875 35.386719 11.136719 C 35.335938 11.386719 35.320312 11.640625 35.335938 11.894531 L 35.335938 21.046875 C 35.335938 22.246094 35.335938 23.445312 35.335938 24.648438 C 35.335938 25.207031 36.203125 25.207031 36.203125 24.648438 Z M 36.203125 24.648438 "/>
<path style=" stroke:none;fill-rule:nonzero;fill:rgb(12.941176%,9.019608%,8.235294%);fill-opacity:1;" d="M 31.34375 37.09375 C 31.925781 35.90625 32.671875 34.800781 33.5625 33.820312 C 34.152344 33.179688 34.757812 32.554688 35.394531 31.960938 C 36.136719 31.269531 36.945312 30.511719 37.96875 30.296875 C 39.101562 30.054688 40.203125 30.433594 41.183594 30.988281 C 42.273438 31.601562 43.390625 32.167969 44.507812 32.726562 C 45.003906 32.976562 45.441406 32.230469 44.945312 31.976562 C 43.890625 31.449219 42.835938 30.917969 41.808594 30.34375 C 40.703125 29.726562 39.558594 29.253906 38.265625 29.378906 C 37.648438 29.429688 37.050781 29.625 36.519531 29.949219 C 36.070312 30.242188 35.644531 30.566406 35.246094 30.925781 C 34.496094 31.59375 33.78125 32.296875 33.105469 33.039062 C 32.101562 34.117188 31.257812 35.335938 30.597656 36.65625 C 30.347656 37.15625 31.09375 37.59375 31.34375 37.09375 Z M 31.34375 37.09375 "/>
<path style=" stroke:none;fill-rule:nonzero;fill:rgb(12.941176%,9.019608%,8.235294%);fill-opacity:1;" d="M 54.617188 37.121094 C 55.964844 37.824219 57.28125 38.59375 58.59375 39.363281 C 60.117188 40.253906 61.640625 41.164062 63.140625 42.097656 C 64.414062 42.847656 65.59375 43.738281 66.671875 44.75 C 67.730469 45.796875 68.023438 47.554688 67.589844 49.042969 C 67.414062 49.632812 67.152344 50.191406 66.8125 50.703125 C 66.667969 50.925781 66.515625 51.140625 66.355469 51.351562 C 66.429688 51.25 66.296875 51.414062 66.273438 51.441406 C 66.21875 51.503906 66.164062 51.566406 66.109375 51.628906 C 65.378906 52.4375 64.585938 53.183594 63.738281 53.863281 C 63.570312 54.035156 63.570312 54.308594 63.738281 54.480469 C 63.90625 54.644531 64.175781 54.644531 64.347656 54.480469 C 65.140625 53.839844 65.886719 53.144531 66.578125 52.398438 C 67.207031 51.738281 67.722656 50.976562 68.101562 50.144531 C 68.863281 48.417969 68.867188 46.382812 67.8125 44.769531 C 67.386719 44.121094 66.738281 43.621094 66.136719 43.140625 C 65.535156 42.65625 64.910156 42.199219 64.265625 41.777344 C 62.8125 40.851562 61.332031 39.96875 59.851562 39.09375 C 58.269531 38.160156 56.683594 37.21875 55.050781 36.371094 C 54.558594 36.113281 54.121094 36.863281 54.617188 37.121094 Z M 54.617188 37.121094 "/>
<path style=" stroke:none;fill-rule:nonzero;fill:rgb(12.941176%,9.019608%,8.235294%);fill-opacity:1;" d="M 62.925781 24.988281 C 66.890625 26.722656 70.867188 28.445312 74.8125 30.234375 C 75.242188 30.429688 75.671875 30.621094 76.097656 30.832031 C 76.59375 31.082031 77.03125 30.328125 76.53125 30.082031 C 75.535156 29.582031 74.503906 29.148438 73.488281 28.691406 C 71.515625 27.8125 69.539062 26.941406 67.5625 26.078125 C 66.160156 25.464844 64.761719 24.851562 63.359375 24.238281 C 63.152344 24.125 62.894531 24.191406 62.769531 24.394531 C 62.648438 24.601562 62.71875 24.867188 62.925781 24.988281 Z M 62.925781 24.988281 "/>
<path style=" stroke:none;fill-rule:nonzero;fill:rgb(100%,100%,100%);fill-opacity:1;" d="M 62.757812 15.382812 C 63.199219 14.671875 63.835938 14.113281 64.441406 13.53125 C 64.90625 13.085938 65.375 12.582031 65.503906 11.949219 C 65.546875 11.546875 65.558594 11.140625 65.535156 10.734375 C 65.605469 9.253906 66.601562 7.980469 68.015625 7.558594 C 68.585938 7.398438 69.382812 7.488281 69.84375 7.867188 C 70.050781 8.019531 70.15625 8.273438 70.117188 8.523438 C 70.429688 8.398438 70.78125 8.449219 71.054688 8.648438 C 71.320312 8.855469 71.46875 9.183594 71.433594 9.519531 C 71.699219 9.4375 71.988281 9.480469 72.214844 9.640625 C 72.441406 9.816406 72.5 10.132812 72.347656 10.375 C 72.714844 10.441406 72.992188 10.742188 73.027344 11.113281 C 73.046875 11.484375 72.867188 11.835938 72.5625 12.039062 C 72.460938 12.109375 72.351562 12.160156 72.234375 12.199219 C 72.214844 12.359375 72.203125 12.457031 72.203125 12.457031 C 72.125 12.851562 71.886719 13.195312 71.546875 13.410156 C 71.152344 13.695312 70.695312 13.882812 70.210938 13.953125 C 70.015625 13.960938 69.820312 14.015625 69.648438 14.113281 C 69.476562 14.226562 69.320312 14.363281 69.1875 14.519531 C 68.765625 15.050781 67.652344 16.597656 67.316406 17.195312 L 66.71875 18.09375 Z M 62.757812 15.382812 "/>
<path style=" stroke:none;fill-rule:nonzero;fill:rgb(13.72549%,9.411765%,8.235294%);fill-opacity:1;" d="M 68.710938 11.105469 C 68.644531 11.121094 68.578125 11.144531 68.511719 11.171875 C 68.3125 11.242188 68.132812 11.351562 67.972656 11.488281 C 67.917969 11.53125 67.867188 11.582031 67.816406 11.636719 C 67.738281 11.71875 67.691406 11.828125 67.6875 11.945312 C 67.691406 12.058594 67.734375 12.167969 67.816406 12.25 C 67.984375 12.421875 68.257812 12.421875 68.429688 12.25 C 68.480469 12.191406 68.539062 12.136719 68.601562 12.085938 L 68.515625 12.15625 C 68.613281 12.082031 68.71875 12.019531 68.832031 11.972656 L 68.726562 12.015625 C 68.796875 11.984375 68.871094 11.960938 68.945312 11.945312 C 69.054688 11.914062 69.148438 11.839844 69.203125 11.738281 C 69.261719 11.640625 69.277344 11.519531 69.246094 11.410156 C 69.214844 11.300781 69.144531 11.207031 69.046875 11.148438 C 68.945312 11.09375 68.828125 11.078125 68.714844 11.105469 Z M 68.710938 11.105469 "/>
<path style=" stroke:none;fill-rule:nonzero;fill:rgb(13.72549%,9.411765%,8.235294%);fill-opacity:1;" d="M 70.21875 8.949219 C 70.402344 8.863281 70.617188 8.882812 70.777344 9.003906 C 70.941406 9.121094 71.027344 9.320312 71 9.519531 C 71.003906 9.65625 71.066406 9.78125 71.171875 9.863281 C 71.28125 9.945312 71.421875 9.972656 71.550781 9.941406 C 71.683594 9.890625 71.828125 9.90625 71.949219 9.980469 C 71.976562 10 71.996094 10.03125 72 10.0625 C 72.007812 10.097656 71.996094 10.132812 71.976562 10.15625 C 71.90625 10.273438 71.898438 10.414062 71.949219 10.539062 C 72 10.664062 72.105469 10.757812 72.234375 10.796875 C 72.773438 10.882812 72.632812 11.535156 72.226562 11.734375 C 71.820312 11.9375 70.964844 11.824219 71.035156 11.222656 C 71.035156 11.089844 70.96875 10.960938 70.863281 10.878906 C 70.757812 10.796875 70.617188 10.773438 70.484375 10.804688 C 70.328125 10.867188 70.050781 10.828125 70.082031 10.589844 C 70.117188 10.441406 70.074219 10.28125 69.964844 10.171875 C 69.855469 10.0625 69.699219 10.019531 69.550781 10.054688 C 69.394531 10.058594 69.253906 9.957031 69.207031 9.808594 C 69.085938 9.601562 68.820312 9.535156 68.613281 9.652344 C 68.414062 9.777344 68.34375 10.039062 68.460938 10.25 C 68.703125 10.742188 69.246094 11.003906 69.78125 10.890625 L 69.25 10.359375 C 69.171875 10.757812 69.304688 11.167969 69.601562 11.4375 C 69.910156 11.703125 70.335938 11.78125 70.714844 11.644531 L 70.167969 11.222656 C 70.097656 11.835938 70.539062 12.347656 71.074219 12.5625 C 71.613281 12.777344 72.21875 12.738281 72.722656 12.453125 C 73.210938 12.167969 73.496094 11.625 73.453125 11.058594 C 73.398438 10.515625 72.996094 10.066406 72.464844 9.957031 L 72.722656 10.59375 C 72.953125 10.210938 72.894531 9.714844 72.582031 9.390625 C 72.242188 9.078125 71.761719 8.964844 71.320312 9.101562 L 71.867188 9.519531 C 71.890625 9.046875 71.675781 8.597656 71.300781 8.3125 C 70.921875 8.03125 70.433594 7.953125 69.988281 8.109375 C 69.761719 8.179688 69.628906 8.414062 69.6875 8.644531 C 69.75 8.875 69.988281 9.011719 70.21875 8.949219 Z M 70.21875 8.949219 "/>
<path style=" stroke:none;fill-rule:nonzero;fill:rgb(13.72549%,9.411765%,8.235294%);fill-opacity:1;" d="M 63.132812 15.605469 C 63.652344 14.78125 64.4375 14.199219 65.089844 13.492188 C 65.421875 13.15625 65.679688 12.757812 65.847656 12.316406 C 66.03125 11.800781 65.953125 11.269531 65.96875 10.734375 C 66.011719 9.285156 67.390625 7.675781 68.933594 7.945312 C 69.199219 7.988281 69.785156 8.144531 69.671875 8.515625 C 69.546875 8.9375 68.992188 9.113281 68.609375 9.046875 C 68.378906 8.992188 68.144531 9.125 68.078125 9.351562 C 68.015625 9.582031 68.148438 9.820312 68.378906 9.886719 C 68.945312 10.003906 69.539062 9.863281 69.992188 9.492188 C 70.421875 9.179688 70.628906 8.636719 70.515625 8.113281 C 70.21875 7.066406 68.695312 6.898438 67.824219 7.160156 C 66.339844 7.632812 65.273438 8.945312 65.117188 10.503906 C 65.058594 11.078125 65.222656 11.683594 64.953125 12.222656 C 64.675781 12.777344 64.171875 13.1875 63.730469 13.609375 C 63.21875 14.070312 62.769531 14.59375 62.386719 15.164062 C 62.085938 15.640625 62.835938 16.078125 63.132812 15.605469 Z M 63.132812 15.605469 "/>
<path style=" stroke:none;fill-rule:nonzero;fill:rgb(13.72549%,9.411765%,8.235294%);fill-opacity:1;" d="M 71.785156 12.339844 C 71.683594 12.996094 70.914062 13.355469 70.335938 13.492188 C 69.960938 13.578125 69.636719 13.585938 69.316406 13.824219 C 69.09375 13.992188 68.894531 14.191406 68.726562 14.414062 C 68.074219 15.222656 67.476562 16.078125 66.941406 16.972656 C 66.664062 17.457031 67.410156 17.898438 67.6875 17.410156 C 67.941406 16.96875 68.242188 16.546875 68.535156 16.132812 C 68.707031 15.886719 68.882812 15.644531 69.058594 15.40625 C 69.132812 15.304688 69.203125 15.207031 69.277344 15.109375 C 69.347656 15.015625 69.398438 14.949219 69.4375 14.902344 C 69.578125 14.679688 69.789062 14.511719 70.03125 14.421875 C 70.398438 14.359375 70.753906 14.269531 71.101562 14.152344 C 71.773438 13.871094 72.5 13.34375 72.617188 12.574219 C 72.675781 12.339844 72.542969 12.109375 72.316406 12.039062 C 72.085938 11.976562 71.851562 12.109375 71.785156 12.339844 Z M 71.785156 12.339844 "/>
<path style=" stroke:none;fill-rule:nonzero;fill:rgb(47.45098%,77.647059%,87.843137%);fill-opacity:1;" d="M 43.761719 24.472656 C 43.203125 25.058594 42.75 24.90625 42.796875 25.59375 C 42.832031 26.039062 43.136719 26.367188 43.382812 26.742188 C 43.804688 27.375 44.554688 27.707031 45.304688 27.835938 C 47.402344 28.210938 50.363281 27.230469 50.71875 25.640625 C 51.566406 25.320312 52.332031 24.96875 52.714844 24.65625 C 57.183594 21.0625 59.328125 18.730469 63.082031 14.058594 C 64.222656 15.207031 66.183594 16.785156 67.371094 18.011719 C 65.613281 20.660156 59.8125 28.1875 56.238281 32.078125 C 55.457031 32.929688 55.148438 34.074219 54.8125 35.960938 C 54.25 38.699219 53.671875 41.554688 53.214844 44.160156 C 52.917969 43.972656 52.613281 43.78125 52.296875 43.589844 C 48.984375 41.570312 44.652344 39.382812 40.867188 39.191406 C 39.804688 39.125 38.753906 38.988281 37.710938 38.785156 C 37.929688 37.488281 38.039062 36.175781 38.039062 34.863281 C 38.054688 33.640625 38.1875 30.132812 38.371094 27.847656 L 38.171875 27.542969 C 36.378906 24.773438 33.746094 19.214844 31.808594 14.246094 C 31.777344 14.191406 31.761719 14.128906 31.761719 14.066406 C 31.773438 13.972656 31.867188 13.910156 31.949219 13.863281 C 33.535156 12.964844 34.683594 12.382812 36.269531 11.484375 C 36.820312 12.777344 38.386719 16.164062 39.167969 17.523438 C 39.941406 18.875 41.214844 20.996094 42.226562 22.375 C 42.226562 22.375 42.460938 22.175781 42.785156 21.902344 C 43.238281 22.488281 43.804688 22.980469 44.445312 23.351562 C 44.304688 23.75 44.109375 24.125 43.867188 24.46875 "/>
<path style=" stroke:none;fill-rule:nonzero;fill:rgb(100%,100%,100%);fill-opacity:1;" d="M 44.058594 13.015625 C 42.9375 13.6875 41.996094 14.261719 41.769531 14.40625 L 41.4375 14.613281 C 40.460938 19.820312 42.859375 22.609375 44.753906 23.515625 C 46.421875 24.316406 49.59375 24.160156 51.542969 22.710938 C 51.996094 22.367188 52.40625 21.972656 52.765625 21.53125 C 52.886719 21.371094 53.003906 21.199219 53.109375 21.023438 C 53.171875 21.039062 53.210938 21.046875 53.210938 21.046875 C 53.46875 21.089844 53.734375 21.074219 53.984375 21 C 54.277344 20.90625 54.542969 20.746094 54.765625 20.539062 C 55.195312 20.152344 55.492188 19.640625 55.613281 19.074219 C 55.726562 18.667969 55.507812 18.246094 55.113281 18.113281 C 54.742188 17.941406 54.253906 17.992188 54.070312 18.28125 C 53.960938 16.398438 53.113281 14.640625 51.710938 13.390625 C 51.496094 13.199219 51.25 12.992188 51.21875 12.707031 C 51.179688 12.402344 51.398438 12.132812 51.527344 11.851562 C 51.65625 11.574219 51.644531 11.148438 51.351562 11.058594 C 50.964844 10.941406 50.4375 11.378906 50.054688 11.492188 C 49.226562 11.8125 47.589844 12.59375 47.480469 12.515625 C 47.40625 12.460938 47.296875 11.265625 47.3125 11.144531 C 46.378906 11.648438 45.136719 12.375 44.058594 13.015625 Z M 44.058594 13.015625 "/>
<path style=" stroke:none;fill-rule:nonzero;fill:rgb(58.431373%,49.803922%,43.137255%);fill-opacity:1;" d="M 47.3125 11.296875 C 47.308594 11.246094 47.308594 11.195312 47.3125 11.144531 C 45.40625 12.175781 42.214844 14.125 41.769531 14.40625 L 41.664062 14.472656 C 41.546875 13.667969 41.511719 12.964844 41.511719 12.964844 C 41.550781 11.636719 41.976562 10.347656 42.738281 9.257812 C 43.554688 8.148438 44.707031 7.328125 46.019531 6.917969 C 45.65625 6.617188 45.265625 6.355469 44.847656 6.136719 C 45.824219 5.730469 47.761719 5.460938 48.945312 5.75 C 50.132812 6.035156 51.867188 6.515625 52.675781 8.179688 C 53.855469 8.289062 55.257812 9.527344 55.660156 10.160156 C 55.945312 10.625 56.164062 11.128906 56.308594 11.652344 C 56.453125 12.234375 56.515625 12.832031 56.492188 13.433594 C 56.5 14.148438 56.410156 14.867188 56.226562 15.558594 C 56.0625 16.183594 55.851562 16.792969 55.59375 17.382812 C 55.5 17.601562 55.390625 17.667969 55.164062 18.136719 C 55.148438 18.125 55.132812 18.117188 55.117188 18.109375 C 54.875 18 54.605469 17.984375 54.351562 18.066406 L 54.074219 18.101562 L 53.988281 17.503906 C 53.714844 15.914062 52.910156 14.464844 51.710938 13.390625 C 51.496094 13.199219 51.25 12.992188 51.21875 12.707031 C 51.179688 12.402344 51.398438 12.132812 51.527344 11.851562 C 51.65625 11.574219 51.644531 11.148438 51.351562 11.058594 C 50.964844 10.941406 50.4375 11.378906 50.054688 11.492188 C 49.226562 11.8125 47.589844 12.59375 47.480469 12.515625 C 47.421875 12.46875 47.335938 11.65625 47.3125 11.296875 Z M 47.3125 11.296875 "/>
<path style=" stroke:none;fill-rule:nonzero;fill:rgb(100%,100%,100%);fill-opacity:1;" d="M 35.664062 11.917969 L 35.15625 10.703125 C 35.101562 10.601562 35.078125 10.488281 35.085938 10.371094 C 35.113281 10.265625 35.164062 10.167969 35.234375 10.082031 C 35.5 9.667969 35.546875 9.148438 35.570312 8.65625 C 35.613281 8.203125 35.59375 7.746094 35.519531 7.296875 C 35.351562 6.476562 34.777344 5.519531 34.03125 5.140625 C 33.6875 4.964844 33.175781 4.855469 32.925781 5.171875 C 32.773438 5.378906 32.71875 5.640625 32.785156 5.886719 L 32.453125 5.835938 C 32.246094 5.484375 31.847656 5.292969 31.445312 5.355469 C 31.042969 5.417969 30.722656 5.722656 30.632812 6.121094 C 30.402344 5.957031 30.109375 5.914062 29.839844 5.996094 C 29.570312 6.097656 29.414062 6.386719 29.488281 6.667969 C 29.113281 6.613281 28.75 6.820312 28.601562 7.171875 C 28.46875 7.523438 28.535156 7.921875 28.769531 8.214844 C 28.789062 8.242188 28.8125 8.269531 28.839844 8.292969 C 28.746094 8.542969 28.683594 8.703125 28.683594 8.703125 C 28.492188 9.210938 29.101562 10.085938 29.359375 10.390625 C 29.71875 10.777344 30.15625 11.074219 30.648438 11.261719 C 30.839844 11.320312 31.015625 11.417969 31.160156 11.558594 C 31.304688 11.710938 31.421875 11.882812 31.515625 12.070312 C 31.800781 12.648438 32.035156 13.25 32.21875 13.867188 Z M 35.664062 11.917969 "/>
<path style=" stroke:none;fill-rule:nonzero;fill:rgb(13.72549%,9.411765%,8.235294%);fill-opacity:1;" d="M 32.824219 5.617188 C 32.53125 5.117188 31.960938 4.84375 31.390625 4.925781 C 30.816406 5.015625 30.351562 5.441406 30.21875 6.003906 L 30.851562 5.746094 C 30.460938 5.480469 29.960938 5.449219 29.539062 5.660156 C 29.148438 5.886719 28.957031 6.34375 29.070312 6.78125 L 29.601562 6.246094 C 29.039062 6.148438 28.476562 6.433594 28.226562 6.953125 C 27.988281 7.511719 28.109375 8.160156 28.53125 8.597656 C 29.273438 9.394531 31.085938 9.449219 31.335938 8.144531 L 30.613281 8.339844 C 30.917969 8.609375 31.34375 8.699219 31.734375 8.574219 C 32.117188 8.441406 32.398438 8.109375 32.472656 7.707031 L 31.835938 7.96875 C 32.339844 8.261719 32.976562 8.140625 33.339844 7.6875 C 33.703125 7.230469 33.679688 6.582031 33.289062 6.152344 C 33.121094 5.980469 32.847656 5.980469 32.679688 6.152344 C 32.515625 6.324219 32.515625 6.59375 32.679688 6.765625 C 32.890625 7.035156 32.53125 7.355469 32.273438 7.21875 C 32.15625 7.152344 32.015625 7.144531 31.890625 7.195312 C 31.769531 7.246094 31.675781 7.351562 31.636719 7.480469 C 31.605469 7.664062 31.421875 7.882812 31.222656 7.726562 C 30.992188 7.542969 30.570312 7.5625 30.5 7.917969 C 30.390625 8.496094 29.558594 8.347656 29.226562 8.066406 C 29.03125 7.914062 28.9375 7.664062 28.976562 7.421875 C 29.015625 7.257812 29.1875 7.0625 29.371094 7.089844 C 29.523438 7.125 29.679688 7.082031 29.789062 6.972656 C 29.898438 6.863281 29.941406 6.703125 29.90625 6.550781 C 29.832031 6.289062 30.3125 6.433594 30.417969 6.496094 C 30.53125 6.566406 30.671875 6.574219 30.796875 6.523438 C 30.921875 6.472656 31.015625 6.367188 31.050781 6.238281 C 31.097656 6.011719 31.277344 5.835938 31.503906 5.796875 C 31.730469 5.757812 31.957031 5.859375 32.078125 6.054688 C 32.375 6.527344 33.121094 6.09375 32.824219 5.617188 Z M 32.824219 5.617188 "/>
<path style=" stroke:none;fill-rule:nonzero;fill:rgb(13.72549%,9.411765%,8.235294%);fill-opacity:1;" d="M 28.265625 8.585938 C 28.101562 9.097656 28.351562 9.652344 28.609375 10.082031 C 28.878906 10.550781 29.25 10.949219 29.695312 11.25 C 29.960938 11.421875 30.242188 11.566406 30.53125 11.679688 C 30.757812 11.765625 30.949219 11.929688 31.0625 12.144531 C 31.386719 12.722656 31.632812 13.339844 31.800781 13.980469 C 31.953125 14.519531 32.789062 14.289062 32.636719 13.75 C 32.453125 13.144531 32.21875 12.550781 31.945312 11.976562 C 31.824219 11.710938 31.664062 11.464844 31.464844 11.25 C 31.25 11.058594 30.996094 10.914062 30.71875 10.824219 C 30.261719 10.632812 29.859375 10.328125 29.546875 9.9375 C 29.347656 9.65625 28.992188 9.15625 29.101562 8.820312 C 29.273438 8.285156 28.4375 8.054688 28.265625 8.585938 Z M 28.265625 8.585938 "/>
<path style=" stroke:none;fill-rule:nonzero;fill:rgb(13.72549%,9.411765%,8.235294%);fill-opacity:1;" d="M 36.078125 11.800781 C 35.917969 11.414062 35.753906 11.027344 35.59375 10.636719 C 35.507812 10.425781 35.515625 10.453125 35.628906 10.261719 C 35.734375 10.082031 35.816406 9.886719 35.871094 9.683594 C 35.957031 9.3125 36.003906 8.933594 36.007812 8.550781 C 36.039062 8.109375 36.019531 7.667969 35.945312 7.234375 C 35.722656 6.046875 34.660156 4.394531 33.269531 4.546875 C 32.851562 4.589844 32.503906 4.882812 32.386719 5.289062 C 32.246094 5.722656 32.386719 6.164062 32.570312 6.5625 C 32.691406 6.765625 32.957031 6.835938 33.164062 6.71875 C 33.363281 6.59375 33.433594 6.332031 33.316406 6.121094 C 33.238281 5.953125 33.070312 5.527344 33.316406 5.414062 C 33.535156 5.316406 33.90625 5.550781 34.070312 5.671875 C 34.585938 6.097656 34.945312 6.683594 35.085938 7.339844 C 35.164062 7.773438 35.183594 8.21875 35.140625 8.65625 C 35.144531 9.015625 35.078125 9.375 34.945312 9.710938 C 34.851562 9.863281 34.765625 10.015625 34.691406 10.179688 C 34.628906 10.390625 34.648438 10.617188 34.738281 10.820312 C 34.898438 11.226562 35.078125 11.628906 35.246094 12.035156 C 35.316406 12.261719 35.546875 12.394531 35.777344 12.339844 C 36.007812 12.273438 36.140625 12.035156 36.082031 11.804688 Z M 36.078125 11.800781 "/>
<path style=" stroke:none;fill-rule:nonzero;fill:rgb(100%,100%,100%);fill-opacity:1;" d="M 42.890625 25.964844 C 42.839844 25.847656 42.808594 25.722656 42.800781 25.59375 C 42.75 24.925781 43.179688 25.050781 43.71875 24.519531 C 44.027344 24.175781 44.273438 23.78125 44.445312 23.351562 C 44.546875 23.414062 44.652344 23.46875 44.757812 23.515625 C 45.910156 24.070312 47.78125 24.167969 49.476562 23.691406 C 49.398438 24.933594 49.410156 25.71875 49.773438 26.898438 C 48.648438 27.703125 46.765625 28.097656 45.304688 27.839844 C 44.554688 27.707031 43.804688 27.378906 43.382812 26.742188 C 43.195312 26.496094 43.03125 26.238281 42.890625 25.964844 Z M 42.890625 25.964844 "/>
<path style=" stroke:none;fill-rule:nonzero;fill:rgb(13.72549%,9.411765%,8.235294%);fill-opacity:1;" d="M 55.230469 36.078125 C 55.355469 35.230469 55.558594 34.394531 55.835938 33.585938 C 56.066406 33.019531 56.40625 32.503906 56.835938 32.066406 C 57.828125 30.96875 58.785156 29.839844 59.726562 28.699219 C 61.746094 26.257812 63.703125 23.765625 65.601562 21.222656 C 66.332031 20.238281 67.066406 19.253906 67.746094 18.230469 C 67.84375 18.058594 67.8125 17.84375 67.679688 17.703125 C 66.320312 16.308594 64.765625 15.128906 63.386719 13.753906 C 63.21875 13.585938 62.945312 13.585938 62.777344 13.753906 C 61.304688 15.582031 59.816406 17.398438 58.203125 19.101562 C 56.675781 20.691406 55.054688 22.191406 53.347656 23.585938 C 52.894531 24 52.394531 24.367188 51.863281 24.675781 C 51.183594 25.011719 50.480469 25.292969 49.757812 25.519531 C 49.234375 25.695312 49.457031 26.535156 49.988281 26.359375 C 50.65625 26.140625 51.316406 25.882812 51.960938 25.59375 C 52.460938 25.355469 52.929688 25.050781 53.355469 24.695312 C 54.300781 23.929688 55.230469 23.144531 56.132812 22.328125 C 57.726562 20.878906 59.234375 19.328125 60.640625 17.6875 C 61.578125 16.601562 62.488281 15.488281 63.386719 14.367188 L 62.777344 14.367188 C 64.152344 15.742188 65.710938 16.921875 67.066406 18.320312 L 67 17.792969 C 65.589844 19.914062 64.007812 21.929688 62.445312 23.9375 C 60.5 26.421875 58.519531 28.886719 56.414062 31.242188 C 55.914062 31.804688 55.433594 32.328125 55.132812 33.03125 C 54.78125 33.941406 54.535156 34.882812 54.398438 35.847656 C 54.339844 36.078125 54.472656 36.3125 54.699219 36.382812 C 54.929688 36.441406 55.167969 36.308594 55.230469 36.078125 Z M 55.230469 36.078125 "/>
<path style=" stroke:none;fill-rule:nonzero;fill:rgb(13.72549%,9.411765%,8.235294%);fill-opacity:1;" d="M 43.457031 24.167969 C 43.210938 24.414062 42.875 24.53125 42.632812 24.78125 C 42.375 25.085938 42.289062 25.5 42.410156 25.882812 C 42.515625 26.328125 42.832031 26.730469 43.105469 27.089844 C 43.371094 27.441406 43.714844 27.722656 44.113281 27.90625 C 45.570312 28.609375 47.445312 28.4375 48.910156 27.84375 C 49.675781 27.53125 50.410156 27.089844 50.871094 26.382812 C 51.175781 25.914062 50.429688 25.480469 50.125 25.945312 C 49.5 26.898438 48.101562 27.304688 47.039062 27.433594 C 46.390625 27.527344 45.734375 27.496094 45.097656 27.347656 C 44.757812 27.269531 44.429688 27.121094 44.144531 26.917969 C 43.878906 26.695312 43.652344 26.421875 43.476562 26.121094 C 43.363281 25.972656 43.28125 25.800781 43.238281 25.621094 C 43.226562 25.558594 43.222656 25.496094 43.230469 25.433594 C 43.238281 25.363281 43.21875 25.417969 43.261719 25.375 C 43.300781 25.339844 43.460938 25.253906 43.546875 25.199219 C 43.734375 25.078125 43.910156 24.9375 44.070312 24.777344 C 44.460938 24.382812 43.851562 23.765625 43.457031 24.164062 Z M 43.457031 24.167969 "/>
<path style=" stroke:none;fill-rule:nonzero;fill:rgb(13.72549%,9.411765%,8.235294%);fill-opacity:1;" d="M 44.027344 23.238281 C 44 23.3125 43.972656 23.386719 43.941406 23.457031 L 43.984375 23.351562 C 43.867188 23.65625 43.714844 23.941406 43.527344 24.207031 L 43.59375 24.117188 C 43.585938 24.132812 43.574219 24.144531 43.5625 24.160156 C 43.484375 24.242188 43.4375 24.351562 43.433594 24.46875 C 43.433594 24.582031 43.480469 24.691406 43.5625 24.773438 C 43.640625 24.855469 43.75 24.902344 43.867188 24.902344 C 43.980469 24.902344 44.09375 24.855469 44.171875 24.773438 C 44.3125 24.601562 44.4375 24.414062 44.535156 24.214844 C 44.65625 23.972656 44.765625 23.726562 44.859375 23.472656 C 44.90625 23.300781 44.847656 23.121094 44.707031 23.011719 C 44.566406 22.902344 44.375 22.890625 44.226562 22.980469 C 44.132812 23.042969 44.0625 23.132812 44.027344 23.238281 Z M 44.027344 23.238281 "/>
<path style=" stroke:none;fill-rule:nonzero;fill:rgb(13.72549%,9.411765%,8.235294%);fill-opacity:1;" d="M 49.023438 23.980469 C 48.960938 24.921875 49.050781 25.867188 49.289062 26.78125 C 49.351562 27.011719 49.589844 27.144531 49.820312 27.082031 C 50.050781 27.019531 50.1875 26.78125 50.121094 26.546875 C 50.003906 26.144531 49.929688 25.730469 49.890625 25.3125 C 49.863281 24.871094 49.863281 24.425781 49.890625 23.980469 C 49.890625 23.742188 49.695312 23.546875 49.457031 23.546875 C 49.21875 23.550781 49.03125 23.742188 49.023438 23.980469 Z M 49.023438 23.980469 "/>
<path style=" stroke:none;fill-rule:nonzero;fill:rgb(12.941176%,9.019608%,8.235294%);fill-opacity:1;" d="M 46.398438 16.640625 C 46.296875 16.796875 46.203125 16.957031 46.117188 17.125 C 46.054688 17.226562 46.023438 17.347656 46.011719 17.464844 C 46.007812 17.625 46.070312 17.773438 46.183594 17.878906 C 46.273438 17.960938 46.378906 18.023438 46.492188 18.058594 C 46.566406 18.074219 46.640625 18.085938 46.714844 18.089844 L 46.601562 18.074219 L 46.613281 18.078125 C 46.726562 18.105469 46.84375 18.089844 46.949219 18.035156 C 47.15625 17.914062 47.222656 17.648438 47.101562 17.441406 C 47.046875 17.339844 46.953125 17.269531 46.84375 17.242188 C 46.785156 17.230469 46.722656 17.222656 46.660156 17.214844 L 46.777344 17.230469 C 46.75 17.226562 46.722656 17.21875 46.695312 17.210938 L 46.800781 17.253906 C 46.773438 17.242188 46.75 17.226562 46.730469 17.210938 L 46.816406 17.28125 C 46.800781 17.265625 46.78125 17.25 46.765625 17.234375 L 46.835938 17.320312 C 46.832031 17.316406 46.828125 17.308594 46.824219 17.300781 L 46.867188 17.40625 C 46.863281 17.398438 46.859375 17.386719 46.859375 17.378906 L 46.875 17.492188 C 46.875 17.480469 46.875 17.472656 46.875 17.460938 L 46.859375 17.578125 C 46.863281 17.554688 46.871094 17.53125 46.878906 17.511719 L 46.835938 17.613281 C 46.882812 17.519531 46.933594 17.425781 46.988281 17.332031 C 47.039062 17.25 47.089844 17.164062 47.140625 17.078125 C 47.261719 16.871094 47.195312 16.605469 46.988281 16.484375 C 46.886719 16.425781 46.765625 16.410156 46.652344 16.441406 C 46.546875 16.476562 46.453125 16.546875 46.394531 16.640625 Z M 46.398438 16.640625 "/>
<path style=" stroke:none;fill-rule:nonzero;fill:rgb(12.941176%,9.019608%,8.235294%);fill-opacity:1;" d="M 54.46875 18.484375 C 54.609375 18.429688 54.765625 18.433594 54.90625 18.492188 C 55.015625 18.539062 55.105469 18.613281 55.175781 18.707031 C 55.222656 18.789062 55.175781 18.667969 55.195312 18.75 C 55.207031 18.785156 55.210938 18.820312 55.207031 18.855469 C 55.203125 18.9375 55.1875 19.019531 55.164062 19.097656 C 55.140625 19.1875 55.113281 19.277344 55.078125 19.367188 C 55.074219 19.390625 55.0625 19.414062 55.050781 19.433594 C 55.027344 19.484375 55 19.535156 54.976562 19.582031 C 54.898438 19.734375 54.796875 19.875 54.6875 20.003906 C 54.574219 20.132812 54.449219 20.25 54.3125 20.351562 C 54.171875 20.460938 54.015625 20.539062 53.847656 20.585938 C 53.679688 20.636719 53.5 20.652344 53.328125 20.628906 C 53.097656 20.570312 52.863281 20.707031 52.796875 20.933594 C 52.734375 21.164062 52.867188 21.402344 53.097656 21.464844 C 53.683594 21.570312 54.285156 21.433594 54.769531 21.089844 C 55.214844 20.777344 55.574219 20.347656 55.808594 19.851562 C 56.046875 19.320312 56.226562 18.664062 55.84375 18.15625 C 55.464844 17.671875 54.828125 17.46875 54.242188 17.648438 C 54.011719 17.714844 53.878906 17.949219 53.9375 18.183594 C 54.003906 18.414062 54.238281 18.546875 54.46875 18.488281 Z M 54.46875 18.484375 "/>
<path style=" stroke:none;fill-rule:nonzero;fill:rgb(12.941176%,9.019608%,8.235294%);fill-opacity:1;" d="M 52.714844 8.617188 C 53.5 8.765625 54.203125 9.257812 54.773438 9.796875 C 55.332031 10.351562 55.722656 11.050781 55.90625 11.816406 C 56.023438 12.3125 56.078125 12.824219 56.0625 13.332031 C 56.070312 13.820312 56.03125 14.304688 55.953125 14.785156 C 55.867188 15.265625 55.742188 15.734375 55.585938 16.195312 C 55.464844 16.632812 55.289062 17.050781 55.0625 17.441406 C 54.753906 17.910156 55.503906 18.34375 55.808594 17.878906 C 56.015625 17.53125 56.179688 17.160156 56.300781 16.773438 C 56.4375 16.398438 56.554688 16.015625 56.65625 15.625 C 56.859375 14.777344 56.949219 13.90625 56.921875 13.035156 C 56.90625 12.164062 56.710938 11.308594 56.34375 10.515625 C 56.054688 9.902344 55.632812 9.363281 55.109375 8.9375 C 54.484375 8.410156 53.753906 7.929688 52.941406 7.777344 C 52.398438 7.675781 52.164062 8.515625 52.710938 8.617188 Z M 52.714844 8.617188 "/>
<path style=" stroke:none;fill-rule:nonzero;fill:rgb(12.941176%,9.019608%,8.235294%);fill-opacity:1;" d="M 45.90625 6.5 C 44.5 6.941406 43.265625 7.816406 42.390625 9.007812 C 41.574219 10.167969 41.117188 11.546875 41.082031 12.964844 C 41.058594 13.527344 41.925781 13.523438 41.945312 12.964844 C 41.984375 11.722656 42.382812 10.523438 43.09375 9.503906 C 43.851562 8.476562 44.917969 7.714844 46.136719 7.339844 C 46.664062 7.167969 46.4375 6.328125 45.90625 6.5 Z M 45.90625 6.5 "/>
<path style=" stroke:none;fill-rule:nonzero;fill:rgb(12.941176%,9.019608%,8.235294%);fill-opacity:1;" d="M 49.9375 11.070312 C 49.175781 11.371094 48.4375 11.746094 47.664062 12.023438 C 47.613281 12.042969 47.558594 12.058594 47.507812 12.078125 C 47.484375 12.082031 47.460938 12.085938 47.441406 12.09375 C 47.605469 11.992188 47.882812 12.539062 47.875 12.347656 C 47.859375 12.238281 47.839844 12.128906 47.816406 12.023438 C 47.761719 11.730469 47.738281 11.4375 47.742188 11.144531 C 47.773438 10.800781 47.359375 10.625 47.09375 10.769531 C 45.210938 11.789062 43.367188 12.894531 41.550781 14.03125 C 41.078125 14.328125 41.515625 15.078125 41.988281 14.78125 C 43.800781 13.644531 45.648438 12.539062 47.53125 11.519531 L 46.878906 11.144531 C 46.875 11.511719 46.90625 11.882812 46.980469 12.242188 C 47.035156 12.640625 47.179688 13.035156 47.671875 12.933594 C 48.0625 12.820312 48.445312 12.671875 48.8125 12.488281 C 49.261719 12.292969 49.710938 12.089844 50.167969 11.910156 C 50.394531 11.839844 50.527344 11.605469 50.472656 11.375 C 50.40625 11.144531 50.171875 11.007812 49.941406 11.070312 Z M 49.9375 11.070312 "/>
<path style=" stroke:none;fill-rule:nonzero;fill:rgb(12.941176%,9.019608%,8.235294%);fill-opacity:1;" d="M 50.167969 11.910156 C 50.480469 11.804688 50.753906 11.597656 51.066406 11.503906 C 51.117188 11.488281 51.195312 11.492188 51.238281 11.476562 C 51.140625 11.507812 51.214844 11.324219 51.175781 11.46875 C 51.164062 11.550781 51.144531 11.632812 51.117188 11.707031 C 50.953125 12.082031 50.71875 12.386719 50.800781 12.824219 C 50.871094 13.210938 51.15625 13.472656 51.4375 13.726562 C 52.5625 14.75 53.3125 16.121094 53.570312 17.625 C 53.632812 17.855469 53.871094 17.988281 54.101562 17.925781 C 54.328125 17.859375 54.460938 17.625 54.402344 17.390625 C 54.09375 15.691406 53.21875 14.144531 51.929688 13.003906 C 51.820312 12.90625 51.648438 12.78125 51.648438 12.625 C 51.644531 12.460938 51.796875 12.285156 51.863281 12.148438 C 52.054688 11.820312 52.085938 11.429688 51.953125 11.074219 C 51.777344 10.710938 51.367188 10.523438 50.976562 10.628906 C 50.601562 10.703125 50.296875 10.953125 49.9375 11.070312 C 49.414062 11.246094 49.636719 12.082031 50.167969 11.910156 Z M 50.167969 11.910156 "/>
<path style=" stroke:none;fill-rule:nonzero;fill:rgb(12.941176%,9.019608%,8.235294%);fill-opacity:1;" d="M 53.039062 7.941406 C 52.320312 6.515625 50.898438 5.804688 49.417969 5.417969 C 48.664062 5.222656 47.882812 5.15625 47.105469 5.222656 C 46.292969 5.265625 45.492188 5.433594 44.730469 5.71875 C 44.410156 5.847656 44.269531 6.316406 44.628906 6.511719 C 45.015625 6.710938 45.378906 6.949219 45.714844 7.226562 C 46.132812 7.589844 46.75 6.976562 46.328125 6.613281 C 45.9375 6.28125 45.515625 5.996094 45.066406 5.761719 L 44.960938 6.554688 C 46.285156 6.023438 47.742188 5.914062 49.132812 6.242188 C 50.421875 6.574219 51.660156 7.128906 52.292969 8.378906 C 52.546875 8.878906 53.292969 8.441406 53.039062 7.941406 Z M 53.039062 7.941406 "/>
<path style=" stroke:none;fill-rule:nonzero;fill:rgb(12.941176%,9.019608%,8.235294%);fill-opacity:1;" d="M 49.632812 17.167969 C 49.6875 17.148438 49.746094 17.132812 49.804688 17.125 L 49.6875 17.140625 C 49.773438 17.128906 49.855469 17.128906 49.9375 17.140625 L 49.824219 17.125 C 49.90625 17.136719 49.988281 17.160156 50.0625 17.191406 L 49.960938 17.148438 C 50.035156 17.179688 50.101562 17.21875 50.164062 17.269531 L 50.078125 17.199219 C 50.136719 17.242188 50.1875 17.296875 50.234375 17.355469 L 50.167969 17.265625 C 50.1875 17.292969 50.207031 17.320312 50.222656 17.351562 C 50.28125 17.449219 50.375 17.519531 50.480469 17.550781 C 50.652344 17.597656 50.832031 17.535156 50.941406 17.394531 C 51.046875 17.257812 51.058594 17.0625 50.96875 16.910156 C 50.804688 16.640625 50.546875 16.4375 50.246094 16.335938 C 49.976562 16.238281 49.679688 16.238281 49.40625 16.332031 C 49.296875 16.363281 49.207031 16.4375 49.148438 16.53125 C 49.023438 16.738281 49.09375 17.003906 49.300781 17.125 C 49.402344 17.1875 49.523438 17.203125 49.632812 17.167969 Z M 49.632812 17.167969 "/>
<path style=" stroke:none;fill-rule:nonzero;fill:rgb(12.941176%,9.019608%,8.235294%);fill-opacity:1;" d="M 45.757812 15.148438 C 45.667969 15.015625 45.554688 14.902344 45.421875 14.8125 C 45.3125 14.738281 45.191406 14.683594 45.0625 14.652344 C 44.9375 14.613281 44.808594 14.601562 44.679688 14.605469 C 44.515625 14.617188 44.355469 14.660156 44.207031 14.734375 C 44.109375 14.789062 44.039062 14.882812 44.007812 14.992188 C 43.976562 15.105469 43.992188 15.226562 44.050781 15.328125 C 44.109375 15.425781 44.203125 15.496094 44.3125 15.527344 L 44.425781 15.542969 C 44.503906 15.542969 44.578125 15.523438 44.644531 15.484375 C 44.652344 15.480469 44.660156 15.476562 44.667969 15.472656 L 44.5625 15.515625 C 44.625 15.492188 44.6875 15.476562 44.75 15.46875 L 44.632812 15.484375 C 44.703125 15.472656 44.773438 15.472656 44.839844 15.484375 L 44.726562 15.46875 C 44.800781 15.476562 44.871094 15.496094 44.9375 15.523438 L 44.835938 15.480469 C 44.898438 15.507812 44.960938 15.542969 45.015625 15.585938 L 44.929688 15.515625 C 44.976562 15.554688 45.019531 15.597656 45.054688 15.644531 L 44.988281 15.554688 C 44.996094 15.566406 45.003906 15.574219 45.011719 15.585938 C 45.070312 15.683594 45.164062 15.753906 45.269531 15.785156 C 45.382812 15.816406 45.5 15.800781 45.601562 15.742188 C 45.699219 15.683594 45.773438 15.589844 45.800781 15.484375 C 45.832031 15.371094 45.816406 15.246094 45.757812 15.148438 Z M 45.757812 15.148438 "/>
<path style=" stroke:none;fill-rule:nonzero;fill:rgb(13.72549%,9.411765%,8.235294%);fill-opacity:1;" d="M 41.054688 14.324219 C 40.492188 17.167969 40.742188 20.339844 42.785156 22.566406 C 43.457031 23.324219 44.324219 23.882812 45.292969 24.179688 C 46.765625 24.5625 48.316406 24.519531 49.769531 24.058594 C 51.460938 23.539062 53.019531 22.363281 53.746094 20.707031 C 53.859375 20.5 53.789062 20.238281 53.589844 20.113281 C 53.382812 19.996094 53.121094 20.0625 53 20.269531 C 51.847656 22.890625 48.601562 23.984375 45.9375 23.441406 C 43.992188 23.046875 42.613281 21.394531 42.023438 19.535156 C 41.515625 17.921875 41.5625 16.199219 41.886719 14.554688 C 41.996094 14.007812 41.160156 13.773438 41.054688 14.324219 Z M 41.054688 14.324219 "/>
<path style=" stroke:none;fill-rule:nonzero;fill:rgb(13.72549%,9.411765%,8.235294%);fill-opacity:1;" d="M 44.996094 21.410156 C 45.226562 21.734375 45.601562 21.917969 46 21.90625 C 46.394531 21.894531 46.757812 21.679688 46.964844 21.34375 C 47.421875 20.578125 47.109375 20.015625 46.859375 19.664062 C 46.546875 19.367188 45.886719 19.214844 45.578125 19.367188 C 45.070312 19.621094 44.527344 20.730469 44.996094 21.410156 Z M 44.996094 21.410156 "/>
<path style=" stroke:none;fill-rule:nonzero;fill:rgb(13.72549%,9.411765%,8.235294%);fill-opacity:1;" d="M 38.105469 26.28125 C 37.890625 27.800781 37.828125 29.347656 37.75 30.875 C 37.679688 32.339844 37.632812 33.804688 37.601562 35.269531 C 37.570312 36.410156 37.46875 37.546875 37.292969 38.671875 C 37.238281 38.898438 37.371094 39.136719 37.597656 39.203125 C 37.828125 39.265625 38.0625 39.128906 38.128906 38.898438 C 38.289062 37.90625 38.398438 36.902344 38.449219 35.898438 C 38.476562 35.167969 38.480469 34.433594 38.5 33.703125 C 38.554688 32.054688 38.628906 30.40625 38.742188 28.757812 C 38.769531 28.320312 38.800781 27.886719 38.839844 27.449219 C 38.855469 27.273438 38.871094 27.097656 38.890625 26.921875 C 38.898438 26.84375 38.90625 26.765625 38.917969 26.6875 C 38.921875 26.652344 38.925781 26.613281 38.929688 26.578125 C 38.945312 26.472656 38.929688 26.589844 38.941406 26.515625 C 38.996094 26.28125 38.863281 26.050781 38.636719 25.980469 C 38.40625 25.917969 38.171875 26.050781 38.105469 26.285156 Z M 38.105469 26.28125 "/>
<path style=" stroke:none;fill-rule:nonzero;fill:rgb(13.72549%,9.411765%,8.235294%);fill-opacity:1;" d="M 54.398438 35.847656 C 53.859375 38.457031 53.328125 41.074219 52.859375 43.699219 C 52.804688 43.929688 52.9375 44.164062 53.164062 44.234375 C 53.390625 44.296875 53.628906 44.160156 53.695312 43.929688 C 54.164062 41.304688 54.695312 38.6875 55.230469 36.078125 C 55.34375 35.53125 54.511719 35.296875 54.398438 35.84375 Z M 54.398438 35.847656 "/>
<path style=" stroke:none;fill-rule:nonzero;fill:rgb(13.72549%,9.411765%,8.235294%);fill-opacity:1;" d="M 42.601562 22.15625 C 40.597656 19.40625 38.996094 16.398438 37.566406 13.320312 C 37.25 12.636719 36.9375 11.957031 36.644531 11.265625 C 36.523438 11.058594 36.257812 10.992188 36.050781 11.109375 C 34.773438 11.832031 33.46875 12.515625 32.1875 13.234375 C 31.898438 13.394531 31.488281 13.542969 31.367188 13.886719 C 31.253906 14.21875 31.480469 14.582031 31.601562 14.890625 C 31.871094 15.574219 32.152344 16.257812 32.4375 16.9375 C 33.527344 19.539062 34.695312 22.109375 36 24.605469 C 36.5625 25.679688 37.144531 26.742188 37.800781 27.757812 C 38.101562 28.226562 38.851562 27.792969 38.546875 27.320312 C 37.675781 25.9375 36.882812 24.503906 36.167969 23.035156 C 35.238281 21.171875 34.371094 19.277344 33.550781 17.363281 C 33.316406 16.820312 33.089844 16.273438 32.863281 15.722656 C 32.753906 15.457031 32.648438 15.191406 32.539062 14.921875 C 32.480469 14.777344 32.421875 14.628906 32.363281 14.480469 C 32.304688 14.363281 32.25 14.242188 32.203125 14.113281 L 32.09375 14.308594 C 32.25 14.171875 32.429688 14.0625 32.625 13.984375 C 32.796875 13.886719 32.96875 13.789062 33.140625 13.695312 C 33.511719 13.492188 33.878906 13.292969 34.25 13.09375 C 35 12.6875 35.746094 12.277344 36.488281 11.859375 L 35.898438 11.703125 C 37.085938 14.53125 38.480469 17.269531 40.070312 19.890625 C 40.636719 20.808594 41.21875 21.722656 41.851562 22.59375 C 41.976562 22.792969 42.238281 22.863281 42.445312 22.75 C 42.648438 22.625 42.71875 22.359375 42.601562 22.15625 Z M 42.601562 22.15625 "/>
<path style=" stroke:none;fill-rule:nonzero;fill:rgb(12.941176%,9.019608%,8.235294%);fill-opacity:1;" d="M 67.914062 72.847656 C 68.671875 72.042969 68.871094 70.882812 68.9375 69.816406 C 68.976562 68.722656 68.933594 67.632812 68.804688 66.546875 C 68.601562 64.261719 68.40625 61.902344 67.640625 59.722656 C 67.070312 58.199219 66.320312 56.746094 65.398438 55.402344 C 64.546875 54.09375 63.621094 52.839844 62.625 51.640625 C 60.492188 49.082031 58.007812 46.839844 55.25 44.980469 C 52.453125 43.085938 49.523438 41.332031 46.378906 40.085938 C 44.867188 39.464844 43.289062 39.042969 41.671875 38.828125 C 40.855469 38.730469 40.035156 38.710938 39.21875 38.597656 C 38.378906 38.480469 37.546875 38.320312 36.71875 38.148438 C 33.308594 37.433594 29.964844 36.433594 26.542969 35.792969 C 24.847656 35.476562 23.109375 35.226562 21.382812 35.285156 C 19.667969 35.371094 17.984375 35.777344 16.417969 36.484375 C 14.851562 37.195312 13.332031 38.011719 11.875 38.929688 C 10.625 39.679688 9.390625 40.449219 8.183594 41.269531 C 5.964844 42.800781 3.859375 44.496094 1.890625 46.34375 C 1.296875 46.886719 0.710938 47.441406 0.132812 48 C -0.273438 48.386719 0.339844 49 0.742188 48.613281 C 2.757812 46.683594 4.816406 44.785156 7.0625 43.121094 C 9.390625 41.425781 11.820312 39.878906 14.339844 38.488281 C 15.828125 37.65625 17.382812 36.910156 19.039062 36.488281 C 20.648438 36.082031 22.292969 36.089844 23.933594 36.269531 C 27.324219 36.640625 30.632812 37.605469 33.945312 38.40625 C 35.53125 38.789062 37.125 39.15625 38.742188 39.398438 C 40.328125 39.636719 41.917969 39.648438 43.476562 40.046875 C 46.621094 40.84375 49.554688 42.410156 52.304688 44.105469 C 55.09375 45.824219 57.738281 47.710938 60.039062 50.066406 C 62.269531 52.324219 64.195312 54.875 65.753906 57.648438 C 66.53125 59.042969 67.085938 60.554688 67.394531 62.125 C 67.550781 62.933594 67.640625 63.703125 67.734375 64.523438 C 67.871094 65.707031 67.988281 66.894531 68.054688 68.082031 C 68.117188 69.214844 68.15625 70.414062 67.753906 71.492188 C 67.65625 71.769531 67.503906 72.019531 67.304688 72.234375 C 66.921875 72.640625 67.53125 73.257812 67.914062 72.847656 Z M 67.914062 72.847656 "/>
</g>
</svg>
