<?xml version="1.0" encoding="UTF-8"?>
<svg xmlns="http://www.w3.org/2000/svg" xmlns:xlink="http://www.w3.org/1999/xlink" width="134px" height="78px" viewBox="0 0 134 78" version="1.1">
<g id="surface1">
<path style=" stroke:none;fill-rule:nonzero;fill:rgb(58.431373%,49.803922%,43.137255%);fill-opacity:1;" d="M 86.808594 22.894531 C 86.808594 27.769531 86.410156 31.289062 85.851562 33.289062 C 85.429688 34.9375 85.1875 36.625 85.128906 38.324219 C 85.113281 40.34375 87.050781 42.535156 90.023438 42.464844 L 113.203125 41.90625 C 116.453125 43.070312 119.277344 40.128906 119.257812 37.851562 C 119.246094 36.550781 119.007812 35.265625 118.554688 34.046875 C 117.976562 32.371094 116.855469 28.972656 116.777344 22.894531 C 116.875 21.054688 116.847656 19.210938 116.699219 17.378906 C 116.445312 13.835938 114.863281 9.882812 112.585938 7.6875 C 112.058594 7.160156 111.488281 6.671875 110.886719 6.230469 L 108.453125 4.820312 C 106.359375 3.949219 104.113281 3.519531 101.847656 3.554688 C 97.292969 3.554688 93.242188 5.902344 91.445312 7.621094 C 88.460938 10.480469 86.570312 15.699219 86.808594 22.894531 "/>
<path style=" stroke:none;fill-rule:nonzero;fill:rgb(100%,100%,100%);fill-opacity:1;" d="M 111.742188 41.746094 C 111.632812 41.703125 108.523438 40.222656 108.449219 40.195312 C 107.355469 39.800781 107.398438 39.09375 107.261719 38.304688 C 107.136719 37.613281 107.058594 36.910156 107.027344 36.207031 C 109.820312 34.882812 112.050781 31.046875 112.445312 29.976562 C 112.523438 29.746094 112.746094 29.277344 112.925781 28.753906 L 113.03125 28.769531 C 113.578125 28.84375 114.128906 28.683594 114.550781 28.332031 C 115.503906 27.554688 115.898438 26.464844 116.140625 25.757812 C 116.480469 24.753906 116.5 23.132812 115.996094 22.253906 C 115.6875 21.722656 115.113281 21.40625 114.503906 21.425781 C 114.058594 21.40625 113.625 21.554688 113.28125 21.835938 L 112.699219 21.382812 C 111.851562 20.726562 110.410156 19.773438 109.285156 18.257812 C 107.566406 15.941406 107.242188 14.488281 106.730469 12.886719 C 105.417969 14.792969 100.707031 17.429688 97.339844 18.1875 C 97.339844 18.1875 97.164062 18.230469 96.898438 18.289062 C 96.066406 18.910156 95.203125 19.484375 94.308594 20.007812 C 94.003906 20.191406 91.90625 21.101562 91.152344 21.453125 C 91.152344 21.453125 90.878906 21.578125 90.523438 21.742188 C 90.195312 21.523438 89.808594 21.410156 89.417969 21.425781 C 88.804688 21.40625 88.234375 21.722656 87.925781 22.253906 C 87.417969 23.132812 87.441406 24.753906 87.78125 25.757812 C 88.023438 26.464844 88.417969 27.554688 89.367188 28.332031 C 89.8125 28.707031 90.402344 28.859375 90.972656 28.753906 C 91.492188 30.449219 92.34375 32.027344 93.472656 33.394531 C 94.457031 34.621094 95.6875 35.628906 97.085938 36.34375 C 97.054688 37.003906 96.980469 37.660156 96.859375 38.308594 C 96.722656 39.097656 96.765625 39.800781 95.667969 40.199219 C 95.59375 40.222656 92.128906 41.847656 91.914062 41.917969 C 91.914062 41.917969 91.914062 48.4375 102.003906 48.4375 C 112.09375 48.4375 111.742188 41.746094 111.742188 41.746094 Z M 111.742188 41.746094 "/>
<path style=" stroke:none;fill-rule:nonzero;fill:rgb(100%,100%,100%);fill-opacity:1;" d="M 99.6875 57.945312 C 99.34375 57.042969 98.992188 56.0625 98.574219 54.835938 C 97.496094 51.683594 96.230469 48.300781 95.171875 44.960938 L 95.785156 45.191406 C 99.851562 46.847656 104.402344 46.878906 108.488281 45.269531 L 108.785156 45.191406 C 107.742188 48.457031 106.507812 51.757812 105.457031 54.835938 C 104.28125 58.285156 103.621094 59.757812 102.257812 63.105469 L 101.773438 63.105469 C 100.894531 60.953125 100.308594 59.574219 99.6875 57.945312 Z M 99.6875 57.945312 "/>
<path style=" stroke:none;fill-rule:nonzero;fill:rgb(100%,100%,100%);fill-opacity:1;" d="M 45.125 19.808594 C 45.484375 19.472656 45.964844 19.300781 46.453125 19.320312 C 47.082031 19.300781 47.671875 19.628906 47.988281 20.171875 C 48.507812 21.078125 48.488281 22.742188 48.136719 23.773438 C 47.890625 24.503906 47.484375 25.617188 46.507812 26.417969 C 46.070312 26.78125 45.503906 26.945312 44.941406 26.871094 L 44.792969 26.84375 C 44.644531 27.34375 44.464844 27.832031 44.253906 28.304688 C 43.859375 29.375 41.695312 33.113281 38.945312 34.609375 L 38.945312 35.816406 C 38.714844 36 34.0625 39.675781 33.707031 39.925781 L 32.886719 39.925781 C 32.535156 39.675781 27.878906 36 27.648438 35.816406 L 27.648438 34.515625 C 26.464844 33.828125 25.417969 32.925781 24.5625 31.851562 C 23.347656 30.382812 22.445312 28.675781 21.910156 26.84375 C 21.3125 26.96875 20.6875 26.8125 20.21875 26.417969 C 19.242188 25.617188 18.835938 24.503906 18.589844 23.773438 C 18.238281 22.742188 18.21875 21.078125 18.738281 20.171875 C 19.054688 19.628906 19.644531 19.300781 20.273438 19.320312 C 20.761719 19.300781 21.242188 19.476562 21.601562 19.808594 C 21.601562 19.808594 20.214844 8.75 33.015625 8.75 C 48.179688 8.75 45.125 19.808594 45.125 19.808594 Z M 45.125 19.808594 "/>
<path style=" stroke:none;fill-rule:nonzero;fill:rgb(70.196078%,70.196078%,70.196078%);fill-opacity:1;" d="M 39.171875 46.683594 C 39.980469 43.769531 40.722656 40.828125 41.359375 37.992188 C 41.871094 38.316406 42.5 38.757812 43.144531 39.261719 C 48.8125 41.480469 53.777344 43.121094 56.328125 47.003906 C 57.742188 49.15625 58.589844 52 59.164062 55.707031 C 59.886719 61.25 61.210938 73.34375 61.570312 77.332031 L 17.410156 77.332031 C 17.402344 76.304688 17.382812 74.523438 17.355469 72.359375 L 16.421875 72.984375 C 15.542969 73.695312 14.617188 74.34375 13.648438 74.921875 C 12.164062 75.707031 10.910156 76.359375 8.570312 76 C 6.578125 75.691406 4.976562 73.980469 4.457031 72.027344 C 4.253906 71.125 4.148438 70.203125 4.140625 69.277344 C 3.988281 65.722656 4.101562 63.960938 3.734375 60.539062 L 6.964844 49.097656 L 13.785156 43.945312 C 16.371094 41.976562 19.785156 40.53125 23.375 39.316406 C 24.042969 38.792969 24.703125 38.332031 25.230469 37.992188 C 26.441406 43.386719 28.027344 49.152344 29.734375 54.398438 C 31 58.28125 31.417969 59.601562 33.035156 63.59375 L 33.554688 63.59375 C 35.171875 59.601562 35.589844 58.28125 36.855469 54.398438 C 37.664062 51.910156 38.445312 49.304688 39.171875 46.683594 Z M 39.171875 46.683594 "/>
<path style=" stroke:none;fill-rule:nonzero;fill:rgb(12.941176%,9.019608%,8.235294%);fill-opacity:1;" d="M 87.4375 22.894531 C 87.296875 18.453125 87.851562 13.632812 90.386719 9.859375 C 91.375 8.421875 92.679688 7.226562 94.199219 6.371094 C 96.3125 5.101562 98.699219 4.355469 101.160156 4.199219 C 102.59375 4.121094 104.03125 4.234375 105.433594 4.53125 C 106.058594 4.664062 106.667969 4.835938 107.269531 5.042969 C 107.691406 5.171875 108.09375 5.34375 108.480469 5.554688 C 109.179688 5.953125 109.8125 4.871094 109.109375 4.472656 C 108.214844 4.003906 107.261719 3.65625 106.273438 3.4375 C 104.964844 3.121094 103.628906 2.949219 102.285156 2.933594 C 99.578125 2.902344 96.902344 3.535156 94.5 4.78125 C 92.703125 5.644531 91.121094 6.898438 89.867188 8.449219 C 88.613281 10.121094 87.6875 12.019531 87.140625 14.039062 C 86.367188 16.921875 86.042969 19.910156 86.183594 22.894531 C 86.207031 23.699219 87.460938 23.703125 87.433594 22.894531 Z M 87.4375 22.894531 "/>
<path style=" stroke:none;fill-rule:nonzero;fill:rgb(12.941176%,9.019608%,8.235294%);fill-opacity:1;" d="M 117.402344 22.894531 C 117.488281 21.640625 117.496094 20.382812 117.425781 19.128906 C 117.394531 18.039062 117.300781 16.949219 117.144531 15.867188 C 116.757812 13.28125 115.773438 10.820312 114.261719 8.683594 C 113.402344 7.53125 112.371094 6.523438 111.203125 5.6875 C 110.902344 5.515625 110.519531 5.617188 110.34375 5.914062 C 110.179688 6.210938 110.277344 6.589844 110.570312 6.769531 C 112.46875 8.167969 113.941406 10.066406 114.820312 12.253906 C 115.308594 13.425781 115.664062 14.644531 115.886719 15.894531 C 116.039062 16.871094 116.132812 17.859375 116.160156 18.851562 C 116.246094 20.199219 116.242188 21.546875 116.152344 22.894531 C 116.082031 23.695312 117.335938 23.691406 117.402344 22.894531 Z M 117.402344 22.894531 "/>
<path style=" stroke:none;fill-rule:nonzero;fill:rgb(12.941176%,9.019608%,8.235294%);fill-opacity:1;" d="M 86.183594 22.894531 C 86.179688 26.085938 86.121094 29.386719 85.402344 32.511719 C 85.035156 33.96875 84.761719 35.449219 84.585938 36.941406 C 84.445312 38.363281 84.488281 39.6875 85.367188 40.886719 C 86.46875 42.332031 88.207031 43.15625 90.023438 43.089844 C 90.828125 43.078125 90.832031 41.824219 90.023438 41.835938 C 88.648438 41.902344 87.324219 41.316406 86.449219 40.253906 C 86.085938 39.796875 85.851562 39.25 85.769531 38.671875 C 85.726562 38.015625 85.757812 37.355469 85.863281 36.707031 C 86.046875 35.355469 86.308594 34.019531 86.640625 32.699219 C 86.90625 31.441406 87.089844 30.171875 87.195312 28.894531 C 87.375 26.898438 87.4375 24.894531 87.4375 22.894531 C 87.4375 22.085938 86.183594 22.085938 86.183594 22.894531 Z M 86.183594 22.894531 "/>
<path style=" stroke:none;fill-rule:nonzero;fill:rgb(12.941176%,9.019608%,8.235294%);fill-opacity:1;" d="M 116.152344 22.894531 C 116.148438 26.125 116.570312 29.34375 117.398438 32.46875 C 118.066406 34.832031 119.578125 37.722656 117.820312 39.933594 C 116.789062 41.304688 114.992188 41.855469 113.371094 41.300781 C 112.605469 41.039062 112.277344 42.25 113.039062 42.511719 C 114.722656 43.078125 116.578125 42.726562 117.9375 41.582031 C 119.175781 40.621094 119.890625 39.136719 119.878906 37.570312 C 119.828125 35.953125 119.339844 34.492188 118.855469 32.96875 C 118.492188 31.8125 118.199219 30.632812 117.984375 29.4375 C 117.609375 27.273438 117.417969 25.085938 117.402344 22.894531 C 117.390625 22.089844 116.136719 22.085938 116.152344 22.894531 Z M 116.152344 22.894531 "/>
<path style=" stroke:none;fill-rule:nonzero;fill:rgb(12.941176%,9.019608%,8.235294%);fill-opacity:1;" d="M 96.449219 36.59375 C 96.410156 37.09375 96.351562 37.59375 96.261719 38.085938 C 96.226562 38.394531 96.171875 38.699219 96.101562 39 C 96.089844 39.039062 96.015625 39.21875 96.070312 39.105469 C 96.042969 39.164062 96.011719 39.21875 95.976562 39.273438 C 95.925781 39.355469 96.035156 39.210938 95.96875 39.285156 C 95.949219 39.304688 95.929688 39.328125 95.910156 39.347656 C 95.867188 39.402344 95.8125 39.441406 95.75 39.46875 C 95.589844 39.5625 95.417969 39.625 95.25 39.699219 C 94.378906 40.097656 93.515625 40.503906 92.648438 40.902344 C 92.425781 41.007812 92.203125 41.109375 91.976562 41.210938 C 91.898438 41.246094 91.816406 41.28125 91.738281 41.320312 C 91.582031 41.386719 91.886719 41.265625 91.75 41.3125 C 91.421875 41.410156 91.226562 41.75 91.3125 42.082031 C 91.40625 42.414062 91.746094 42.609375 92.082031 42.523438 C 92.429688 42.398438 92.765625 42.222656 93.101562 42.066406 C 93.636719 41.824219 94.167969 41.578125 94.699219 41.328125 L 95.878906 40.785156 C 95.910156 40.769531 95.941406 40.757812 95.972656 40.742188 C 95.972656 40.742188 95.738281 40.835938 95.871094 40.785156 C 95.9375 40.761719 96 40.734375 96.066406 40.707031 C 96.183594 40.65625 96.300781 40.601562 96.410156 40.535156 C 96.785156 40.300781 97.074219 39.953125 97.234375 39.539062 C 97.339844 39.214844 97.414062 38.875 97.449219 38.535156 C 97.554688 37.890625 97.652344 37.246094 97.695312 36.59375 C 97.695312 36.25 97.417969 35.96875 97.070312 35.96875 C 96.726562 35.96875 96.445312 36.25 96.445312 36.59375 Z M 96.449219 36.59375 "/>
<path style=" stroke:none;fill-rule:nonzero;fill:rgb(12.941176%,9.019608%,8.235294%);fill-opacity:1;" d="M 106.40625 36.300781 C 106.457031 37.242188 106.574219 38.179688 106.757812 39.101562 C 106.902344 39.878906 107.453125 40.515625 108.199219 40.769531 C 108.425781 40.859375 108.035156 40.6875 108.199219 40.765625 C 108.257812 40.792969 108.316406 40.820312 108.371094 40.847656 C 108.554688 40.933594 108.738281 41.019531 108.921875 41.105469 L 110.410156 41.808594 C 110.75 41.96875 111.082031 42.140625 111.429688 42.289062 C 111.726562 42.453125 112.101562 42.351562 112.285156 42.0625 C 112.457031 41.765625 112.355469 41.382812 112.058594 41.207031 C 111.328125 40.894531 110.621094 40.527344 109.902344 40.1875 C 109.554688 40.023438 109.207031 39.855469 108.855469 39.695312 C 108.675781 39.625 108.496094 39.539062 108.328125 39.445312 C 108.171875 39.351562 108.058594 39.199219 108.023438 39.019531 C 107.941406 38.675781 107.878906 38.332031 107.835938 37.980469 C 107.746094 37.425781 107.683594 36.863281 107.65625 36.300781 C 107.648438 35.957031 107.375 35.683594 107.03125 35.675781 C 106.6875 35.679688 106.40625 35.957031 106.40625 36.300781 Z M 106.40625 36.300781 "/>
<path style=" stroke:none;fill-rule:nonzero;fill:rgb(12.941176%,9.019608%,8.235294%);fill-opacity:1;" d="M 99.710938 31.351562 C 100.402344 31.710938 101.171875 31.890625 101.949219 31.871094 C 102.757812 31.90625 103.558594 31.667969 104.21875 31.199219 C 104.464844 30.953125 104.464844 30.554688 104.21875 30.3125 C 103.96875 30.078125 103.582031 30.078125 103.332031 30.3125 C 103.523438 30.160156 103.386719 30.269531 103.335938 30.300781 C 103.292969 30.328125 103.246094 30.355469 103.199219 30.378906 C 103.175781 30.394531 103.152344 30.402344 103.128906 30.417969 C 103.074219 30.445312 103.03125 30.425781 103.164062 30.402344 C 103.097656 30.421875 103.035156 30.445312 102.976562 30.472656 C 102.800781 30.527344 102.625 30.566406 102.445312 30.59375 C 102.539062 30.578125 102.460938 30.589844 102.410156 30.597656 C 102.359375 30.601562 102.304688 30.605469 102.253906 30.609375 C 102.128906 30.617188 102.003906 30.621094 101.878906 30.617188 C 101.765625 30.617188 101.652344 30.613281 101.542969 30.605469 C 101.488281 30.601562 101.4375 30.597656 101.386719 30.59375 C 101.371094 30.59375 101.183594 30.5625 101.328125 30.589844 C 101.160156 30.558594 100.996094 30.523438 100.832031 30.476562 C 100.765625 30.457031 100.695312 30.433594 100.628906 30.410156 C 100.472656 30.355469 100.734375 30.460938 100.59375 30.394531 C 100.507812 30.355469 100.425781 30.3125 100.34375 30.269531 C 100.042969 30.097656 99.660156 30.195312 99.484375 30.496094 C 99.3125 30.792969 99.410156 31.179688 99.710938 31.351562 Z M 99.710938 31.351562 "/>
<path style=" stroke:none;fill-rule:nonzero;fill:rgb(12.941176%,9.019608%,8.235294%);fill-opacity:1;" d="M 101.605469 26.105469 C 101.710938 26.472656 101.789062 26.847656 101.851562 27.222656 L 101.828125 27.058594 C 101.835938 27.109375 101.839844 27.160156 101.832031 27.210938 L 101.855469 27.046875 C 101.851562 27.070312 101.847656 27.09375 101.839844 27.117188 L 101.902344 26.964844 C 101.894531 26.980469 101.886719 26.996094 101.878906 27.011719 L 101.976562 26.886719 C 101.964844 26.898438 101.953125 26.910156 101.9375 26.921875 L 102.0625 26.824219 C 102.035156 26.839844 102.003906 26.855469 101.976562 26.871094 L 102.125 26.808594 C 102.078125 26.828125 102.027344 26.84375 101.976562 26.851562 L 102.140625 26.828125 C 102.09375 26.835938 102.046875 26.835938 102 26.828125 L 102.167969 26.851562 C 102.117188 26.84375 102.0625 26.832031 102.011719 26.824219 C 101.929688 26.796875 101.84375 26.792969 101.761719 26.8125 C 101.679688 26.816406 101.597656 26.839844 101.527344 26.886719 C 101.230469 27.0625 101.128906 27.445312 101.304688 27.742188 C 101.382812 27.886719 101.519531 27.992188 101.679688 28.03125 C 101.804688 28.046875 101.925781 28.082031 102.050781 28.085938 C 102.246094 28.085938 102.4375 28.042969 102.609375 27.953125 C 102.828125 27.851562 102.992188 27.652344 103.054688 27.417969 C 103.09375 27.230469 103.09375 27.035156 103.050781 26.847656 C 102.988281 26.484375 102.90625 26.128906 102.8125 25.773438 C 102.769531 25.613281 102.664062 25.476562 102.519531 25.394531 C 102.375 25.3125 102.203125 25.292969 102.042969 25.335938 C 101.714844 25.433594 101.519531 25.773438 101.605469 26.105469 Z M 101.605469 26.105469 "/>
<path style=" stroke:none;fill-rule:nonzero;fill:rgb(12.941176%,9.019608%,8.235294%);fill-opacity:1;" d="M 95.746094 22.921875 C 95.558594 23.53125 95.679688 24.929688 96.832031 25.046875 C 98.351562 25.035156 98.429688 23.347656 97.917969 22.554688 C 97.5 21.90625 96.269531 21.632812 95.746094 22.921875 Z M 95.746094 22.921875 "/>
<path style=" stroke:none;fill-rule:nonzero;fill:rgb(12.941176%,9.019608%,8.235294%);fill-opacity:1;" d="M 107.914062 22.921875 C 108.101562 23.53125 107.976562 24.929688 106.828125 25.046875 C 105.308594 25.035156 105.226562 23.347656 105.738281 22.554688 C 106.160156 21.90625 107.390625 21.632812 107.914062 22.921875 Z M 107.914062 22.921875 "/>
<path style=" stroke:none;fill-rule:nonzero;fill:rgb(12.941176%,9.019608%,8.235294%);fill-opacity:1;" d="M 112.554688 27.644531 C 112.441406 28.269531 112.25 28.878906 111.980469 29.457031 C 111.917969 29.609375 111.859375 29.761719 111.800781 29.914062 C 111.867188 29.742188 111.785156 29.945312 111.769531 29.976562 C 111.738281 30.042969 111.707031 30.105469 111.675781 30.171875 C 111.3125 30.894531 110.890625 31.585938 110.417969 32.242188 C 109.300781 33.804688 107.785156 35.503906 105.839844 35.957031 C 105.054688 36.140625 105.386719 37.351562 106.171875 37.167969 C 107.882812 36.765625 109.308594 35.535156 110.429688 34.238281 C 111.410156 33.140625 112.226562 31.910156 112.863281 30.585938 C 113.285156 29.761719 113.585938 28.886719 113.761719 27.976562 C 113.839844 27.644531 113.648438 27.308594 113.324219 27.207031 C 112.988281 27.117188 112.644531 27.3125 112.550781 27.644531 Z M 112.554688 27.644531 "/>
<path style=" stroke:none;fill-rule:nonzero;fill:rgb(12.941176%,9.019608%,8.235294%);fill-opacity:1;" d="M 90.105469 27.933594 C 90.628906 30.191406 91.695312 32.285156 93.207031 34.039062 C 94.714844 35.777344 96.710938 37.253906 99.03125 37.601562 C 99.363281 37.683594 99.703125 37.492188 99.800781 37.164062 C 99.890625 36.832031 99.695312 36.488281 99.363281 36.394531 C 97.230469 36.070312 95.476562 34.75 94.09375 33.152344 C 92.730469 31.554688 91.773438 29.648438 91.3125 27.597656 C 91.128906 26.8125 89.921875 27.144531 90.105469 27.929688 Z M 90.105469 27.933594 "/>
<path style=" stroke:none;fill-rule:nonzero;fill:rgb(12.941176%,9.019608%,8.235294%);fill-opacity:1;" d="M 91.152344 21.453125 C 90.390625 20.773438 89.296875 20.609375 88.367188 21.035156 C 87.710938 21.363281 87.238281 21.972656 87.078125 22.691406 C 86.671875 24.433594 87.011719 26.265625 88.015625 27.746094 C 88.65625 28.699219 89.660156 29.554688 90.886719 29.394531 C 91.226562 29.382812 91.503906 29.109375 91.511719 28.769531 C 91.511719 28.421875 91.230469 28.144531 90.886719 28.140625 C 89.921875 28.269531 89.265625 27.472656 88.847656 26.703125 C 88.488281 26.058594 88.261719 25.347656 88.179688 24.617188 C 88.121094 23.914062 88.121094 23.039062 88.546875 22.441406 C 88.496094 22.511719 88.683594 22.296875 88.703125 22.285156 C 88.828125 22.1875 88.972656 22.125 89.128906 22.089844 C 89.523438 21.984375 89.949219 22.078125 90.265625 22.339844 C 90.867188 22.875 91.753906 21.992188 91.152344 21.457031 Z M 91.152344 21.453125 "/>
<path style=" stroke:none;fill-rule:nonzero;fill:rgb(12.941176%,9.019608%,8.235294%);fill-opacity:1;" d="M 113.652344 22.339844 C 113.953125 22.085938 114.355469 21.988281 114.738281 22.078125 C 114.910156 22.105469 115.074219 22.175781 115.214844 22.28125 C 115.171875 22.246094 115.328125 22.390625 115.308594 22.375 C 115.328125 22.394531 115.4375 22.535156 115.371094 22.441406 C 115.796875 23.039062 115.796875 23.914062 115.738281 24.617188 C 115.621094 25.949219 114.6875 28.359375 113.03125 28.144531 C 112.6875 28.144531 112.40625 28.425781 112.40625 28.769531 C 112.414062 29.113281 112.6875 29.390625 113.03125 29.398438 C 115.046875 29.660156 116.269531 27.460938 116.769531 25.835938 C 117.214844 24.398438 117.230469 22.109375 115.8125 21.179688 C 114.847656 20.585938 113.609375 20.699219 112.765625 21.457031 C 112.164062 21.992188 113.050781 22.878906 113.652344 22.34375 Z M 113.652344 22.339844 "/>
<path style=" stroke:none;fill-rule:nonzero;fill:rgb(12.941176%,9.019608%,8.235294%);fill-opacity:1;" d="M 100.148438 14.054688 C 98.894531 15.972656 97.101562 17.472656 95.199219 18.71875 C 94.515625 19.171875 93.800781 19.570312 93.058594 19.910156 C 92.316406 20.246094 91.570312 20.566406 90.835938 20.910156 C 90.539062 21.085938 90.4375 21.46875 90.609375 21.765625 C 90.789062 22.058594 91.167969 22.15625 91.46875 21.992188 C 92.21875 21.640625 92.980469 21.3125 93.734375 20.972656 C 94.542969 20.597656 95.316406 20.15625 96.054688 19.652344 C 98.054688 18.3125 99.90625 16.714844 101.230469 14.6875 C 101.671875 14.007812 100.585938 13.378906 100.148438 14.054688 Z M 100.148438 14.054688 "/>
<path style=" stroke:none;fill-rule:nonzero;fill:rgb(12.941176%,9.019608%,8.235294%);fill-opacity:1;" d="M 106.230469 12.511719 C 105.398438 13.742188 103.804688 14.6875 102.492188 15.425781 C 100.828125 16.394531 99.039062 17.121094 97.171875 17.585938 C 96.386719 17.765625 96.71875 18.972656 97.503906 18.792969 C 99.515625 18.292969 101.441406 17.503906 103.222656 16.449219 C 104.707031 15.605469 106.335938 14.589844 107.3125 13.144531 C 107.761719 12.476562 106.679688 11.847656 106.230469 12.511719 Z M 106.230469 12.511719 "/>
<path style=" stroke:none;fill-rule:nonzero;fill:rgb(12.941176%,9.019608%,8.235294%);fill-opacity:1;" d="M 113.140625 20.9375 C 112.527344 20.464844 111.898438 20.015625 111.316406 19.503906 C 110.566406 18.851562 109.910156 18.101562 109.355469 17.277344 C 108.507812 15.964844 107.859375 14.535156 107.433594 13.03125 C 107.195312 12.261719 105.984375 12.589844 106.226562 13.363281 C 106.679688 14.972656 107.371094 16.507812 108.273438 17.910156 C 108.859375 18.796875 109.554688 19.601562 110.339844 20.3125 C 110.949219 20.855469 111.613281 21.328125 112.253906 21.824219 C 112.503906 22.058594 112.890625 22.058594 113.140625 21.824219 C 113.382812 21.578125 113.382812 21.183594 113.140625 20.9375 Z M 113.140625 20.9375 "/>
<path style=" stroke:none;fill-rule:nonzero;fill:rgb(70.196078%,70.196078%,70.196078%);fill-opacity:1;" d="M 76.527344 77.332031 C 77.316406 71.238281 78.644531 60.742188 79.632812 55.917969 C 80.046875 53.867188 81.003906 50.382812 82.359375 48.320312 C 84.476562 45.097656 87.960938 43.476562 92.050781 41.5 C 92.601562 41.007812 93.199219 40.570312 93.835938 40.1875 C 94.964844 44.988281 96.980469 50.167969 98.574219 54.835938 C 99.75 58.285156 100.410156 59.757812 101.773438 63.105469 L 102.257812 63.105469 C 103.625 59.757812 104.28125 58.285156 105.457031 54.835938 C 107.054688 50.167969 109.066406 44.988281 110.195312 40.1875 C 110.671875 40.46875 111.125 40.789062 111.550781 41.140625 C 112.46875 41.410156 113.175781 41.613281 113.175781 41.613281 C 115.070312 42.289062 116.863281 43.214844 118.511719 44.363281 L 123.503906 47.878906 L 128.722656 59.347656 C 129.113281 61.460938 129.570312 63.363281 130.332031 66.839844 C 130.5625 67.738281 130.695312 68.65625 130.726562 69.582031 C 130.726562 71.597656 129.617188 73.675781 127.765625 74.472656 C 126.320312 75.09375 124.261719 75.117188 122.582031 74.726562 C 121.429688 74.457031 119.523438 73.851562 118.140625 72.914062 L 117.046875 72.367188 C 117.027344 74.628906 117.023438 76.734375 117.019531 77.332031 Z M 76.527344 77.332031 "/>
<path style=" stroke:none;fill-rule:nonzero;fill:rgb(100%,100%,100%);fill-opacity:1;" d="M 33.035156 63.59375 C 31.417969 59.601562 31 58.28125 29.738281 54.394531 C 28.171875 49.582031 26.703125 44.328125 25.535156 39.324219 C 25.445312 38.820312 25.585938 38.300781 25.921875 37.910156 C 26.449219 37.300781 27.109375 36.417969 27.648438 35.816406 C 27.875 36 32.53125 39.675781 32.886719 39.925781 L 33.707031 39.925781 C 34.058594 39.675781 38.714844 36 38.945312 35.816406 C 39.480469 36.417969 40.144531 37.300781 40.667969 37.910156 C 41.003906 38.300781 41.144531 38.820312 41.054688 39.324219 C 39.886719 44.328125 38.421875 49.582031 36.855469 54.394531 C 35.589844 58.28125 35.175781 59.601562 33.558594 63.59375 Z M 33.035156 63.59375 "/>
<path style=" stroke:none;fill-rule:nonzero;fill:rgb(23.921569%,55.294118%,80%);fill-opacity:1;" d="M 31.628906 59.992188 C 32.003906 61.003906 32.4375 62.117188 33.035156 63.59375 L 33.558594 63.59375 C 35.046875 59.917969 35.515625 58.507812 36.570312 55.277344 C 36.058594 50.898438 35.382812 45.695312 35.382812 45.542969 C 35.394531 45.265625 35.4375 44.992188 35.507812 44.726562 C 35.539062 44.601562 35.570312 44.480469 35.59375 44.359375 C 35.726562 43.75 35.753906 43.4375 35.910156 42.796875 L 35.917969 42.765625 C 35.167969 41.75 34.261719 40.546875 33.707031 39.925781 L 32.886719 39.925781 C 32.335938 40.542969 31.4375 41.730469 30.691406 42.738281 C 30.734375 42.855469 30.761719 42.933594 30.761719 42.933594 C 30.921875 43.339844 31.050781 43.757812 31.144531 44.183594 C 31.3125 44.648438 31.417969 45.136719 31.449219 45.632812 C 31.453125 45.890625 30.742188 50.824219 30.085938 55.464844 C 30.679688 57.292969 31.089844 58.539062 31.628906 59.992188 Z M 31.628906 59.992188 "/>
<path style=" stroke:none;fill-rule:nonzero;fill:rgb(12.941176%,9.019608%,8.235294%);fill-opacity:1;" d="M 29.582031 63.449219 C 26.695312 58.445312 23.839844 53.414062 21.175781 48.285156 C 21.003906 47.949219 20.828125 47.613281 20.65625 47.277344 C 20.546875 47.0625 20.488281 47.109375 20.648438 46.929688 C 20.78125 46.78125 20.921875 46.640625 21.058594 46.496094 C 21.648438 45.886719 22.265625 45.304688 22.882812 44.722656 C 23.015625 44.585938 23.082031 44.390625 23.058594 44.199219 C 23.03125 44.007812 22.921875 43.839844 22.753906 43.738281 L 21.640625 43.101562 L 21.113281 42.800781 L 20.851562 42.652344 L 20.71875 42.578125 C 20.640625 42.523438 20.632812 42.523438 20.691406 42.578125 L 20.777344 42.890625 C 20.863281 42.707031 20.972656 42.53125 21.105469 42.375 C 21.25 42.175781 21.410156 41.980469 21.578125 41.796875 C 21.980469 41.351562 22.414062 40.933594 22.867188 40.539062 C 23.710938 39.808594 24.605469 39.136719 25.542969 38.53125 L 24.625 38.15625 C 26.207031 45.171875 28.191406 52.09375 30.5625 58.882812 C 31.140625 60.523438 31.777344 62.144531 32.429688 63.757812 C 32.53125 64.085938 32.867188 64.277344 33.199219 64.195312 C 33.53125 64.105469 33.726562 63.761719 33.636719 63.425781 C 31.140625 57.117188 29.042969 50.652344 27.363281 44.074219 C 26.816406 42 26.308594 39.917969 25.835938 37.824219 C 25.78125 37.636719 25.648438 37.488281 25.46875 37.414062 C 25.289062 37.339844 25.085938 37.351562 24.914062 37.449219 C 23.441406 38.371094 22.085938 39.464844 20.875 40.710938 C 20.59375 41.011719 20.328125 41.332031 20.082031 41.664062 C 19.804688 41.980469 19.617188 42.363281 19.535156 42.773438 C 19.496094 43.410156 20.078125 43.652344 20.550781 43.917969 L 22.125 44.820312 L 22 43.835938 C 21.417969 44.382812 20.839844 44.933594 20.28125 45.5 C 19.773438 46.019531 19.113281 46.574219 19.34375 47.386719 C 19.464844 47.71875 19.617188 48.042969 19.804688 48.347656 C 19.988281 48.707031 20.175781 49.066406 20.363281 49.421875 C 20.707031 50.085938 21.058594 50.746094 21.410156 51.40625 C 22.871094 54.144531 24.378906 56.855469 25.910156 59.554688 C 26.769531 61.066406 27.632812 62.574219 28.5 64.082031 C 28.902344 64.777344 29.988281 64.148438 29.582031 63.449219 Z M 29.582031 63.449219 "/>
<path style=" stroke:none;fill-rule:nonzero;fill:rgb(12.941176%,9.019608%,8.235294%);fill-opacity:1;" d="M 35.203125 44.441406 C 33.992188 44.441406 32.777344 44.417969 31.5625 44.417969 C 31.21875 44.417969 30.9375 44.699219 30.9375 45.042969 C 30.9375 45.390625 31.21875 45.667969 31.5625 45.667969 C 32.777344 45.667969 33.992188 45.695312 35.203125 45.695312 C 35.550781 45.695312 35.832031 45.414062 35.832031 45.070312 C 35.832031 44.722656 35.550781 44.441406 35.203125 44.441406 Z M 35.203125 44.441406 "/>
<path style=" stroke:none;fill-rule:nonzero;fill:rgb(12.941176%,9.019608%,8.235294%);fill-opacity:1;" d="M 35.304688 42.628906 C 35.152344 43.269531 35.054688 43.917969 34.90625 44.558594 C 34.800781 44.917969 34.757812 45.296875 34.769531 45.671875 C 34.828125 46.328125 34.929688 46.988281 35.011719 47.644531 C 35.328125 50.191406 35.648438 52.738281 35.945312 55.289062 C 35.953125 55.632812 36.230469 55.90625 36.570312 55.917969 C 36.914062 55.914062 37.195312 55.636719 37.195312 55.289062 C 36.902344 52.773438 36.589844 50.253906 36.277344 47.742188 C 36.191406 47.070312 36.105469 46.402344 36.027344 45.730469 C 36.007812 45.449219 36.035156 45.164062 36.113281 44.890625 C 36.261719 44.25 36.363281 43.601562 36.511719 42.960938 C 36.699219 42.179688 35.492188 41.84375 35.304688 42.628906 Z M 35.304688 42.628906 "/>
<path style=" stroke:none;fill-rule:nonzero;fill:rgb(12.941176%,9.019608%,8.235294%);fill-opacity:1;" d="M 30.722656 55.40625 C 31.082031 52.855469 31.449219 50.304688 31.800781 47.753906 C 31.894531 47.09375 32.011719 46.429688 32.0625 45.765625 C 32.078125 45.367188 32.03125 44.96875 31.917969 44.589844 C 31.765625 43.914062 31.5625 43.257812 31.300781 42.617188 C 31.125 42.320312 30.742188 42.222656 30.445312 42.394531 C 30.152344 42.574219 30.054688 42.949219 30.21875 43.25 C 30.328125 43.53125 30.414062 43.820312 30.476562 44.117188 C 30.558594 44.433594 30.671875 44.746094 30.746094 45.066406 C 30.808594 45.328125 30.828125 45.597656 30.800781 45.863281 C 30.726562 46.507812 30.644531 47.066406 30.554688 47.71875 C 30.214844 50.171875 29.859375 52.621094 29.511719 55.070312 C 29.433594 55.402344 29.625 55.742188 29.953125 55.84375 C 30.285156 55.933594 30.628906 55.738281 30.722656 55.402344 Z M 30.722656 55.40625 "/>
<path style=" stroke:none;fill-rule:nonzero;fill:rgb(12.941176%,9.019608%,8.235294%);fill-opacity:1;" d="M 16.4375 53.359375 C 16.511719 56.488281 16.554688 59.613281 16.601562 62.738281 C 16.652344 66.296875 16.699219 69.851562 16.742188 73.40625 C 16.757812 74.714844 16.773438 76.023438 16.785156 77.332031 C 16.789062 78.136719 18.042969 78.140625 18.035156 77.332031 C 18.015625 74.578125 17.976562 71.828125 17.941406 69.074219 C 17.894531 65.414062 17.839844 61.757812 17.78125 58.097656 C 17.753906 56.519531 17.726562 54.941406 17.691406 53.359375 C 17.671875 52.554688 16.417969 52.554688 16.4375 53.359375 Z M 16.4375 53.359375 "/>
<path style=" stroke:none;fill-rule:nonzero;fill:rgb(12.941176%,9.019608%,8.235294%);fill-opacity:1;" d="M 49.976562 77.332031 C 49.992188 74.550781 50.015625 71.769531 50.046875 68.988281 C 50.082031 65.359375 50.125 61.726562 50.171875 58.09375 C 50.195312 56.515625 50.214844 54.9375 50.25 53.359375 C 50.265625 52.554688 49.011719 52.554688 48.996094 53.359375 C 48.933594 56.46875 48.898438 59.578125 48.863281 62.6875 C 48.820312 66.226562 48.785156 69.769531 48.753906 73.308594 C 48.742188 74.648438 48.730469 75.992188 48.722656 77.332031 C 48.71875 78.136719 49.972656 78.136719 49.976562 77.332031 Z M 49.976562 77.332031 "/>
<path style=" stroke:none;fill-rule:nonzero;fill:rgb(12.941176%,9.019608%,8.235294%);fill-opacity:1;" d="M 3.109375 60.539062 C 3.304688 62.378906 3.382812 64.222656 3.421875 66.074219 C 3.441406 67.039062 3.464844 68.007812 3.503906 68.972656 C 3.5 70.074219 3.625 71.171875 3.871094 72.25 C 4.320312 73.925781 5.453125 75.335938 6.992188 76.140625 C 8.628906 76.882812 10.492188 76.941406 12.171875 76.304688 C 13.914062 75.652344 15.417969 74.570312 16.863281 73.425781 C 17.105469 73.179688 17.105469 72.785156 16.863281 72.539062 C 16.617188 72.304688 16.226562 72.304688 15.980469 72.539062 C 13.757812 74.296875 10.796875 76.34375 7.828125 75.148438 C 6.46875 74.546875 5.457031 73.355469 5.078125 71.914062 C 4.859375 70.949219 4.75 69.960938 4.757812 68.972656 C 4.71875 68.066406 4.699219 67.160156 4.679688 66.25 C 4.636719 64.34375 4.5625 62.441406 4.363281 60.539062 C 4.351562 60.199219 4.078125 59.921875 3.738281 59.914062 C 3.390625 59.914062 3.113281 60.195312 3.109375 60.539062 Z M 3.109375 60.539062 "/>
<path style=" stroke:none;fill-rule:nonzero;fill:rgb(12.941176%,9.019608%,8.235294%);fill-opacity:1;" d="M 118.828125 43.820312 C 117.125 42.65625 115.28125 41.714844 113.34375 41.011719 C 113.007812 40.921875 112.664062 41.117188 112.570312 41.449219 C 112.488281 41.78125 112.679688 42.121094 113.011719 42.21875 C 114.84375 42.894531 116.585938 43.796875 118.195312 44.902344 C 118.496094 45.078125 118.878906 44.976562 119.054688 44.679688 C 119.226562 44.378906 119.128906 43.996094 118.828125 43.820312 Z M 118.828125 43.820312 "/>
<path style=" stroke:none;fill-rule:nonzero;fill:rgb(12.941176%,9.019608%,8.235294%);fill-opacity:1;" d="M 117.265625 54.753906 C 117.257812 57.816406 116.871094 60.863281 116.722656 63.917969 C 116.574219 66.972656 116.4375 70.027344 116.414062 73.085938 C 116.40625 74.5 116.402344 75.914062 116.394531 77.332031 C 116.390625 78.136719 117.640625 78.136719 117.644531 77.332031 C 117.675781 71.535156 117.742188 65.742188 118.242188 59.964844 C 118.390625 58.230469 118.511719 56.496094 118.515625 54.753906 C 118.519531 53.945312 117.265625 53.945312 117.265625 54.753906 Z M 117.265625 54.753906 "/>
<path style=" stroke:none;fill-rule:nonzero;fill:rgb(12.941176%,9.019608%,8.235294%);fill-opacity:1;" d="M 85.8125 54.753906 C 85.820312 57.816406 86.203125 60.863281 86.355469 63.917969 C 86.503906 66.972656 86.640625 70.027344 86.660156 73.085938 C 86.671875 74.5 86.675781 75.914062 86.683594 77.332031 C 86.6875 78.136719 87.941406 78.136719 87.9375 77.332031 C 87.90625 71.535156 87.839844 65.742188 87.339844 59.964844 C 87.191406 58.230469 87.070312 56.496094 87.066406 54.753906 C 87.0625 53.945312 85.8125 53.945312 85.8125 54.753906 Z M 85.8125 54.753906 "/>
<path style=" stroke:none;fill-rule:nonzero;fill:rgb(12.941176%,9.019608%,8.235294%);fill-opacity:1;" d="M 128.121094 59.515625 C 128.371094 60.863281 128.660156 62.203125 128.957031 63.542969 C 129.152344 64.40625 129.34375 65.269531 129.535156 66.136719 C 129.796875 67.121094 129.980469 68.128906 130.085938 69.144531 C 130.21875 70.714844 129.609375 72.261719 128.441406 73.320312 C 127.175781 74.417969 125.214844 74.484375 123.636719 74.285156 C 121.789062 74.046875 120.019531 73.390625 118.457031 72.371094 C 117.785156 71.921875 117.15625 73.007812 117.824219 73.453125 C 119.367188 74.449219 121.09375 75.121094 122.902344 75.433594 C 124.730469 75.757812 126.878906 75.746094 128.527344 74.785156 C 130.035156 73.851562 131.042969 72.289062 131.273438 70.53125 C 131.394531 69.480469 131.332031 68.417969 131.085938 67.390625 C 130.878906 66.359375 130.640625 65.332031 130.410156 64.304688 C 130.03125 62.601562 129.644531 60.898438 129.328125 59.179688 C 129.179688 58.390625 127.972656 58.722656 128.121094 59.515625 Z M 128.121094 59.515625 "/>
<path style=" stroke:none;fill-rule:nonzero;fill:rgb(12.941176%,9.019608%,8.235294%);fill-opacity:1;" d="M 77.152344 77.332031 C 77.867188 71.8125 78.558594 66.289062 79.417969 60.792969 C 79.734375 58.464844 80.183594 56.160156 80.761719 53.886719 C 81.132812 52.453125 81.640625 51.058594 82.28125 49.722656 C 82.894531 48.503906 83.734375 47.414062 84.753906 46.507812 C 87.273438 44.238281 90.5625 42.929688 93.570312 41.457031 C 94.292969 41.101562 93.660156 40.019531 92.9375 40.375 C 90.121094 41.757812 87.167969 43.003906 84.675781 44.949219 C 83.546875 45.8125 82.570312 46.863281 81.789062 48.050781 C 81.003906 49.34375 80.390625 50.734375 79.960938 52.191406 C 79.253906 54.546875 78.722656 56.949219 78.378906 59.386719 C 77.917969 62.230469 77.519531 65.082031 77.132812 67.9375 C 76.707031 71.066406 76.304688 74.199219 75.898438 77.332031 C 75.902344 77.679688 76.179688 77.957031 76.527344 77.960938 C 76.867188 77.953125 77.144531 77.675781 77.152344 77.332031 Z M 77.152344 77.332031 "/>
<path style=" stroke:none;fill-rule:nonzero;fill:rgb(12.941176%,9.019608%,8.235294%);fill-opacity:1;" d="M 95.617188 45.796875 C 99.792969 47.488281 104.460938 47.515625 108.65625 45.875 C 108.984375 45.773438 109.175781 45.4375 109.09375 45.101562 C 109 44.769531 108.65625 44.574219 108.324219 44.664062 C 104.34375 46.234375 99.910156 46.207031 95.953125 44.585938 C 95.617188 44.496094 95.273438 44.691406 95.179688 45.023438 C 95.097656 45.359375 95.292969 45.695312 95.621094 45.796875 Z M 95.617188 45.796875 "/>
<path style=" stroke:none;fill-rule:nonzero;fill:rgb(100%,100%,100%);fill-opacity:1;" d="M 133.21875 50.3125 C 133.273438 50.488281 133.316406 50.667969 133.347656 50.847656 C 133.453125 51.714844 133.257812 52.597656 132.796875 53.34375 C 132.152344 54.578125 131.636719 55.875 131.261719 57.214844 C 130.972656 58.226562 130.613281 59.765625 130.503906 60.386719 C 130.433594 60.90625 130.253906 61.402344 129.976562 61.851562 C 129.621094 62.375 129.105469 62.550781 128.585938 62.855469 C 128.320312 63.011719 126.921875 62.914062 126.617188 62.882812 C 125.515625 62.6875 124.46875 62.257812 123.550781 61.617188 C 122.394531 60.796875 122.074219 59.171875 122.882812 55.777344 C 123.039062 55.164062 122.808594 54.414062 122.414062 53.742188 L 121.582031 54.15625 C 121.226562 53.539062 120.902344 52.90625 120.609375 52.257812 C 120.363281 51.675781 120.472656 51 120.898438 50.527344 C 121.074219 50.355469 121.277344 50.214844 121.5 50.105469 L 121.875 49.347656 C 121.363281 49.445312 120.835938 49.316406 120.429688 48.988281 C 120.140625 48.761719 119.980469 48.40625 120.007812 48.042969 C 120.050781 47.476562 120.257812 46.933594 120.601562 46.484375 C 121.019531 45.898438 121.554688 45.40625 122.171875 45.035156 C 122.800781 44.667969 123.582031 44.65625 124.222656 45.007812 C 124.511719 45.191406 124.734375 45.464844 125.03125 45.632812 L 126.222656 45.746094 C 126.375 45.242188 127.085938 44.789062 127.523438 44.746094 C 128.097656 44.695312 128.667969 44.867188 129.113281 45.230469 C 129.386719 45.449219 129.648438 45.683594 129.898438 45.929688 C 130.925781 46.996094 131.804688 48.113281 132.816406 49.390625 C 132.992188 49.675781 133.128906 49.988281 133.21875 50.3125 Z M 133.21875 50.3125 "/>
<path style=" stroke:none;fill-rule:nonzero;fill:rgb(12.941176%,9.019608%,8.235294%);fill-opacity:1;" d="M 126.828125 45.910156 C 127.003906 45.433594 127.65625 45.304688 128.082031 45.40625 C 128.695312 45.550781 129.183594 46.082031 129.601562 46.523438 C 130.125 47.074219 130.617188 47.652344 131.097656 48.238281 C 131.339844 48.535156 131.582031 48.832031 131.816406 49.128906 C 132.050781 49.382812 132.253906 49.660156 132.421875 49.960938 C 132.65625 50.4375 132.765625 50.96875 132.746094 51.5 C 132.714844 52.179688 132.40625 52.722656 132.097656 53.308594 C 131.539062 54.410156 131.085938 55.558594 130.746094 56.746094 C 130.40625 57.867188 130.128906 59.003906 129.914062 60.15625 C 129.800781 60.765625 129.664062 61.453125 129.121094 61.832031 C 128.863281 61.996094 128.597656 62.148438 128.320312 62.285156 C 128.160156 62.375 128.417969 62.269531 128.316406 62.289062 C 128.304688 62.289062 128.191406 62.300781 128.25 62.300781 C 128.207031 62.300781 128.035156 62.3125 127.9375 62.3125 C 126.957031 62.355469 125.976562 62.164062 125.078125 61.761719 C 124.78125 61.628906 124.492188 61.476562 124.210938 61.304688 C 124.03125 61.203125 123.863281 61.082031 123.710938 60.941406 C 123.496094 60.734375 123.332031 60.480469 123.242188 60.195312 C 122.886719 59.070312 123.09375 57.796875 123.328125 56.652344 C 123.496094 55.835938 123.65625 55.140625 123.371094 54.320312 C 123.09375 53.566406 122.664062 52.878906 122.109375 52.300781 C 121.558594 51.707031 120.675781 52.597656 121.222656 53.1875 C 121.753906 53.710938 122.121094 54.375 122.285156 55.101562 C 122.3125 55.417969 122.277344 55.738281 122.179688 56.042969 C 122.089844 56.453125 122.011719 56.871094 121.949219 57.285156 C 121.777344 58.46875 121.675781 59.746094 122.167969 60.871094 C 122.621094 61.910156 123.617188 62.484375 124.617188 62.917969 C 125.691406 63.390625 126.855469 63.609375 128.027344 63.5625 C 129.472656 63.445312 130.679688 62.410156 131.015625 60.996094 C 131.34375 59.710938 131.558594 58.398438 131.9375 57.125 C 132.296875 55.875 132.792969 54.667969 133.414062 53.527344 C 134.160156 52.203125 134.179688 50.589844 133.464844 49.246094 C 133.230469 48.871094 132.957031 48.515625 132.65625 48.183594 C 132.347656 47.796875 132.035156 47.410156 131.71875 47.027344 C 131.144531 46.300781 130.507812 45.625 129.820312 45.003906 C 129.125 44.40625 128.304688 43.988281 127.355469 44.140625 C 126.566406 44.285156 125.910156 44.828125 125.617188 45.574219 C 125.339844 46.332031 126.550781 46.660156 126.828125 45.90625 Z M 126.828125 45.910156 "/>
<path style=" stroke:none;fill-rule:nonzero;fill:rgb(12.941176%,9.019608%,8.235294%);fill-opacity:1;" d="M 129.386719 48.894531 C 128.746094 48.179688 128.085938 47.476562 127.421875 46.78125 C 127.207031 46.542969 126.972656 46.320312 126.722656 46.117188 C 126.085938 45.65625 125.226562 45.640625 124.574219 46.082031 C 123.867188 46.570312 123.515625 47.429688 123.675781 48.277344 C 123.769531 48.609375 124.113281 48.804688 124.445312 48.714844 C 124.777344 48.617188 124.96875 48.277344 124.886719 47.945312 C 124.871094 47.871094 124.871094 47.867188 124.882812 47.929688 C 124.878906 47.886719 124.878906 47.847656 124.882812 47.804688 C 124.890625 47.726562 124.890625 47.71875 124.878906 47.78125 C 124.886719 47.738281 124.898438 47.695312 124.90625 47.652344 C 124.90625 47.652344 124.96875 47.464844 124.933594 47.550781 C 124.96875 47.46875 125.011719 47.386719 125.066406 47.3125 C 125.199219 47.132812 125.410156 47.019531 125.636719 47.007812 C 125.738281 47.011719 125.839844 47.042969 125.929688 47.09375 C 126 47.128906 126.105469 47.222656 126.015625 47.140625 C 126.027344 47.152344 126.039062 47.164062 126.050781 47.171875 C 126.15625 47.285156 126.273438 47.394531 126.378906 47.507812 C 127.101562 48.25 127.8125 49.007812 128.503906 49.78125 C 128.75 50.027344 129.144531 50.027344 129.390625 49.78125 C 129.636719 49.535156 129.632812 49.140625 129.390625 48.894531 Z M 129.386719 48.894531 "/>
<path style=" stroke:none;fill-rule:nonzero;fill:rgb(12.941176%,9.019608%,8.235294%);fill-opacity:1;" d="M 126.75 49.734375 C 126.164062 49.152344 125.527344 48.613281 124.855469 48.128906 C 124.574219 47.886719 124.25 47.695312 123.902344 47.570312 C 123.28125 47.421875 122.632812 47.609375 122.183594 48.066406 C 121.738281 48.519531 121.5625 49.175781 121.722656 49.792969 C 121.878906 50.207031 122.117188 50.585938 122.421875 50.910156 C 122.554688 51.078125 122.699219 51.242188 122.855469 51.394531 C 123.296875 51.835938 123.753906 52.261719 124.210938 52.691406 C 124.457031 52.929688 124.847656 52.925781 125.089844 52.683594 C 125.332031 52.441406 125.335938 52.050781 125.097656 51.804688 C 124.410156 51.210938 123.773438 50.566406 123.1875 49.875 C 123.101562 49.761719 123.023438 49.640625 122.953125 49.515625 C 122.902344 49.417969 122.988281 49.582031 122.941406 49.488281 C 122.925781 49.464844 122.929688 49.4375 122.917969 49.414062 C 122.960938 49.5 122.917969 49.5 122.921875 49.4375 C 122.921875 49.390625 122.925781 49.347656 122.925781 49.304688 C 122.921875 49.210938 122.898438 49.394531 122.925781 49.304688 C 122.933594 49.277344 122.9375 49.246094 122.941406 49.21875 C 122.949219 49.191406 123.027344 48.992188 122.972656 49.105469 C 123 49.046875 123.039062 48.996094 123.066406 48.941406 C 123.089844 48.882812 123.054688 48.960938 123.042969 48.972656 C 123.042969 48.96875 123.148438 48.867188 123.097656 48.910156 C 123.046875 48.953125 123.136719 48.882812 123.152344 48.875 C 123.175781 48.859375 123.199219 48.847656 123.226562 48.832031 C 123.328125 48.773438 123.261719 48.8125 123.234375 48.824219 C 123.269531 48.8125 123.304688 48.800781 123.339844 48.789062 C 123.367188 48.78125 123.394531 48.777344 123.421875 48.769531 C 123.507812 48.742188 123.332031 48.765625 123.421875 48.769531 C 123.449219 48.769531 123.476562 48.769531 123.503906 48.765625 C 123.640625 48.761719 123.453125 48.742188 123.519531 48.765625 C 123.554688 48.777344 123.585938 48.785156 123.621094 48.789062 C 123.683594 48.796875 123.609375 48.789062 123.589844 48.777344 C 123.648438 48.816406 123.707031 48.851562 123.765625 48.890625 C 123.898438 48.984375 124.035156 49.078125 124.171875 49.171875 C 124.773438 49.609375 125.339844 50.09375 125.867188 50.617188 C 126.109375 50.863281 126.507812 50.863281 126.75 50.617188 C 126.996094 50.375 126.996094 49.976562 126.753906 49.730469 Z M 126.75 49.734375 "/>
<path style=" stroke:none;fill-rule:nonzero;fill:rgb(12.941176%,9.019608%,8.235294%);fill-opacity:1;" d="M 122.898438 49.6875 C 122.507812 49.457031 122.046875 49.367188 121.597656 49.433594 C 121.214844 49.519531 120.863281 49.707031 120.578125 49.976562 C 120.0625 50.433594 119.796875 51.109375 119.867188 51.792969 C 119.949219 52.304688 120.125 52.792969 120.382812 53.234375 C 120.574219 53.664062 120.792969 54.078125 121.039062 54.472656 C 121.222656 54.765625 121.597656 54.863281 121.898438 54.699219 C 122.195312 54.519531 122.292969 54.140625 122.121094 53.839844 C 121.917969 53.515625 121.734375 53.175781 121.574219 52.828125 C 121.484375 52.644531 121.394531 52.460938 121.308594 52.277344 C 121.277344 52.210938 121.246094 52.144531 121.214844 52.082031 C 121.199219 52.046875 121.183594 52.015625 121.167969 51.980469 C 121.152344 51.949219 121.148438 51.894531 121.175781 51.996094 C 121.160156 51.945312 121.140625 51.898438 121.128906 51.84375 C 121.121094 51.808594 121.113281 51.773438 121.109375 51.738281 C 121.117188 51.804688 121.117188 51.816406 121.113281 51.769531 C 121.113281 51.703125 121.105469 51.640625 121.109375 51.574219 C 121.109375 51.558594 121.125 51.375 121.105469 51.519531 C 121.113281 51.464844 121.125 51.40625 121.140625 51.355469 C 121.144531 51.328125 121.222656 51.113281 121.164062 51.242188 C 121.1875 51.191406 121.210938 51.144531 121.242188 51.097656 C 121.253906 51.074219 121.351562 50.953125 121.265625 51.050781 C 121.308594 51.003906 121.351562 50.960938 121.398438 50.921875 C 121.414062 50.910156 121.5625 50.789062 121.476562 50.851562 C 121.527344 50.8125 121.578125 50.777344 121.628906 50.746094 C 121.671875 50.71875 121.777344 50.667969 121.667969 50.710938 C 121.695312 50.699219 121.925781 50.648438 121.824219 50.660156 C 121.886719 50.652344 121.949219 50.652344 122.011719 50.660156 C 121.894531 50.644531 122.089844 50.691406 122.09375 50.691406 C 122.164062 50.71875 122.179688 50.722656 122.136719 50.703125 C 122.179688 50.726562 122.222656 50.75 122.265625 50.773438 C 122.566406 50.945312 122.949219 50.847656 123.121094 50.546875 C 123.296875 50.25 123.195312 49.867188 122.898438 49.691406 Z M 122.898438 49.6875 "/>
<path style=" stroke:none;fill-rule:nonzero;fill:rgb(12.941176%,9.019608%,8.235294%);fill-opacity:1;" d="M 125.347656 45.089844 C 125.050781 44.914062 124.8125 44.628906 124.503906 44.445312 C 124.144531 44.238281 123.738281 44.128906 123.328125 44.125 C 122.507812 44.140625 121.722656 44.453125 121.117188 45.007812 C 120.523438 45.488281 120.039062 46.089844 119.703125 46.777344 C 119.363281 47.550781 119.195312 48.464844 119.75 49.175781 C 120.316406 49.835938 121.195312 50.132812 122.042969 49.953125 C 122.375 49.859375 122.570312 49.515625 122.480469 49.179688 C 122.382812 48.851562 122.042969 48.660156 121.710938 48.742188 C 121.449219 48.785156 121.183594 48.730469 120.960938 48.59375 C 120.910156 48.566406 120.867188 48.539062 120.820312 48.503906 C 120.953125 48.601562 120.777344 48.457031 120.753906 48.429688 C 120.71875 48.394531 120.691406 48.351562 120.671875 48.308594 C 120.695312 48.355469 120.636719 48.199219 120.632812 48.1875 C 120.628906 47.890625 120.691406 47.597656 120.820312 47.332031 C 120.972656 47.015625 121.175781 46.730469 121.417969 46.476562 C 121.863281 45.972656 122.402344 45.46875 123.097656 45.382812 C 123.351562 45.34375 123.609375 45.390625 123.839844 45.507812 C 124.152344 45.679688 124.398438 45.984375 124.71875 46.171875 C 125.414062 46.582031 126.042969 45.5 125.347656 45.089844 Z M 125.347656 45.089844 "/>
<path style=" stroke:none;fill-rule:nonzero;fill:rgb(100%,100%,100%);fill-opacity:1;" d="M 8.964844 46.632812 C 9.265625 46.46875 9.488281 46.195312 9.777344 46.011719 C 10.417969 45.660156 11.195312 45.667969 11.828125 46.039062 C 12.445312 46.40625 12.980469 46.898438 13.398438 47.484375 C 13.742188 47.9375 13.949219 48.476562 13.992188 49.042969 C 14.019531 49.410156 13.859375 49.765625 13.570312 49.992188 C 13.164062 50.316406 12.636719 50.449219 12.125 50.351562 L 12.496094 51.105469 C 12.71875 51.214844 12.925781 51.359375 13.101562 51.53125 C 13.523438 52.003906 13.636719 52.679688 13.386719 53.261719 C 13.097656 53.910156 12.773438 54.542969 12.417969 55.160156 L 11.558594 54.792969 C 11.183594 55.453125 10.964844 56.183594 11.117188 56.78125 C 11.925781 60.175781 11.605469 61.800781 10.449219 62.621094 C 9.53125 63.257812 8.484375 63.691406 7.382812 63.882812 C 7.078125 63.914062 5.679688 64.015625 5.414062 63.859375 C 4.894531 63.554688 4.378906 63.378906 4.023438 62.851562 C 3.746094 62.40625 3.566406 61.90625 3.496094 61.386719 C 3.386719 60.769531 3.023438 59.226562 2.738281 58.21875 C 2.363281 56.878906 1.847656 55.582031 1.203125 54.34375 C 0.738281 53.601562 0.546875 52.71875 0.652344 51.851562 C 0.742188 51.335938 0.921875 50.84375 1.183594 50.390625 C 2.195312 49.113281 3.070312 48 4.101562 46.933594 C 4.347656 46.6875 4.609375 46.453125 4.882812 46.230469 C 5.332031 45.871094 5.902344 45.695312 6.476562 45.75 C 6.914062 45.792969 7.625 46.242188 7.777344 46.746094 Z M 8.964844 46.632812 "/>
<path style=" stroke:none;fill-rule:nonzero;fill:rgb(12.941176%,9.019608%,8.235294%);fill-opacity:1;" d="M 8.378906 46.582031 C 7.808594 45.035156 5.859375 44.738281 4.617188 45.652344 C 3.273438 46.644531 2.234375 48.066406 1.207031 49.363281 C 0.957031 49.636719 0.730469 49.9375 0.53125 50.253906 C 0.386719 50.542969 0.265625 50.84375 0.175781 51.152344 C -0.0390625 51.871094 -0.0585938 52.632812 0.121094 53.359375 C 0.292969 54.074219 0.703125 54.675781 1.011719 55.332031 C 1.296875 55.953125 1.550781 56.585938 1.769531 57.230469 C 2.203125 58.511719 2.550781 59.820312 2.8125 61.148438 C 2.957031 61.847656 3.070312 62.5625 3.480469 63.171875 C 3.933594 63.78125 4.5625 64.238281 5.28125 64.480469 C 5.777344 64.59375 6.289062 64.621094 6.792969 64.554688 C 7.324219 64.539062 7.851562 64.453125 8.363281 64.308594 C 9.511719 63.960938 10.839844 63.394531 11.554688 62.382812 C 12.257812 61.386719 12.261719 60.035156 12.128906 58.871094 C 12.078125 58.441406 12.015625 58.019531 11.933594 57.59375 C 11.800781 57.164062 11.722656 56.71875 11.695312 56.265625 C 11.746094 55.492188 12.265625 54.742188 12.777344 54.191406 C 13.324219 53.601562 12.441406 52.714844 11.890625 53.304688 C 10.972656 54.292969 10.214844 55.640625 10.53125 57.023438 C 10.792969 58.171875 11.070312 59.453125 10.898438 60.621094 C 10.855469 60.972656 10.742188 61.316406 10.558594 61.621094 C 10.375 61.894531 10.128906 62.121094 9.839844 62.277344 C 8.941406 62.867188 7.90625 63.214844 6.835938 63.296875 C 6.59375 63.3125 6.351562 63.320312 6.105469 63.320312 C 5.996094 63.320312 5.882812 63.316406 5.769531 63.304688 C 5.785156 63.304688 5.589844 63.257812 5.730469 63.320312 C 5.121094 63.117188 4.617188 62.683594 4.328125 62.105469 C 4.152344 61.5625 4.019531 61.003906 3.9375 60.433594 C 3.800781 59.8125 3.648438 59.195312 3.484375 58.578125 C 3.167969 57.386719 2.761719 56.21875 2.265625 55.085938 C 1.785156 53.980469 0.988281 52.957031 1.328125 51.683594 C 1.390625 51.40625 1.488281 51.140625 1.613281 50.886719 C 1.820312 50.558594 2.054688 50.25 2.316406 49.960938 C 2.855469 49.289062 3.398438 48.621094 3.976562 47.980469 C 4.449219 47.457031 5.007812 46.75 5.683594 46.480469 C 6.152344 46.289062 6.957031 46.335938 7.171875 46.914062 C 7.449219 47.664062 8.660156 47.339844 8.378906 46.582031 Z M 8.378906 46.582031 "/>
<path style=" stroke:none;fill-rule:nonzero;fill:rgb(12.941176%,9.019608%,8.235294%);fill-opacity:1;" d="M 5.496094 50.785156 C 6.1875 50.011719 6.898438 49.253906 7.621094 48.507812 C 7.730469 48.398438 7.847656 48.289062 7.953125 48.175781 C 7.964844 48.164062 7.976562 48.152344 7.988281 48.144531 C 7.898438 48.226562 8.003906 48.132812 8.070312 48.097656 C 8.128906 48.0625 8.191406 48.039062 8.257812 48.023438 C 8.359375 47.996094 8.257812 48.007812 8.367188 48.011719 C 8.59375 48.023438 8.800781 48.136719 8.933594 48.316406 C 8.980469 48.382812 9.019531 48.449219 9.054688 48.523438 C 9.074219 48.5625 9.074219 48.566406 9.054688 48.527344 C 9.070312 48.570312 9.082031 48.613281 9.09375 48.65625 C 9.105469 48.695312 9.113281 48.738281 9.121094 48.78125 C 9.113281 48.722656 9.109375 48.730469 9.117188 48.804688 C 9.117188 48.847656 9.117188 48.890625 9.117188 48.933594 C 9.128906 48.867188 9.128906 48.871094 9.113281 48.945312 C 9.03125 49.28125 9.222656 49.617188 9.550781 49.71875 C 9.886719 49.804688 10.226562 49.609375 10.320312 49.277344 C 10.464844 48.550781 10.226562 47.800781 9.691406 47.292969 C 9.101562 46.734375 8.226562 46.609375 7.503906 46.976562 C 7.195312 47.160156 6.921875 47.394531 6.691406 47.667969 C 6.351562 48.019531 6.015625 48.375 5.679688 48.734375 C 5.320312 49.121094 4.960938 49.503906 4.613281 49.898438 C 4.375 50.144531 4.375 50.535156 4.613281 50.785156 C 4.855469 51.027344 5.25 51.027344 5.496094 50.785156 Z M 5.496094 50.785156 "/>
<path style=" stroke:none;fill-rule:nonzero;fill:rgb(12.941176%,9.019608%,8.235294%);fill-opacity:1;" d="M 8.132812 51.625 C 8.597656 51.164062 9.089844 50.734375 9.609375 50.335938 C 9.742188 50.238281 9.878906 50.140625 10.015625 50.046875 C 10.148438 49.972656 10.269531 49.890625 10.386719 49.792969 C 10.425781 49.753906 10.378906 49.796875 10.355469 49.804688 C 10.386719 49.792969 10.421875 49.785156 10.453125 49.777344 C 10.5 49.761719 10.546875 49.78125 10.445312 49.777344 C 10.472656 49.777344 10.5 49.773438 10.527344 49.777344 C 10.546875 49.777344 10.660156 49.785156 10.578125 49.777344 C 10.503906 49.765625 10.597656 49.78125 10.605469 49.78125 C 10.640625 49.792969 10.679688 49.804688 10.714844 49.8125 C 10.824219 49.84375 10.691406 49.796875 10.75 49.828125 C 10.808594 49.859375 10.867188 49.894531 10.921875 49.933594 C 10.816406 49.851562 11.007812 50.027344 10.941406 49.953125 C 10.894531 49.898438 10.988281 50.035156 11.003906 50.0625 C 11.058594 50.164062 11.015625 50.089844 11.007812 50.066406 C 11.023438 50.109375 11.039062 50.15625 11.050781 50.199219 C 11.0625 50.246094 11.078125 50.402344 11.074219 50.28125 C 11.078125 50.351562 11.078125 50.421875 11.074219 50.492188 C 11.074219 50.472656 11.105469 50.394531 11.074219 50.445312 C 11.066406 50.457031 11.03125 50.566406 11.054688 50.507812 C 11.078125 50.453125 11.03125 50.550781 11.03125 50.550781 C 11 50.601562 10.972656 50.648438 10.941406 50.695312 C 10.816406 50.886719 10.675781 51.070312 10.523438 51.238281 C 10.378906 51.398438 10.226562 51.546875 10.070312 51.699219 C 9.6875 52.074219 9.292969 52.441406 8.898438 52.8125 C 8.660156 53.058594 8.660156 53.453125 8.898438 53.699219 C 9.148438 53.933594 9.539062 53.933594 9.785156 53.699219 C 10.191406 53.316406 10.597656 52.9375 10.992188 52.550781 C 11.449219 52.140625 11.835938 51.660156 12.140625 51.125 C 12.417969 50.554688 12.378906 49.875 12.027344 49.34375 C 11.679688 48.8125 11.078125 48.5 10.441406 48.527344 C 10.054688 48.566406 9.683594 48.71875 9.382812 48.96875 C 8.621094 49.496094 7.90625 50.089844 7.246094 50.742188 C 7 50.984375 7 51.382812 7.246094 51.625 C 7.492188 51.871094 7.886719 51.871094 8.132812 51.625 Z M 8.132812 51.625 "/>
<path style=" stroke:none;fill-rule:nonzero;fill:rgb(12.941176%,9.019608%,8.235294%);fill-opacity:1;" d="M 11.730469 51.773438 C 11.773438 51.75 11.816406 51.726562 11.863281 51.707031 C 11.820312 51.722656 11.832031 51.71875 11.902344 51.691406 C 11.925781 51.6875 12.101562 51.648438 11.984375 51.660156 C 12.046875 51.65625 12.109375 51.65625 12.171875 51.660156 C 12.066406 51.652344 12.269531 51.695312 12.296875 51.699219 C 12.351562 51.71875 12.34375 51.714844 12.273438 51.691406 C 12.304688 51.707031 12.339844 51.726562 12.371094 51.746094 C 12.421875 51.777344 12.472656 51.816406 12.519531 51.851562 C 12.4375 51.789062 12.566406 51.890625 12.582031 51.90625 C 12.632812 51.949219 12.683594 52 12.734375 52.050781 C 12.660156 51.972656 12.734375 52.058594 12.757812 52.097656 C 12.785156 52.144531 12.8125 52.195312 12.832031 52.242188 C 12.777344 52.117188 12.847656 52.300781 12.851562 52.328125 C 12.871094 52.390625 12.882812 52.453125 12.894531 52.519531 C 12.878906 52.40625 12.890625 52.53125 12.890625 52.578125 C 12.890625 52.632812 12.886719 52.6875 12.886719 52.742188 C 12.878906 52.816406 12.882812 52.816406 12.890625 52.742188 C 12.886719 52.777344 12.878906 52.8125 12.867188 52.847656 C 12.855469 52.898438 12.835938 52.949219 12.824219 53 C 12.859375 52.871094 12.808594 53.03125 12.792969 53.070312 C 12.761719 53.140625 12.726562 53.210938 12.695312 53.28125 C 12.605469 53.464844 12.515625 53.648438 12.425781 53.828125 C 12.265625 54.179688 12.085938 54.519531 11.878906 54.84375 C 11.707031 55.140625 11.804688 55.523438 12.105469 55.699219 C 12.402344 55.867188 12.78125 55.765625 12.960938 55.476562 C 13.207031 55.078125 13.429688 54.664062 13.617188 54.238281 C 13.878906 53.792969 14.050781 53.304688 14.136719 52.796875 C 14.203125 52.113281 13.9375 51.4375 13.421875 50.980469 C 13.136719 50.710938 12.785156 50.523438 12.402344 50.4375 C 11.953125 50.367188 11.492188 50.457031 11.101562 50.691406 C 10.800781 50.867188 10.703125 51.25 10.875 51.546875 C 11.050781 51.847656 11.433594 51.949219 11.734375 51.773438 Z M 11.730469 51.773438 "/>
<path style=" stroke:none;fill-rule:nonzero;fill:rgb(12.941176%,9.019608%,8.235294%);fill-opacity:1;" d="M 9.28125 47.175781 C 9.601562 46.988281 9.847656 46.683594 10.160156 46.511719 C 10.390625 46.394531 10.648438 46.351562 10.902344 46.386719 C 11.597656 46.472656 12.136719 46.976562 12.582031 47.484375 C 12.816406 47.722656 13.011719 48 13.164062 48.296875 C 13.300781 48.574219 13.371094 48.882812 13.367188 49.195312 C 13.363281 49.214844 13.300781 49.371094 13.328125 49.3125 C 13.328125 49.3125 13.214844 49.476562 13.269531 49.410156 C 13.246094 49.4375 13.042969 49.609375 13.179688 49.511719 C 13.132812 49.542969 13.089844 49.574219 13.039062 49.601562 C 13.007812 49.617188 12.878906 49.683594 12.886719 49.679688 C 12.890625 49.679688 12.738281 49.722656 12.695312 49.734375 C 12.5625 49.761719 12.425781 49.765625 12.289062 49.746094 C 11.957031 49.667969 11.617188 49.859375 11.519531 50.1875 C 11.429688 50.519531 11.625 50.863281 11.957031 50.957031 C 12.707031 51.109375 13.488281 50.898438 14.0625 50.394531 C 14.707031 49.792969 14.710938 48.914062 14.4375 48.132812 C 14.148438 47.394531 13.691406 46.734375 13.097656 46.207031 C 12.523438 45.621094 11.765625 45.246094 10.953125 45.144531 C 10.5 45.097656 10.042969 45.179688 9.636719 45.378906 C 9.261719 45.554688 8.996094 45.894531 8.652344 46.097656 C 7.957031 46.507812 8.589844 47.589844 9.285156 47.179688 Z M 9.28125 47.175781 "/>
<path style=" stroke:none;fill-rule:nonzero;fill:rgb(52.156863%,50.196078%,49.803922%);fill-opacity:1;" d="M 46.074219 8.171875 C 45.519531 7.285156 44.839844 6.484375 44.050781 5.796875 L 42.171875 4.125 C 39.734375 1.410156 36.5 0.660156 33.3125 0.660156 C 30.082031 0.613281 26.933594 1.652344 24.363281 3.605469 C 23.402344 4.359375 22.554688 5.242188 21.839844 6.234375 C 20.203125 7.835938 18.898438 11.332031 18.996094 14.800781 C 18.984375 16.371094 19.179688 17.933594 19.566406 19.457031 C 19.792969 19.371094 20.03125 19.328125 20.269531 19.320312 C 20.757812 19.300781 21.238281 19.476562 21.597656 19.808594 L 22.125 20.175781 C 22.164062 19.46875 22.242188 18.761719 22.355469 18.0625 C 22.601562 16.578125 24.140625 15.890625 24.796875 14.5625 C 25.171875 13.800781 25.398438 12.90625 26.042969 12.363281 C 26.558594 11.988281 27.171875 11.773438 27.804688 11.75 C 29.589844 11.679688 31.378906 11.765625 33.148438 11.996094 C 34.074219 12.046875 34.976562 12.234375 36.296875 12.402344 C 37.015625 12.492188 38.34375 12.730469 38.855469 12.832031 C 40.855469 13.292969 41.621094 13.792969 42.628906 15.152344 C 43.152344 15.996094 43.546875 16.910156 43.800781 17.867188 L 45.125 19.808594 C 45.484375 19.472656 45.960938 19.300781 46.453125 19.320312 C 46.675781 19.328125 46.894531 19.367188 47.105469 19.4375 C 47.527344 17.929688 47.714844 16.363281 47.660156 14.800781 C 47.53125 11.734375 47.023438 9.75 46.074219 8.171875 Z M 46.074219 8.171875 "/>
<path style=" stroke:none;fill-rule:nonzero;fill:rgb(12.941176%,9.019608%,8.235294%);fill-opacity:1;" d="M 31.363281 29.769531 C 32.082031 30.140625 32.878906 30.328125 33.6875 30.308594 C 34.523438 30.34375 35.351562 30.101562 36.035156 29.613281 C 36.277344 29.371094 36.277344 28.972656 36.035156 28.726562 C 35.785156 28.492188 35.398438 28.492188 35.148438 28.726562 C 35.339844 28.578125 35.195312 28.6875 35.148438 28.722656 C 35.101562 28.753906 35.054688 28.777344 35.003906 28.804688 C 34.980469 28.816406 34.953125 28.828125 34.929688 28.84375 C 34.855469 28.878906 34.875 28.828125 34.960938 28.832031 C 34.890625 28.847656 34.824219 28.871094 34.761719 28.902344 C 34.582031 28.960938 34.398438 29 34.210938 29.027344 C 34.304688 29.015625 34.210938 29.027344 34.167969 29.03125 C 34.113281 29.039062 34.058594 29.042969 34.003906 29.046875 C 33.875 29.054688 33.742188 29.058594 33.613281 29.054688 C 33.496094 29.054688 33.378906 29.050781 33.261719 29.042969 C 33.207031 29.039062 33.15625 29.035156 33.101562 29.03125 C 33.089844 29.03125 32.894531 29 33.03125 29.023438 C 32.859375 28.996094 32.6875 28.957031 32.515625 28.910156 C 32.445312 28.886719 32.375 28.859375 32.304688 28.835938 C 32.148438 28.78125 32.402344 28.886719 32.257812 28.820312 C 32.171875 28.777344 32.082031 28.734375 31.996094 28.6875 C 31.699219 28.515625 31.316406 28.613281 31.140625 28.914062 C 30.964844 29.210938 31.066406 29.597656 31.367188 29.769531 Z M 31.363281 29.769531 "/>
<path style=" stroke:none;fill-rule:nonzero;fill:rgb(12.941176%,9.019608%,8.235294%);fill-opacity:1;" d="M 33.355469 24.3125 C 33.460938 24.699219 33.546875 25.089844 33.609375 25.480469 L 33.589844 25.316406 C 33.597656 25.367188 33.597656 25.421875 33.59375 25.476562 L 33.613281 25.308594 C 33.613281 25.332031 33.605469 25.359375 33.597656 25.382812 L 33.660156 25.230469 C 33.652344 25.25 33.644531 25.265625 33.632812 25.277344 L 33.730469 25.152344 C 33.722656 25.167969 33.707031 25.179688 33.695312 25.191406 L 33.820312 25.09375 C 33.789062 25.109375 33.757812 25.128906 33.726562 25.140625 L 33.875 25.078125 C 33.828125 25.101562 33.773438 25.117188 33.71875 25.125 L 33.886719 25.101562 C 33.835938 25.109375 33.789062 25.109375 33.738281 25.101562 L 33.90625 25.125 C 33.851562 25.117188 33.796875 25.101562 33.742188 25.097656 C 33.660156 25.070312 33.574219 25.066406 33.492188 25.085938 C 33.410156 25.089844 33.328125 25.113281 33.257812 25.160156 C 32.960938 25.332031 32.859375 25.71875 33.035156 26.015625 C 33.113281 26.160156 33.25 26.261719 33.410156 26.304688 C 33.535156 26.320312 33.660156 26.355469 33.789062 26.359375 C 33.988281 26.359375 34.183594 26.316406 34.359375 26.222656 C 34.582031 26.121094 34.75 25.921875 34.8125 25.683594 C 34.851562 25.488281 34.851562 25.292969 34.804688 25.101562 C 34.742188 24.726562 34.65625 24.351562 34.558594 23.984375 C 34.46875 23.648438 34.121094 23.453125 33.789062 23.546875 C 33.457031 23.636719 33.261719 23.984375 33.351562 24.316406 Z M 33.355469 24.3125 "/>
<path style=" stroke:none;fill-rule:nonzero;fill:rgb(12.941176%,9.019608%,8.235294%);fill-opacity:1;" d="M 27.191406 21 C 26.996094 21.636719 27.125 23.09375 28.320312 23.214844 C 29.90625 23.207031 29.992188 21.445312 29.457031 20.617188 C 29.023438 19.9375 27.738281 19.65625 27.191406 21 Z M 27.191406 21 "/>
<path style=" stroke:none;fill-rule:nonzero;fill:rgb(12.941176%,9.019608%,8.235294%);fill-opacity:1;" d="M 39.933594 21 C 40.128906 21.636719 40 23.09375 38.800781 23.214844 C 37.214844 23.207031 37.132812 21.445312 37.664062 20.617188 C 38.101562 19.9375 39.386719 19.65625 39.933594 21 Z M 39.933594 21 "/>
<path style=" stroke:none;fill-rule:nonzero;fill:rgb(12.941176%,9.019608%,8.235294%);fill-opacity:1;" d="M 22.042969 19.363281 C 21.261719 18.667969 20.148438 18.5 19.199219 18.9375 C 18.527344 19.273438 18.046875 19.894531 17.882812 20.628906 C 17.417969 22.34375 17.863281 24.34375 18.84375 25.808594 C 19.5 26.785156 20.527344 27.660156 21.78125 27.496094 C 22.121094 27.484375 22.398438 27.210938 22.40625 26.871094 C 22.40625 26.523438 22.125 26.246094 21.78125 26.242188 C 20.070312 26.464844 19.101562 23.976562 18.984375 22.597656 C 18.921875 21.878906 18.921875 20.96875 19.363281 20.355469 C 19.300781 20.441406 19.421875 20.289062 19.425781 20.285156 C 19.449219 20.261719 19.507812 20.199219 19.527344 20.1875 C 19.65625 20.089844 19.808594 20.019531 19.96875 19.984375 C 20.382812 19.875 20.828125 19.972656 21.15625 20.25 C 21.753906 20.785156 22.644531 19.902344 22.039062 19.363281 Z M 22.042969 19.363281 "/>
<path style=" stroke:none;fill-rule:nonzero;fill:rgb(12.941176%,9.019608%,8.235294%);fill-opacity:1;" d="M 45.566406 20.25 C 45.878906 19.984375 46.300781 19.882812 46.699219 19.976562 C 46.878906 20.007812 47.050781 20.078125 47.195312 20.1875 C 47.160156 20.160156 47.316406 20.300781 47.296875 20.285156 C 47.3125 20.300781 47.425781 20.445312 47.359375 20.355469 C 47.800781 20.972656 47.800781 21.878906 47.738281 22.601562 C 47.621094 23.980469 46.652344 26.464844 44.941406 26.242188 C 44.59375 26.246094 44.316406 26.523438 44.316406 26.871094 C 44.324219 27.214844 44.597656 27.488281 44.941406 27.496094 C 47.003906 27.765625 48.253906 25.511719 48.765625 23.847656 C 49.222656 22.375 49.238281 20.03125 47.792969 19.082031 C 46.808594 18.476562 45.539062 18.589844 44.679688 19.363281 C 44.078125 19.902344 44.964844 20.785156 45.566406 20.25 Z M 45.566406 20.25 "/>
<path style=" stroke:none;fill-rule:nonzero;fill:rgb(12.941176%,9.019608%,8.235294%);fill-opacity:1;" d="M 44.410156 25.816406 C 44.21875 26.648438 43.953125 27.460938 43.609375 28.246094 C 43.675781 28.085938 43.5625 28.339844 43.539062 28.394531 C 43.480469 28.519531 43.417969 28.640625 43.355469 28.761719 C 43.210938 29.039062 43.050781 29.3125 42.890625 29.578125 C 42.0625 30.984375 41.007812 32.242188 39.765625 33.300781 C 39.082031 33.890625 38.273438 34.3125 37.402344 34.539062 C 36.617188 34.722656 36.949219 35.929688 37.734375 35.746094 C 39.53125 35.328125 41.019531 34.023438 42.191406 32.65625 C 43.199219 31.527344 44.035156 30.257812 44.683594 28.890625 C 44.714844 28.824219 44.742188 28.757812 44.769531 28.691406 C 44.777344 28.675781 44.863281 28.464844 44.832031 28.535156 C 44.867188 28.464844 45.019531 28.101562 45.085938 27.925781 C 45.308594 27.347656 45.484375 26.753906 45.617188 26.148438 C 45.78125 25.359375 44.574219 25.023438 44.410156 25.816406 Z M 44.410156 25.816406 "/>
<path style=" stroke:none;fill-rule:nonzero;fill:rgb(12.941176%,9.019608%,8.235294%);fill-opacity:1;" d="M 21.070312 26.105469 C 21.605469 28.46875 22.714844 30.664062 24.296875 32.5 C 25.816406 34.261719 27.769531 35.65625 30.113281 36.003906 C 30.445312 36.085938 30.78125 35.894531 30.882812 35.566406 C 30.972656 35.234375 30.777344 34.890625 30.445312 34.796875 C 28.289062 34.472656 26.582031 33.234375 25.179688 31.613281 C 23.75 29.933594 22.753906 27.925781 22.277344 25.773438 C 22.101562 24.984375 20.894531 25.320312 21.070312 26.105469 Z M 21.070312 26.105469 "/>
<path style=" stroke:none;fill-rule:nonzero;fill:rgb(12.941176%,9.019608%,8.235294%);fill-opacity:1;" d="M 42.613281 3.683594 C 39.25 -0.015625 33.582031 -0.695312 28.953125 0.617188 C 26.621094 1.265625 24.492188 2.492188 22.761719 4.1875 C 22.292969 4.664062 21.855469 5.171875 21.449219 5.703125 C 21.128906 6.117188 20.765625 6.488281 20.472656 6.925781 C 19.8125 7.9375 19.3125 9.046875 18.984375 10.210938 C 18.148438 13.230469 18.125 16.414062 18.917969 19.445312 C 19.117188 20.226562 20.324219 19.894531 20.125 19.113281 C 19.484375 16.628906 19.421875 14.027344 19.941406 11.515625 C 20.183594 10.367188 20.589844 9.257812 21.148438 8.222656 C 21.367188 7.8125 21.628906 7.425781 21.921875 7.0625 C 22.277344 6.640625 22.613281 6.207031 22.976562 5.789062 C 26 2.316406 30.621094 0.90625 35.140625 1.378906 C 37.65625 1.585938 40.003906 2.722656 41.726562 4.570312 C 42.273438 5.167969 43.15625 4.277344 42.613281 3.683594 Z M 42.613281 3.683594 "/>
<path style=" stroke:none;fill-rule:nonzero;fill:rgb(12.941176%,9.019608%,8.235294%);fill-opacity:1;" d="M 47.746094 19.445312 C 48.0625 18.238281 48.246094 17 48.296875 15.753906 C 48.3125 14.574219 48.230469 13.390625 48.054688 12.222656 C 47.859375 10.5 47.261719 8.847656 46.316406 7.398438 C 45.789062 6.648438 45.175781 5.964844 44.492188 5.355469 C 43.898438 4.8125 43.007812 5.695312 43.605469 6.242188 C 44.683594 7.164062 45.539062 8.320312 46.105469 9.621094 C 46.816406 11.371094 47.019531 13.339844 47.042969 15.214844 C 47.042969 16.53125 46.871094 17.839844 46.539062 19.113281 C 46.347656 19.894531 47.554688 20.230469 47.746094 19.445312 Z M 47.746094 19.445312 "/>
<path style=" stroke:none;fill-rule:nonzero;fill:rgb(12.941176%,9.019608%,8.235294%);fill-opacity:1;" d="M 33.3125 11.390625 C 32.339844 11.238281 31.359375 11.152344 30.375 11.128906 C 29.4375 11.054688 28.492188 11.0625 27.554688 11.152344 C 26.820312 11.210938 26.125 11.492188 25.558594 11.957031 C 25.101562 12.425781 24.753906 12.988281 24.542969 13.605469 C 24.34375 14.132812 24.058594 14.625 23.695312 15.058594 C 23.308594 15.496094 22.871094 15.886719 22.507812 16.347656 C 22.082031 16.875 21.804688 17.503906 21.707031 18.175781 C 21.59375 18.925781 21.539062 19.679688 21.476562 20.4375 C 21.414062 21.242188 22.667969 21.234375 22.730469 20.4375 C 22.8125 19.402344 22.746094 18.144531 23.371094 17.269531 C 23.988281 16.40625 24.890625 15.800781 25.363281 14.828125 C 25.582031 14.285156 25.832031 13.753906 26.109375 13.242188 C 26.4375 12.769531 26.957031 12.464844 27.53125 12.414062 C 28.375 12.3125 29.226562 12.296875 30.070312 12.367188 C 31.046875 12.382812 32.019531 12.460938 32.984375 12.597656 C 33.316406 12.679688 33.652344 12.488281 33.753906 12.160156 C 33.839844 11.828125 33.648438 11.484375 33.316406 11.390625 Z M 33.3125 11.390625 "/>
<path style=" stroke:none;fill-rule:nonzero;fill:rgb(12.941176%,9.019608%,8.235294%);fill-opacity:1;" d="M 38.6875 13.433594 C 39.03125 13.515625 39.375 13.601562 39.710938 13.707031 C 39.847656 13.75 39.980469 13.796875 40.113281 13.847656 C 40.136719 13.859375 40.324219 13.9375 40.21875 13.890625 C 40.273438 13.914062 40.324219 13.9375 40.378906 13.964844 C 40.804688 14.152344 41.1875 14.429688 41.503906 14.773438 C 41.871094 15.136719 42.179688 15.550781 42.417969 16.011719 C 42.738281 16.660156 43 17.335938 43.199219 18.035156 C 43.433594 18.800781 44.644531 18.476562 44.40625 17.703125 C 44.175781 16.902344 43.871094 16.121094 43.496094 15.378906 C 43.199219 14.832031 42.824219 14.328125 42.386719 13.886719 C 41.472656 12.945312 40.273438 12.515625 39.019531 12.226562 C 38.6875 12.136719 38.339844 12.332031 38.25 12.664062 C 38.15625 13 38.351562 13.34375 38.6875 13.433594 Z M 38.6875 13.433594 "/>
<path style=" stroke:none;fill-rule:nonzero;fill:rgb(12.941176%,9.019608%,8.235294%);fill-opacity:1;" d="M 36.972656 12.007812 C 36.789062 11.222656 36.175781 10.550781 35.558594 10.070312 C 34.53125 9.300781 33.316406 8.824219 32.042969 8.6875 C 31.699219 8.691406 31.417969 8.96875 31.417969 9.316406 C 31.425781 9.65625 31.703125 9.933594 32.042969 9.941406 C 32.589844 10.023438 33.128906 10.167969 33.640625 10.375 C 33.539062 10.332031 33.695312 10.398438 33.714844 10.40625 C 33.777344 10.4375 33.839844 10.464844 33.902344 10.496094 C 34.011719 10.550781 34.121094 10.609375 34.226562 10.671875 C 34.328125 10.730469 34.429688 10.792969 34.527344 10.859375 C 34.578125 10.894531 34.628906 10.929688 34.675781 10.964844 C 34.703125 10.984375 34.828125 11.078125 34.710938 10.988281 C 34.875 11.113281 35.027344 11.25 35.171875 11.394531 C 35.230469 11.457031 35.289062 11.519531 35.347656 11.585938 C 35.378906 11.621094 35.40625 11.660156 35.441406 11.695312 C 35.472656 11.730469 35.457031 11.71875 35.402344 11.648438 C 35.417969 11.667969 35.433594 11.691406 35.449219 11.710938 C 35.539062 11.835938 35.617188 11.96875 35.6875 12.105469 C 35.695312 12.125 35.714844 12.1875 35.730469 12.191406 C 35.679688 12.171875 35.675781 12.046875 35.710938 12.15625 C 35.730469 12.21875 35.75 12.277344 35.765625 12.339844 C 35.855469 12.671875 36.203125 12.867188 36.535156 12.777344 C 36.867188 12.683594 37.066406 12.339844 36.972656 12.007812 Z M 36.972656 12.007812 "/>
<path style=" stroke:none;fill-rule:nonzero;fill:rgb(12.941176%,9.019608%,8.235294%);fill-opacity:1;" d="M 102.863281 63.269531 C 103.941406 60.625 105.035156 57.988281 105.964844 55.28125 C 107.054688 52.113281 108.21875 48.96875 109.253906 45.78125 C 109.832031 43.988281 110.367188 42.183594 110.800781 40.355469 L 109.878906 40.730469 C 110.734375 41.246094 111.519531 41.863281 112.21875 42.574219 C 112.898438 43.242188 113.644531 44.003906 114.023438 44.894531 L 113.9375 44.578125 L 113.941406 44.683594 L 114.027344 44.367188 C 114.101562 44.230469 113.992188 44.359375 113.921875 44.402344 C 113.832031 44.460938 113.742188 44.515625 113.652344 44.574219 C 113.464844 44.695312 113.28125 44.816406 113.097656 44.941406 C 112.734375 45.183594 112.375 45.429688 112.007812 45.664062 C 111.820312 45.78125 111.707031 45.988281 111.707031 46.207031 C 111.707031 46.425781 111.820312 46.632812 112.007812 46.746094 C 112.496094 47.109375 113.015625 47.433594 113.496094 47.804688 C 113.613281 47.898438 113.726562 47.992188 113.839844 48.09375 C 113.894531 48.144531 114.15625 48.328125 114.171875 48.414062 C 114.152344 48.308594 114.078125 48.515625 114.058594 48.546875 C 113.976562 48.703125 113.890625 48.859375 113.808594 49.015625 C 113.179688 50.164062 112.539062 51.304688 111.878906 52.4375 C 110.515625 54.785156 109.101562 57.109375 107.671875 59.417969 C 106.867188 60.714844 106.0625 62.007812 105.246094 63.296875 C 104.816406 63.984375 105.898438 64.613281 106.328125 63.929688 C 107.886719 61.457031 109.433594 58.972656 110.945312 56.46875 C 111.710938 55.199219 112.464844 53.925781 113.207031 52.640625 C 113.894531 51.445312 114.621094 50.246094 115.234375 49.007812 C 115.640625 48.183594 115.207031 47.613281 114.578125 47.082031 C 113.964844 46.566406 113.285156 46.140625 112.636719 45.664062 L 112.636719 46.746094 C 113.042969 46.488281 113.441406 46.214844 113.839844 45.949219 C 114.242188 45.734375 114.621094 45.484375 114.972656 45.195312 C 115.617188 44.53125 114.660156 43.472656 114.242188 42.945312 C 113.210938 41.625 111.945312 40.507812 110.511719 39.648438 C 110.34375 39.550781 110.140625 39.539062 109.960938 39.613281 C 109.78125 39.683594 109.644531 39.835938 109.59375 40.023438 C 108.765625 43.292969 107.769531 46.515625 106.605469 49.679688 C 105.570312 52.617188 104.597656 55.585938 103.464844 58.484375 C 102.882812 59.976562 102.261719 61.453125 101.65625 62.9375 C 101.566406 63.269531 101.761719 63.613281 102.09375 63.707031 C 102.425781 63.792969 102.765625 63.597656 102.863281 63.269531 Z M 102.863281 63.269531 "/>
<path style=" stroke:none;fill-rule:nonzero;fill:rgb(12.941176%,9.019608%,8.235294%);fill-opacity:1;" d="M 102.375 62.9375 C 101.296875 60.289062 100.203125 57.65625 99.273438 54.949219 C 98.183594 51.78125 97.019531 48.636719 95.984375 45.445312 C 95.40625 43.65625 94.871094 41.851562 94.4375 40.023438 C 94.382812 39.835938 94.25 39.683594 94.070312 39.609375 C 93.890625 39.535156 93.6875 39.550781 93.519531 39.644531 C 92.082031 40.507812 90.820312 41.625 89.789062 42.941406 C 89.367188 43.476562 88.421875 44.519531 89.058594 45.195312 C 89.390625 45.46875 89.75 45.710938 90.132812 45.910156 C 90.550781 46.1875 90.96875 46.472656 91.390625 46.746094 L 91.390625 45.664062 C 90.832031 46.074219 90.246094 46.453125 89.699219 46.878906 C 89.191406 47.277344 88.570312 47.753906 88.621094 48.46875 C 88.679688 48.785156 88.804688 49.085938 88.984375 49.351562 C 89.15625 49.667969 89.324219 49.980469 89.5 50.292969 C 89.84375 50.914062 90.191406 51.535156 90.546875 52.152344 C 92.007812 54.714844 93.539062 57.238281 95.089844 59.746094 C 95.953125 61.144531 96.824219 62.539062 97.703125 63.929688 C 98.128906 64.609375 99.214844 63.980469 98.785156 63.296875 C 95.925781 58.753906 93.074219 54.191406 90.480469 49.484375 C 90.308594 49.175781 90.140625 48.863281 89.96875 48.546875 C 89.957031 48.523438 89.882812 48.308594 89.867188 48.394531 C 89.867188 48.386719 89.792969 48.5625 89.90625 48.367188 C 90.015625 48.230469 90.144531 48.109375 90.289062 48.011719 C 90.832031 47.542969 91.445312 47.171875 92.023438 46.75 C 92.210938 46.632812 92.324219 46.429688 92.324219 46.207031 C 92.324219 45.988281 92.210938 45.78125 92.023438 45.667969 C 91.65625 45.429688 91.292969 45.183594 90.929688 44.941406 C 90.765625 44.828125 90.597656 44.71875 90.429688 44.609375 C 90.339844 44.550781 90.25 44.496094 90.160156 44.4375 C 90.09375 44.398438 89.910156 44.207031 90.003906 44.367188 L 90.089844 44.683594 L 90.09375 44.578125 L 90.007812 44.894531 C 90.386719 44.007812 91.128906 43.242188 91.808594 42.574219 C 92.511719 41.867188 93.296875 41.246094 94.148438 40.730469 L 93.230469 40.355469 C 94.054688 43.625 95.054688 46.847656 96.21875 50.011719 C 97.25 52.949219 98.222656 55.917969 99.359375 58.820312 C 99.941406 60.3125 100.5625 61.789062 101.167969 63.269531 C 101.269531 63.597656 101.605469 63.789062 101.9375 63.710938 C 102.269531 63.617188 102.464844 63.273438 102.375 62.9375 Z M 102.375 62.9375 "/>
<path style=" stroke:none;fill-rule:nonzero;fill:rgb(12.941176%,9.019608%,8.235294%);fill-opacity:1;" d="M 27.203125 35.375 C 26.761719 35.875 26.355469 36.402344 25.933594 36.917969 C 25.542969 37.398438 25.121094 37.828125 24.953125 38.445312 C 24.722656 39.308594 25.101562 39.890625 25.539062 40.570312 C 26.0625 41.386719 26.625 42.179688 27.226562 42.941406 C 27.769531 43.691406 28.433594 44.351562 29.183594 44.894531 C 29.484375 45.058594 29.859375 44.960938 30.039062 44.667969 C 31.121094 43.226562 32.136719 41.722656 33.328125 40.367188 C 33.460938 40.230469 33.523438 40.039062 33.5 39.847656 C 33.476562 39.65625 33.367188 39.484375 33.203125 39.382812 C 33.097656 39.308594 32.996094 39.226562 32.894531 39.148438 L 32.835938 39.105469 L 32.707031 39.003906 L 32.367188 38.742188 C 31.789062 38.289062 31.210938 37.832031 30.632812 37.378906 C 29.785156 36.710938 28.929688 36.050781 28.089844 35.375 C 27.84375 35.136719 27.453125 35.136719 27.207031 35.375 C 26.964844 35.617188 26.964844 36.011719 27.207031 36.257812 C 28.066406 36.953125 28.941406 37.632812 29.8125 38.316406 C 30.726562 39.035156 31.625 39.785156 32.570312 40.464844 L 32.445312 39.480469 C 31.179688 40.914062 30.101562 42.507812 28.960938 44.035156 L 29.816406 43.8125 C 29.191406 43.335938 28.636719 42.769531 28.175781 42.132812 C 27.664062 41.492188 27.195312 40.816406 26.746094 40.128906 C 26.585938 39.886719 26.429688 39.640625 26.277344 39.390625 C 26.136719 39.15625 26.101562 39.132812 26.136719 38.894531 C 26.210938 38.382812 26.671875 37.988281 26.980469 37.605469 C 27.347656 37.152344 27.707031 36.695312 28.09375 36.257812 C 28.621094 35.65625 27.738281 34.769531 27.203125 35.375 Z M 27.203125 35.375 "/>
<path style=" stroke:none;fill-rule:nonzero;fill:rgb(12.941176%,9.019608%,8.235294%);fill-opacity:1;" d="M 38.09375 64.082031 C 41.15625 58.769531 44.183594 53.429688 46.984375 47.972656 C 47.183594 47.582031 47.382812 47.191406 47.265625 46.742188 C 47.109375 46.34375 46.851562 45.992188 46.523438 45.71875 C 45.898438 45.070312 45.25 44.453125 44.59375 43.839844 L 44.46875 44.824219 L 46.042969 43.921875 C 46.515625 43.652344 47.101562 43.414062 47.058594 42.777344 C 46.980469 42.382812 46.800781 42.011719 46.539062 41.707031 C 46.285156 41.359375 46.011719 41.027344 45.71875 40.714844 C 44.507812 39.46875 43.152344 38.375 41.679688 37.453125 C 41.507812 37.355469 41.304688 37.34375 41.125 37.414062 C 40.945312 37.488281 40.8125 37.640625 40.757812 37.828125 C 39.175781 44.84375 37.191406 51.765625 34.820312 58.554688 C 34.242188 60.195312 33.605469 61.816406 32.953125 63.429688 C 32.863281 63.761719 33.058594 64.105469 33.390625 64.199219 C 33.722656 64.285156 34.0625 64.089844 34.160156 63.761719 C 36.660156 57.449219 38.757812 50.988281 40.4375 44.410156 C 40.984375 42.335938 41.492188 40.253906 41.964844 38.160156 L 41.046875 38.535156 C 41.984375 39.140625 42.878906 39.8125 43.722656 40.542969 C 44.179688 40.9375 44.609375 41.355469 45.015625 41.800781 C 45.183594 41.984375 45.339844 42.179688 45.484375 42.378906 C 45.617188 42.535156 45.730469 42.710938 45.8125 42.894531 L 45.898438 42.578125 C 45.945312 42.484375 45.871094 42.582031 45.808594 42.617188 C 45.71875 42.664062 45.632812 42.71875 45.542969 42.765625 L 44.953125 43.105469 L 43.835938 43.742188 C 43.671875 43.84375 43.558594 44.011719 43.535156 44.203125 C 43.507812 44.394531 43.574219 44.589844 43.710938 44.726562 C 44.253906 45.238281 44.796875 45.753906 45.324219 46.285156 C 45.445312 46.410156 45.566406 46.535156 45.6875 46.660156 C 45.769531 46.746094 46.035156 46.9375 46.046875 47.042969 C 46.0625 47.21875 45.769531 47.601562 45.675781 47.785156 C 45.023438 49.046875 44.363281 50.300781 43.6875 51.554688 C 42.296875 54.136719 40.875 56.699219 39.421875 59.246094 C 38.621094 60.652344 37.820312 62.054688 37.011719 63.453125 C 36.609375 64.152344 37.6875 64.785156 38.09375 64.085938 Z M 38.09375 64.082031 "/>
<path style=" stroke:none;fill-rule:nonzero;fill:rgb(12.941176%,9.019608%,8.235294%);fill-opacity:1;" d="M 38.5 36.261719 C 38.886719 36.695312 39.246094 37.152344 39.613281 37.605469 C 39.921875 37.988281 40.382812 38.382812 40.457031 38.894531 C 40.492188 39.132812 40.464844 39.144531 40.328125 39.371094 C 40.175781 39.628906 40.011719 39.878906 39.847656 40.132812 C 39.398438 40.816406 38.929688 41.492188 38.417969 42.132812 C 37.957031 42.773438 37.402344 43.335938 36.777344 43.8125 L 37.632812 44.039062 C 36.488281 42.511719 35.414062 40.914062 34.148438 39.484375 L 34.023438 40.46875 C 34.96875 39.789062 35.867188 39.035156 36.785156 38.316406 C 37.652344 37.632812 38.527344 36.953125 39.386719 36.261719 C 39.628906 36.015625 39.628906 35.621094 39.386719 35.375 C 39.140625 35.136719 38.75 35.136719 38.503906 35.375 C 37.664062 36.050781 36.8125 36.710938 35.964844 37.378906 C 35.394531 37.828125 34.824219 38.273438 34.253906 38.722656 L 33.910156 38.988281 L 33.757812 39.105469 L 33.671875 39.171875 C 33.726562 39.132812 33.554688 39.265625 33.515625 39.292969 C 33.476562 39.324219 33.433594 39.355469 33.390625 39.386719 C 33.226562 39.488281 33.117188 39.65625 33.09375 39.847656 C 33.070312 40.039062 33.132812 40.230469 33.265625 40.371094 C 34.457031 41.722656 35.472656 43.230469 36.550781 44.671875 C 36.730469 44.964844 37.109375 45.0625 37.410156 44.894531 C 38.160156 44.351562 38.820312 43.695312 39.367188 42.941406 C 39.96875 42.183594 40.53125 41.390625 41.054688 40.574219 C 41.492188 39.890625 41.871094 39.308594 41.636719 38.445312 C 41.472656 37.832031 41.050781 37.402344 40.660156 36.917969 C 40.238281 36.402344 39.828125 35.875 39.386719 35.375 C 38.851562 34.769531 37.96875 35.65625 38.5 36.261719 Z M 38.5 36.261719 "/>
<path style=" stroke:none;fill-rule:nonzero;fill:rgb(12.941176%,9.019608%,8.235294%);fill-opacity:1;" d="M 62.195312 77.332031 C 61.710938 71.953125 61.085938 66.582031 60.460938 61.21875 C 60.121094 58.289062 59.855469 55.320312 59.171875 52.445312 C 58.433594 49.332031 57.160156 46.320312 54.664062 44.21875 C 51.648438 41.671875 47.746094 40.378906 44.121094 38.972656 C 43.789062 38.882812 43.445312 39.078125 43.351562 39.410156 C 43.265625 39.742188 43.460938 40.082031 43.789062 40.179688 C 46.953125 41.40625 50.277344 42.542969 53.054688 44.542969 C 54.238281 45.375 55.238281 46.433594 56.003906 47.660156 C 56.785156 48.992188 57.371094 50.429688 57.75 51.925781 C 58.511719 54.730469 58.789062 57.632812 59.125 60.511719 C 59.476562 63.488281 59.8125 66.46875 60.132812 69.449219 C 60.417969 72.074219 60.707031 74.699219 60.945312 77.332031 C 60.953125 77.675781 61.226562 77.949219 61.570312 77.957031 C 61.914062 77.957031 62.191406 77.675781 62.195312 77.332031 Z M 62.195312 77.332031 "/>
<path style=" stroke:none;fill-rule:nonzero;fill:rgb(12.941176%,9.019608%,8.235294%);fill-opacity:1;" d="M 14.101562 44.484375 C 16.910156 42.363281 20.238281 41.042969 23.542969 39.917969 C 24.300781 39.660156 23.976562 38.449219 23.210938 38.710938 C 19.808594 39.867188 16.355469 41.222656 13.46875 43.402344 C 13.179688 43.585938 13.078125 43.960938 13.242188 44.261719 C 13.417969 44.558594 13.800781 44.65625 14.101562 44.484375 Z M 14.101562 44.484375 "/>
</g>
</svg>
